  0
SECTION
  2
HEADER
  9
$ACADVER
  1
AC1032
  9
$ACADMAINTVER
 90
      174
  9
$DWGCODEPAGE
  3
ANSI_1252
  9
$LASTSAVEDBY
  1
Admin
  9
$REQUIREDVERSIONS
160
                 0
  9
$INSBASE
 10
0.0
 20
0.0
 30
0.0
  9
$EXTMIN
 10
-61.76612316210388
 20
29.11555981200423
 30
0.0
  9
$EXTMAX
 10
-27.26611937570389
 20
44.74144560767085
 30
0.0
  9
$LIMMIN
 10
0.0
 20
0.0
  9
$LIMMAX
 10
420.0
 20
297.0
  9
$ORTHOMODE
 70
     0
  9
$REGENMODE
 70
     1
  9
$FILLMODE
 70
     1
  9
$QTEXTMODE
 70
     0
  9
$MIRRTEXT
 70
     1
  9
$LTSCALE
 40
1.0
  9
$ATTMODE
 70
     1
  9
$TEXTSIZE
 40
0.35
  9
$TRACEWID
 40
1.0
  9
$TEXTSTYLE
  7
Standard
  9
$CLAYER
  8
0
  9
$CELTYPE
  6
ByLayer
  9
$CECOLOR
 62
   256
  9
$CELTSCALE
 40
1.0
  9
$DISPSILH
 70
     0
  9
$DIMSCALE
 40
1.0
  9
$DIMASZ
 40
0.3302
  9
$DIMEXO
 40
0.0
  9
$DIMDLI
 40
3.75
  9
$DIMRND
 40
0.0
  9
$DIMDLE
 40
0.0
  9
$DIMEXE
 40
0.1
  9
$DIMTP
 40
0.0
  9
$DIMTM
 40
0.0
  9
$DIMTXT
 40
0.35
  9
$DIMCEN
 40
2.5
  9
$DIMTSZ
 40
0.0
  9
$DIMTOL
 70
     0
  9
$DIMLIM
 70
     0
  9
$DIMTIH
 70
     1
  9
$DIMTOH
 70
     1
  9
$DIMSE1
 70
     0
  9
$DIMSE2
 70
     0
  9
$DIMTAD
 70
     1
  9
$DIMZIN
 70
     1
  9
$DIMBLK
  1

  9
$DIMASO
 70
     1
  9
$DIMSHO
 70
     1
  9
$DIMPOST
  1

  9
$DIMAPOST
  1

  9
$DIMALT
 70
     0
  9
$DIMALTD
 70
     3
  9
$DIMALTF
 40
0.3937007874
  9
$DIMLFAC
 40
1.0
  9
$DIMTOFL
 70
     1
  9
$DIMTVP
 40
0.0
  9
$DIMTIX
 70
     0
  9
$DIMSOXD
 70
     0
  9
$DIMSAH
 70
     0
  9
$DIMBLK1
  1

  9
$DIMBLK2
  1

  9
$DIMSTYLE
  2
ISO-25
  9
$DIMCLRD
 70
     0
  9
$DIMCLRE
 70
     0
  9
$DIMCLRT
 70
     0
  9
$DIMTFAC
 40
1.0
  9
$DIMGAP
 40
0.1524
  9
$DIMJUST
 70
     0
  9
$DIMSD1
 70
     0
  9
$DIMSD2
 70
     0
  9
$DIMTOLJ
 70
     0
  9
$DIMTZIN
 70
     1
  9
$DIMALTZ
 70
     0
  9
$DIMALTTZ
 70
     0
  9
$DIMUPT
 70
     0
  9
$DIMDEC
 70
     2
  9
$DIMTDEC
 70
     2
  9
$DIMALTU
 70
     2
  9
$DIMALTTD
 70
     3
  9
$DIMTXSTY
  7
Standard
  9
$DIMAUNIT
 70
     0
  9
$DIMADEC
 70
     2
  9
$DIMALTRND
 40
0.0
  9
$DIMAZIN
 70
     0
  9
$DIMDSEP
 70
    44
  9
$DIMATFIT
 70
     3
  9
$DIMFRAC
 70
     0
  9
$DIMLDRBLK
  1

  9
$DIMLUNIT
 70
     2
  9
$DIMLWD
 70
    -2
  9
$DIMLWE
 70
    -2
  9
$DIMTMOVE
 70
     0
  9
$DIMFXL
 40
1.0
  9
$DIMFXLON
 70
     0
  9
$DIMJOGANG
 40
0.7853981633974483
  9
$DIMTFILL
 70
     0
  9
$DIMTFILLCLR
 70
     0
  9
$DIMARCSYM
 70
     0
  9
$DIMLTYPE
  6

  9
$DIMLTEX1
  6

  9
$DIMLTEX2
  6

  9
$DIMTXTDIRECTION
 70
     0
  9
$LUNITS
 70
     2
  9
$LUPREC
 70
     2
  9
$SKETCHINC
 40
1.0
  9
$FILLETRAD
 40
10.0
  9
$AUNITS
 70
     0
  9
$AUPREC
 70
     2
  9
$MENU
  1
.
  9
$ELEVATION
 40
0.0
  9
$PELEVATION
 40
0.0
  9
$THICKNESS
 40
0.0
  9
$LIMCHECK
 70
     0
  9
$CHAMFERA
 40
0.0
  9
$CHAMFERB
 40
0.0
  9
$CHAMFERC
 40
0.0
  9
$CHAMFERD
 40
0.0
  9
$SKPOLY
 70
     0
  9
$TDCREATE
 40
2460157.675300926
  9
$TDUCREATE
 40
2460157.925300926
  9
$TDUPDATE
 40
2460157.682361111
  9
$TDUUPDATE
 40
2460157.932361111
  9
$TDINDWG
 40
0.0031481481
  9
$TDUSRTIMER
 40
0.0031481481
  9
$USRTIMER
 70
     1
  9
$ANGBASE
 50
0.0
  9
$ANGDIR
 70
     0
  9
$PDMODE
 70
     0
  9
$PDSIZE
 40
-1.0
  9
$PLINEWID
 40
0.0
  9
$SPLFRAME
 70
     0
  9
$SPLINETYPE
 70
     6
  9
$SPLINESEGS
 70
     8
  9
$HANDSEED
  5
87C
  9
$SURFTAB1
 70
     6
  9
$SURFTAB2
 70
     6
  9
$SURFTYPE
 70
     6
  9
$SURFU
 70
     6
  9
$SURFV
 70
     6
  9
$UCSBASE
  2

  9
$UCSNAME
  2

  9
$UCSORG
 10
0.0
 20
0.0
 30
0.0
  9
$UCSXDIR
 10
1.0
 20
0.0
 30
0.0
  9
$UCSYDIR
 10
0.0
 20
1.0
 30
0.0
  9
$UCSORTHOREF
  2

  9
$UCSORTHOVIEW
 70
     0
  9
$UCSORGTOP
 10
0.0
 20
0.0
 30
0.0
  9
$UCSORGBOTTOM
 10
0.0
 20
0.0
 30
0.0
  9
$UCSORGLEFT
 10
0.0
 20
0.0
 30
0.0
  9
$UCSORGRIGHT
 10
0.0
 20
0.0
 30
0.0
  9
$UCSORGFRONT
 10
0.0
 20
0.0
 30
0.0
  9
$UCSORGBACK
 10
0.0
 20
0.0
 30
0.0
  9
$PUCSBASE
  2

  9
$PUCSNAME
  2

  9
$PUCSORG
 10
0.0
 20
0.0
 30
0.0
  9
$PUCSXDIR
 10
1.0
 20
0.0
 30
0.0
  9
$PUCSYDIR
 10
0.0
 20
1.0
 30
0.0
  9
$PUCSORTHOREF
  2

  9
$PUCSORTHOVIEW
 70
     0
  9
$PUCSORGTOP
 10
0.0
 20
0.0
 30
0.0
  9
$PUCSORGBOTTOM
 10
0.0
 20
0.0
 30
0.0
  9
$PUCSORGLEFT
 10
0.0
 20
0.0
 30
0.0
  9
$PUCSORGRIGHT
 10
0.0
 20
0.0
 30
0.0
  9
$PUCSORGFRONT
 10
0.0
 20
0.0
 30
0.0
  9
$PUCSORGBACK
 10
0.0
 20
0.0
 30
0.0
  9
$USERI1
 70
     0
  9
$USERI2
 70
     0
  9
$USERI3
 70
     0
  9
$USERI4
 70
     0
  9
$USERI5
 70
     0
  9
$USERR1
 40
0.0
  9
$USERR2
 40
0.0
  9
$USERR3
 40
0.0
  9
$USERR4
 40
0.0
  9
$USERR5
 40
0.0
  9
$WORLDVIEW
 70
     1
  9
$SHADEDGE
 70
     3
  9
$SHADEDIF
 70
    70
  9
$TILEMODE
 70
     1
  9
$MAXACTVP
 70
    64
  9
$PINSBASE
 10
0.0
 20
0.0
 30
0.0
  9
$PLIMCHECK
 70
     0
  9
$PEXTMIN
 10
1.000000000000000E+20
 20
1.000000000000000E+20
 30
1.000000000000000E+20
  9
$PEXTMAX
 10
-1.000000000000000E+20
 20
-1.000000000000000E+20
 30
-1.000000000000000E+20
  9
$PLIMMIN
 10
0.0
 20
0.0
  9
$PLIMMAX
 10
420.0
 20
297.0
  9
$UNITMODE
 70
     0
  9
$VISRETAIN
 70
     1
  9
$PLINEGEN
 70
     0
  9
$PSLTSCALE
 70
     1
  9
$TREEDEPTH
 70
  3020
  9
$CMLSTYLE
  2
Standard
  9
$CMLJUST
 70
     0
  9
$CMLSCALE
 40
20.0
  9
$PROXYGRAPHICS
 70
     1
  9
$MEASUREMENT
 70
     1
  9
$CELWEIGHT
370
    -1
  9
$ENDCAPS
280
     0
  9
$JOINSTYLE
280
     0
  9
$LWDISPLAY
290
     1
  9
$INSUNITS
 70
     5
  9
$HYPERLINKBASE
  1

  9
$STYLESHEET
  1

  9
$XEDIT
290
     1
  9
$CEPSNTYPE
380
     0
  9
$PSTYLEMODE
290
     1
  9
$FINGERPRINTGUID
  2
{2C8A9FD1-0B61-A544-8BC7-492E7DE4785C}
  9
$VERSIONGUID
  2
{2C3A4558-1144-374F-9D29-29928A9A287E}
  9
$EXTNAMES
290
     1
  9
$PSVPSCALE
 40
0.0
  9
$OLESTARTUP
290
     0
  9
$SORTENTS
280
   127
  9
$INDEXCTL
280
     0
  9
$HIDETEXT
280
     0
  9
$XCLIPFRAME
280
     2
  9
$HALOGAP
280
     0
  9
$OBSCOLOR
 70
   257
  9
$OBSLTYPE
280
     0
  9
$INTERSECTIONDISPLAY
280
     0
  9
$INTERSECTIONCOLOR
 70
   257
  9
$DIMASSOC
280
     1
  9
$PROJECTNAME
  1

  9
$CAMERADISPLAY
290
     0
  9
$LENSLENGTH
 40
50.0
  9
$CAMERAHEIGHT
 40
0.0
  9
$STEPSPERSEC
 40
2.0
  9
$STEPSIZE
 40
6.0
  9
$3DDWFPREC
 40
2.0
  9
$PSOLWIDTH
 40
0.25
  9
$PSOLHEIGHT
 40
4.0
  9
$LOFTANG1
 40
1.570796326794896
  9
$LOFTANG2
 40
1.570796326794896
  9
$LOFTMAG1
 40
0.0
  9
$LOFTMAG2
 40
0.0
  9
$LOFTPARAM
 70
     7
  9
$LOFTNORMALS
280
     1
  9
$LATITUDE
 40
37.795
  9
$LONGITUDE
 40
-122.394
  9
$NORTHDIRECTION
 40
0.0
  9
$TIMEZONE
 70
 -8000
  9
$LIGHTGLYPHDISPLAY
280
     1
  9
$TILEMODELIGHTSYNCH
280
     1
  9
$CMATERIAL
347
DC
  9
$SOLIDHIST
280
     0
  9
$SHOWHIST
280
     1
  9
$DWFFRAME
280
     2
  9
$DGNFRAME
280
     0
  9
$REALWORLDSCALE
290
     1
  9
$INTERFERECOLOR
 62
     1
  9
$INTERFEREOBJVS
345
FE
  9
$INTERFEREVPVS
346
FB
  9
$CSHADOW
280
     0
  9
$SHADOWPLANELOCATION
 40
0.0
  0
ENDSEC
  0
SECTION
  2
CLASSES
  0
CLASS
  1
ACDBDICTIONARYWDFLT
  2
AcDbDictionaryWithDefault
  3
ObjectDBX Classes
 90
        0
 91
        1
280
     0
281
     0
  0
CLASS
  1
VISUALSTYLE
  2
AcDbVisualStyle
  3
ObjectDBX Classes
 90
     4095
 91
       24
280
     0
281
     0
  0
CLASS
  1
MATERIAL
  2
AcDbMaterial
  3
ObjectDBX Classes
 90
     1153
 91
        3
280
     0
281
     0
  0
CLASS
  1
SCALE
  2
AcDbScale
  3
ObjectDBX Classes
 90
     1153
 91
       33
280
     0
281
     0
  0
CLASS
  1
TABLESTYLE
  2
AcDbTableStyle
  3
ObjectDBX Classes
 90
     4095
 91
        1
280
     0
281
     0
  0
CLASS
  1
MLEADERSTYLE
  2
AcDbMLeaderStyle
  3
ACDB_MLEADERSTYLE_CLASS
 90
     4095
 91
        1
280
     0
281
     0
  0
CLASS
  1
SUN
  2
AcDbSun
  3
SCENEOE
 90
     1153
 91
        0
280
     0
281
     0
  0
CLASS
  1
ACDBSECTIONVIEWSTYLE
  2
AcDbSectionViewStyle
  3
ObjectDBX Classes
 90
     1025
 91
        1
280
     0
281
     0
  0
CLASS
  1
ACDBDETAILVIEWSTYLE
  2
AcDbDetailViewStyle
  3
ObjectDBX Classes
 90
     1025
 91
        1
280
     0
281
     0
  0
CLASS
  1
DICTIONARYVAR
  2
AcDbDictionaryVar
  3
ObjectDBX Classes
 90
        0
 91
        9
280
     0
281
     0
  0
CLASS
  1
CELLSTYLEMAP
  2
AcDbCellStyleMap
  3
ObjectDBX Classes
 90
     1152
 91
        2
280
     0
281
     0
  0
ENDSEC
  0
SECTION
  2
TABLES
  0
TABLE
  2
VPORT
  5
8
330
0
100
AcDbSymbolTable
 70
     1
  0
VPORT
  5
29
330
8
100
AcDbSymbolTableRecord
100
AcDbViewportTableRecord
  2
*Active
 70
     0
 10
0.0
 20
0.0
 11
1.0
 21
1.0
 12
-66.42698427907011
 22
44.08603136956659
 13
0.0
 23
0.0
 14
10.0
 24
10.0
 15
10.0
 25
10.0
 16
0.0
 26
0.0
 36
1.0
 17
0.0
 27
0.0
 37
0.0
 40
41.13660868562834
 41
2.494805194805195
 42
50.0
 43
0.0
 44
0.0
 50
0.0
 51
0.0
 71
     0
 72
   100
 73
     1
 74
     3
 75
     0
 76
     0
 77
     0
 78
     0
281
     0
 65
     1
110
0.0
120
0.0
130
0.0
111
1.0
121
0.0
131
0.0
112
0.0
122
1.0
132
0.0
 79
     0
146
0.0
348
FA
 60
     3
 61
     5
292
     1
282
     1
141
0.0
142
0.0
 63
   250
421
  3355443
1001
ACAD_NAV_VCDISPLAY
1070
     3
  0
ENDTAB
  0
TABLE
  2
LTYPE
  5
5
330
0
100
AcDbSymbolTable
 70
     7
  0
LTYPE
  5
14
330
5
100
AcDbSymbolTableRecord
100
AcDbLinetypeTableRecord
  2
ByBlock
 70
     0
  3

 72
    65
 73
     0
 40
0.0
  0
LTYPE
  5
15
330
5
100
AcDbSymbolTableRecord
100
AcDbLinetypeTableRecord
  2
ByLayer
 70
     0
  3

 72
    65
 73
     0
 40
0.0
  0
LTYPE
  5
16
330
5
100
AcDbSymbolTableRecord
100
AcDbLinetypeTableRecord
  2
Continuous
 70
     0
  3
Solid line
 72
    65
 73
     0
 40
0.0
  0
LTYPE
  5
6E
330
5
100
AcDbSymbolTableRecord
100
AcDbLinetypeTableRecord
  2
HIDDEN
 70
     0
  3
Hidden __ __ __ __ __ __ __ __ __ __ __ __ __ __
 72
    65
 73
     2
 40
0.1905
 49
0.127
 74
     0
 49
-0.0635
 74
     0
  0
LTYPE
  5
6F
330
5
100
AcDbSymbolTableRecord
100
AcDbLinetypeTableRecord
  2
PHANTOM
 70
     0
  3
Phantom ______  __  __  ______  __  __  ______
 72
    65
 73
     6
 40
1.27
 49
0.635
 74
     0
 49
-0.127
 74
     0
 49
0.127
 74
     0
 49
-0.127
 74
     0
 49
0.127
 74
     0
 49
-0.127
 74
     0
  0
LTYPE
  5
70
330
5
100
AcDbSymbolTableRecord
100
AcDbLinetypeTableRecord
  2
CENTER
 70
     0
  3
Center ____ _ ____ _ ____ _ ____ _ ____ _ ____
 72
    65
 73
     4
 40
1.016
 49
0.635
 74
     0
 49
-0.127
 74
     0
 49
0.127
 74
     0
 49
-0.127
 74
     0
  0
LTYPE
  5
71
330
5
100
AcDbSymbolTableRecord
100
AcDbLinetypeTableRecord
  2
CENTERX2
 70
     0
  3
Center (2x) ________  __  ________  __  _____
 72
    65
 73
     4
 40
2.032
 49
1.27
 74
     0
 49
-0.254
 74
     0
 49
0.254
 74
     0
 49
-0.254
 74
     0
  0
LTYPE
  5
72
330
5
100
AcDbSymbolTableRecord
100
AcDbLinetypeTableRecord
  2
DOT2
 70
     0
  3
Dot (.5x) ........................................
 72
    65
 73
     2
 40
0.0635
 49
0.0
 74
     0
 49
-0.0635
 74
     0
  0
LTYPE
  5
4C8
330
5
100
AcDbSymbolTableRecord
100
AcDbLinetypeTableRecord
  2
SLD-Continua
 70
     0
  3
SolidWorks Line Style
 72
    65
 73
     0
 40
0.0
  0
ENDTAB
  0
TABLE
  2
LAYER
  5
2
330
0
100
AcDbSymbolTable
 70
     1
  0
LAYER
  5
10
102
{ACAD_XDICTIONARY
360
4C2
102
}
330
2
100
AcDbSymbolTableRecord
100
AcDbLayerTableRecord
  2
0
 70
     0
 62
     7
  6
Continuous
370
    -3
390
F
347
EC
348
0
  0
ENDTAB
  0
TABLE
  2
STYLE
  5
3
330
0
100
AcDbSymbolTable
 70
     1
  0
STYLE
  5
11
330
3
100
AcDbSymbolTableRecord
100
AcDbTextStyleTableRecord
  2
Standard
 70
     0
 40
0.0
 41
1.0
 50
0.0
 71
     0
 42
0.35
  3
txt
  4

  0
ENDTAB
  0
TABLE
  2
VIEW
  5
6
330
0
100
AcDbSymbolTable
 70
     0
  0
ENDTAB
  0
TABLE
  2
UCS
  5
7
330
0
100
AcDbSymbolTable
 70
     0
  0
ENDTAB
  0
TABLE
  2
APPID
  5
9
330
0
100
AcDbSymbolTable
 70
     3
  0
APPID
  5
12
330
9
100
AcDbSymbolTableRecord
100
AcDbRegAppTableRecord
  2
ACAD
 70
     0
  0
APPID
  5
119
330
9
100
AcDbSymbolTableRecord
100
AcDbRegAppTableRecord
  2
ACAD_NAV_VCDISPLAY
 70
     0
  0
APPID
  5
86D
330
9
100
AcDbSymbolTableRecord
100
AcDbRegAppTableRecord
  2
ACAD_EXEMPT_FROM_CAD_STANDARDS
 70
     0
  0
ENDTAB
  0
TABLE
  2
DIMSTYLE
  5
A
330
0
100
AcDbSymbolTable
 70
     1
100
AcDbDimStyleTable
 71
     0
  0
DIMSTYLE
105
27
330
A
100
AcDbSymbolTableRecord
100
AcDbDimStyleTableRecord
  2
ISO-25
 70
     0
 41
2.5
 42
0.625
 43
3.75
 44
1.25
 73
     0
 74
     0
 77
     1
 78
     8
140
2.5
141
2.5
143
0.0393700787
147
0.625
171
     3
172
     1
271
     2
272
     2
274
     3
278
    44
283
     0
284
     8
340
11
  0
ENDTAB
  0
TABLE
  2
BLOCK_RECORD
  5
1
330
0
100
AcDbSymbolTable
 70
     2
  0
BLOCK_RECORD
  5
1F
330
1
100
AcDbSymbolTableRecord
100
AcDbBlockTableRecord
  2
*Model_Space
340
22
 70
     0
280
     1
281
     0
  0
BLOCK_RECORD
  5
1B
330
1
100
AcDbSymbolTableRecord
100
AcDbBlockTableRecord
  2
*Paper_Space
340
1E
 70
     0
280
     1
281
     0
  0
BLOCK_RECORD
  5
23
330
1
100
AcDbSymbolTableRecord
100
AcDbBlockTableRecord
  2
*Paper_Space0
340
26
 70
     0
280
     1
281
     0
  0
BLOCK_RECORD
  5
192
330
1
100
AcDbSymbolTableRecord
100
AcDbBlockTableRecord
  2
A$C554dd44a
340
0
 70
     5
280
     1
281
     0
  0
ENDTAB
  0
ENDSEC
  0
SECTION
  2
BLOCKS
  0
BLOCK
  5
20
330
1F
100
AcDbEntity
  8
0
100
AcDbBlockBegin
  2
*Model_Space
 70
     0
 10
0.0
 20
0.0
 30
0.0
  3
*Model_Space
  1

  0
ENDBLK
  5
21
330
1F
100
AcDbEntity
  8
0
100
AcDbBlockEnd
  0
BLOCK
  5
1C
330
1B
100
AcDbEntity
 67
     1
  8
0
100
AcDbBlockBegin
  2
*Paper_Space
 70
     0
 10
0.0
 20
0.0
 30
0.0
  3
*Paper_Space
  1

  0
ENDBLK
  5
1D
330
1B
100
AcDbEntity
 67
     1
  8
0
100
AcDbBlockEnd
  0
BLOCK
  5
24
330
23
100
AcDbEntity
 67
     1
  8
0
100
AcDbBlockBegin
  2
*Paper_Space0
 70
     0
 10
0.0
 20
0.0
 30
0.0
  3
*Paper_Space0
  1

  0
ENDBLK
  5
25
330
23
100
AcDbEntity
 67
     1
  8
0
100
AcDbBlockEnd
  0
BLOCK
  5
234
330
192
100
AcDbEntity
  8
0
100
AcDbBlockBegin
  2
A$C554dd44a
 70
     0
 10
0.0
 20
0.0
 30
0.0
  3
A$C554dd44a
  1

  0
CIRCLE
  5
193
330
192
100
AcDbEntity
  8
0
  6
Continuous
 62
     7
370
    25
100
AcDbCircle
 10
27.8492493714557
 20
53.820048348
 30
0.0
 40
0.875
  0
CIRCLE
  5
194
330
192
100
AcDbEntity
  8
0
  6
Continuous
 62
     7
370
    25
100
AcDbCircle
 10
46.2692493714557
 20
53.820048348
 30
0.0
 40
0.8749999999999714
  0
CIRCLE
  5
195
330
192
100
AcDbEntity
  8
0
  6
Continuous
 62
     7
370
    25
100
AcDbCircle
 10
46.2692493714557
 20
96.17993405810004
 30
0.0
 40
0.8750000000000284
  0
CIRCLE
  5
196
330
192
100
AcDbEntity
  8
0
  6
Continuous
 62
     7
370
    25
100
AcDbCircle
 10
27.8492493714557
 20
96.17993405810004
 30
0.0
 40
0.875
  0
CIRCLE
  5
197
330
192
100
AcDbEntity
  8
0
  6
Continuous
 62
     7
370
    25
100
AcDbCircle
 10
36.62939108995573
 20
52.0005113928
 30
0.0
 40
0.8499999999999657
  0
CIRCLE
  5
198
330
192
100
AcDbEntity
  8
0
  6
Continuous
 62
     7
370
    25
100
AcDbCircle
 10
47.12939108995573
 20
82.00051139280002
 30
0.0
 40
0.8499999999999657
  0
CIRCLE
  5
199
330
192
100
AcDbEntity
  8
0
  6
Continuous
 62
     7
370
    25
100
AcDbCircle
 10
26.12939108995573
 20
82.00051139280002
 30
0.0
 40
0.8499999999999943
  0
CIRCLE
  5
19A
330
192
100
AcDbEntity
  8
0
  6
Continuous
 62
     7
370
    25
100
AcDbCircle
 10
32.22933794545571
 20
29.9999340618
 30
0.0
 40
1.506117052035504
  0
CIRCLE
  5
19B
330
192
100
AcDbEntity
  8
0
  6
Continuous
 62
     7
370
    25
100
AcDbCircle
 10
32.22933794545571
 20
120.096612854
 30
0.0
 40
1.499999999890803
  0
CIRCLE
  5
19C
330
192
100
AcDbEntity
  8
0
  6
Continuous
 62
     7
370
    25
100
AcDbCircle
 10
4.629391090055719
 20
105.0624912009
 30
0.0
 40
1.499999999890744
  0
CIRCLE
  5
19D
330
192
100
AcDbEntity
  8
0
  6
Continuous
 62
     7
370
    25
100
AcDbCircle
 10
4.629391090055719
 20
44.93749120519999
 30
0.0
 40
1.499999999890689
  0
CIRCLE
  5
19E
330
192
100
AcDbEntity
  8
0
  6
Continuous
 62
     7
370
    25
100
AcDbCircle
 10
72.6292493715557
 20
104.9374340563
 30
0.0
 40
1.499999999890744
  0
CIRCLE
  5
19F
330
192
100
AcDbEntity
  8
0
  6
Continuous
 62
     7
370
    25
100
AcDbCircle
 10
72.6292493715557
 20
44.81243406069999
 30
0.0
 40
1.499999999890689
  0
CIRCLE
  5
1A0
330
192
100
AcDbEntity
  8
0
  6
Continuous
 62
     7
370
    25
100
AcDbCircle
 10
27.8492493714557
 20
53.820048348
 30
0.0
 40
0.8499999999999943
  0
CIRCLE
  5
1A1
330
192
100
AcDbEntity
  8
0
  6
Continuous
 62
     7
370
    25
100
AcDbCircle
 10
46.2692493714557
 20
53.820048348
 30
0.0
 40
0.8499999999999657
  0
CIRCLE
  5
1A2
330
192
100
AcDbEntity
  8
0
  6
Continuous
 62
     7
370
    25
100
AcDbCircle
 10
46.2692493714557
 20
96.17993405810004
 30
0.0
 40
0.8500000000000227
  0
CIRCLE
  5
1A3
330
192
100
AcDbEntity
  8
0
  6
Continuous
 62
     7
370
    25
100
AcDbCircle
 10
27.8492493714557
 20
96.17993405810004
 30
0.0
 40
0.8499999999999943
  0
LINE
  5
1A4
330
192
100
AcDbEntity
  8
0
  6
Continuous
 62
     7
370
    25
100
AcDbLine
 10
42.9217371014557
 20
80.49993405810004
 30
0.0
 11
42.9217371014557
 21
69.49993405890001
 31
0.0
  0
LINE
  5
1A5
330
192
100
AcDbEntity
  8
0
  6
Continuous
 62
     7
370
    25
100
AcDbLine
 10
66.12924937145571
 20
101.999991203
 30
0.0
 11
66.12924937145571
 21
111.999991203
 31
0.0
  0
LINE
  5
1A6
330
192
100
AcDbEntity
  8
0
  6
Continuous
 62
     7
370
    25
100
AcDbLine
 10
66.12924937145571
 20
111.999991203
 30
0.0
 11
61.12924937145571
 21
111.999991203
 31
0.0
  0
LINE
  5
1A7
330
192
100
AcDbEntity
  8
0
  6
Continuous
 62
     7
370
    25
100
AcDbLine
 10
61.12924937145571
 20
111.999991203
 30
0.0
 11
61.12924937145571
 21
101.999991203
 31
0.0
  0
LINE
  5
1A8
330
192
100
AcDbEntity
  8
0
  6
Continuous
 62
     7
370
    25
100
AcDbLine
 10
61.12924937145571
 20
101.999991203
 30
0.0
 11
66.12924937145571
 21
101.999991203
 31
0.0
  0
LINE
  5
1A9
330
192
100
AcDbEntity
  8
0
  6
Continuous
 62
     7
370
    25
100
AcDbLine
 10
26.1292493714557
 20
7.999991202999999
 30
0.0
 11
26.1292493714557
 21
17.999991203
 31
0.0
  0
LINE
  5
1AA
330
192
100
AcDbEntity
  8
0
  6
Continuous
 62
     7
370
    25
100
AcDbLine
 10
26.1292493714557
 20
17.999991203
 30
0.0
 11
21.1292493714557
 21
17.999991203
 31
0.0
  0
LINE
  5
1AB
330
192
100
AcDbEntity
  8
0
  6
Continuous
 62
     7
370
    25
100
AcDbLine
 10
21.1292493714557
 20
17.999991203
 30
0.0
 11
21.1292493714557
 21
7.999991202999999
 31
0.0
  0
LINE
  5
1AC
330
192
100
AcDbEntity
  8
0
  6
Continuous
 62
     7
370
    25
100
AcDbLine
 10
21.1292493714557
 20
7.999991202999999
 30
0.0
 11
26.1292493714557
 21
7.999991202999999
 31
0.0
  0
LINE
  5
1AD
330
192
100
AcDbEntity
  8
0
  6
Continuous
 62
     7
370
    25
100
AcDbLine
 10
26.1292493714557
 20
37.999991203
 30
0.0
 11
26.1292493714557
 21
47.99999120299999
 31
0.0
  0
LINE
  5
1AE
330
192
100
AcDbEntity
  8
0
  6
Continuous
 62
     7
370
    25
100
AcDbLine
 10
26.1292493714557
 20
47.99999120299999
 30
0.0
 11
21.1292493714557
 21
47.99999120299999
 31
0.0
  0
LINE
  5
1AF
330
192
100
AcDbEntity
  8
0
  6
Continuous
 62
     7
370
    25
100
AcDbLine
 10
21.1292493714557
 20
47.99999120299999
 30
0.0
 11
21.1292493714557
 21
37.999991203
 31
0.0
  0
LINE
  5
1B0
330
192
100
AcDbEntity
  8
0
  6
Continuous
 62
     7
370
    25
100
AcDbLine
 10
21.1292493714557
 20
37.999991203
 30
0.0
 11
26.1292493714557
 21
37.999991203
 31
0.0
  0
LINE
  5
1B1
330
192
100
AcDbEntity
  8
0
  6
Continuous
 62
     7
370
    25
100
AcDbLine
 10
26.1292493714557
 20
141.9999912029999
 30
0.0
 11
21.1292493714557
 21
141.9999912029999
 31
0.0
  0
LINE
  5
1B2
330
192
100
AcDbEntity
  8
0
  6
Continuous
 62
     7
370
    25
100
AcDbLine
 10
21.1292493714557
 20
141.9999912029999
 30
0.0
 11
21.1292493714557
 21
131.999991203
 31
0.0
  0
LINE
  5
1B3
330
192
100
AcDbEntity
  8
0
  6
Continuous
 62
     7
370
    25
100
AcDbLine
 10
21.1292493714557
 20
131.999991203
 30
0.0
 11
26.1292493714557
 21
131.999991203
 31
0.0
  0
LINE
  5
1B4
330
192
100
AcDbEntity
  8
0
  6
Continuous
 62
     7
370
    25
100
AcDbLine
 10
26.1292493714557
 20
131.999991203
 30
0.0
 11
26.1292493714557
 21
141.9999912029999
 31
0.0
  0
LINE
  5
1B5
330
192
100
AcDbEntity
  8
0
  6
Continuous
 62
     7
370
    25
100
AcDbLine
 10
66.12924937145571
 20
141.9999912029999
 30
0.0
 11
61.12924937145571
 21
141.9999912029999
 31
0.0
  0
LINE
  5
1B6
330
192
100
AcDbEntity
  8
0
  6
Continuous
 62
     7
370
    25
100
AcDbLine
 10
61.12924937145571
 20
141.9999912029999
 30
0.0
 11
61.12924937145571
 21
131.999991203
 31
0.0
  0
LINE
  5
1B7
330
192
100
AcDbEntity
  8
0
  6
Continuous
 62
     7
370
    25
100
AcDbLine
 10
61.12924937145571
 20
131.999991203
 30
0.0
 11
66.12924937145571
 21
131.999991203
 31
0.0
  0
LINE
  5
1B8
330
192
100
AcDbEntity
  8
0
  6
Continuous
 62
     7
370
    25
100
AcDbLine
 10
66.12924937145571
 20
131.999991203
 30
0.0
 11
66.12924937145571
 21
141.9999912029999
 31
0.0
  0
LINE
  5
1B9
330
192
100
AcDbEntity
  8
0
  6
Continuous
 62
     7
370
    25
100
AcDbLine
 10
66.12924937145571
 20
37.999991203
 30
0.0
 11
66.12924937145571
 21
47.99999120299999
 31
0.0
  0
LINE
  5
1BA
330
192
100
AcDbEntity
  8
0
  6
Continuous
 62
     7
370
    25
100
AcDbLine
 10
66.12924937145571
 20
47.99999120299999
 30
0.0
 11
61.12924937145571
 21
47.99999120299999
 31
0.0
  0
LINE
  5
1BB
330
192
100
AcDbEntity
  8
0
  6
Continuous
 62
     7
370
    25
100
AcDbLine
 10
61.12924937145571
 20
47.99999120299999
 30
0.0
 11
61.12924937145571
 21
37.999991203
 31
0.0
  0
LINE
  5
1BC
330
192
100
AcDbEntity
  8
0
  6
Continuous
 62
     7
370
    25
100
AcDbLine
 10
61.12924937145571
 20
37.999991203
 30
0.0
 11
66.12924937145571
 21
37.999991203
 31
0.0
  0
LINE
  5
1BD
330
192
100
AcDbEntity
  8
0
  6
Continuous
 62
     7
370
    25
100
AcDbLine
 10
66.12924937145571
 20
7.999991202999999
 30
0.0
 11
66.12924937145571
 21
17.999991203
 31
0.0
  0
LINE
  5
1BE
330
192
100
AcDbEntity
  8
0
  6
Continuous
 62
     7
370
    25
100
AcDbLine
 10
66.12924937145571
 20
17.999991203
 30
0.0
 11
61.12924937145571
 21
17.999991203
 31
0.0
  0
LINE
  5
1BF
330
192
100
AcDbEntity
  8
0
  6
Continuous
 62
     7
370
    25
100
AcDbLine
 10
61.12924937145571
 20
17.999991203
 30
0.0
 11
61.12924937145571
 21
7.999991202999999
 31
0.0
  0
LINE
  5
1C0
330
192
100
AcDbEntity
  8
0
  6
Continuous
 62
     7
370
    25
100
AcDbLine
 10
61.12924937145571
 20
7.999991202999999
 30
0.0
 11
66.12924937145571
 21
7.999991202999999
 31
0.0
  0
LINE
  5
1C1
330
192
100
AcDbEntity
  8
0
  6
Continuous
 62
     7
370
    25
100
AcDbLine
 10
26.1292493714557
 20
111.999991203
 30
0.0
 11
21.1292493714557
 21
111.999991203
 31
0.0
  0
LINE
  5
1C2
330
192
100
AcDbEntity
  8
0
  6
Continuous
 62
     7
370
    25
100
AcDbLine
 10
21.1292493714557
 20
101.999991203
 30
0.0
 11
26.1292493714557
 21
101.999991203
 31
0.0
  0
LINE
  5
1C3
330
192
100
AcDbEntity
  8
0
  6
Continuous
 62
     7
370
    25
100
AcDbLine
 10
26.1292493714557
 20
101.999991203
 30
0.0
 11
26.1292493714557
 21
111.999991203
 31
0.0
  0
LINE
  5
1C4
330
192
100
AcDbEntity
  8
0
  6
Continuous
 62
     7
370
    25
100
AcDbLine
 10
11.52939109015574
 20
10.0999968414
 30
0.0
 11
11.52939109015574
 21
19.8999968414
 31
0.0
  0
LINE
  5
1C5
330
192
100
AcDbEntity
  8
0
  6
Continuous
 62
     7
370
    25
100
AcDbLine
 10
11.52939109015574
 20
19.8999968414
 30
0.0
 11
8.729391090155729
 21
19.8999968414
 31
0.0
  0
LINE
  5
1C6
330
192
100
AcDbEntity
  8
0
  6
Continuous
 62
     7
370
    25
100
AcDbLine
 10
8.729391090155729
 20
19.8999968414
 30
0.0
 11
8.729391090155729
 21
10.0999968414
 31
0.0
  0
LINE
  5
1C7
330
192
100
AcDbEntity
  8
0
  6
Continuous
 62
     7
370
    25
100
AcDbLine
 10
8.729391090155729
 20
10.0999968414
 30
0.0
 11
11.52939109015574
 21
10.0999968414
 31
0.0
  0
LINE
  5
1C8
330
192
100
AcDbEntity
  8
0
  6
Continuous
 62
     7
370
    25
100
AcDbLine
 10
8.729391090155729
 20
94.89999120300002
 30
0.0
 11
8.729391090155729
 21
85.09999120299999
 31
0.0
  0
LINE
  5
1C9
330
192
100
AcDbEntity
  8
0
  6
Continuous
 62
     7
370
    25
100
AcDbLine
 10
8.729391090155729
 20
85.09999120299999
 30
0.0
 11
11.52939109015574
 21
85.09999120299999
 31
0.0
  0
LINE
  5
1CA
330
192
100
AcDbEntity
  8
0
  6
Continuous
 62
     7
370
    25
100
AcDbLine
 10
11.52939109015574
 20
85.09999120299999
 30
0.0
 11
11.52939109015574
 21
94.89999120300002
 31
0.0
  0
LINE
  5
1CB
330
192
100
AcDbEntity
  8
0
  6
Continuous
 62
     7
370
    25
100
AcDbLine
 10
11.52939109015574
 20
94.89999120300002
 30
0.0
 11
8.729391090155729
 21
94.89999120300002
 31
0.0
  0
LINE
  5
1CC
330
192
100
AcDbEntity
  8
0
  6
Continuous
 62
     7
370
    25
100
AcDbLine
 10
11.52939109015574
 20
55.09999120300001
 30
0.0
 11
11.52939109015574
 21
64.89999120300002
 31
0.0
  0
LINE
  5
1CD
330
192
100
AcDbEntity
  8
0
  6
Continuous
 62
     7
370
    25
100
AcDbLine
 10
11.52939109015574
 20
64.89999120300002
 30
0.0
 11
8.729391090155729
 21
64.89999120300002
 31
0.0
  0
LINE
  5
1CE
330
192
100
AcDbEntity
  8
0
  6
Continuous
 62
     7
370
    25
100
AcDbLine
 10
8.729391090155729
 20
64.89999120300002
 30
0.0
 11
8.729391090155729
 21
55.09999120300001
 31
0.0
  0
LINE
  5
1CF
330
192
100
AcDbEntity
  8
0
  6
Continuous
 62
     7
370
    25
100
AcDbLine
 10
8.729391090155729
 20
55.09999120300001
 30
0.0
 11
11.52939109015574
 21
55.09999120300001
 31
0.0
  0
LINE
  5
1D0
330
192
100
AcDbEntity
  8
0
  6
Continuous
 62
     7
370
    25
100
AcDbLine
 10
8.729391090155729
 20
139.8999855647
 30
0.0
 11
8.729391090155729
 21
130.0999855647
 31
0.0
  0
LINE
  5
1D1
330
192
100
AcDbEntity
  8
0
  6
Continuous
 62
     7
370
    25
100
AcDbLine
 10
8.729391090155729
 20
130.0999855647
 30
0.0
 11
11.52939109015574
 21
130.0999855647
 31
0.0
  0
LINE
  5
1D2
330
192
100
AcDbEntity
  8
0
  6
Continuous
 62
     7
370
    25
100
AcDbLine
 10
11.52939109015574
 20
130.0999855647
 30
0.0
 11
11.52939109015574
 21
139.8999855647
 31
0.0
  0
LINE
  5
1D3
330
192
100
AcDbEntity
  8
0
  6
Continuous
 62
     7
370
    25
100
AcDbLine
 10
11.52939109015574
 20
139.8999855647
 30
0.0
 11
8.729391090155729
 21
139.8999855647
 31
0.0
  0
LINE
  5
1D4
330
192
100
AcDbEntity
  8
0
  6
Continuous
 62
     7
370
    25
100
AcDbLine
 10
21.1292493714557
 20
111.999991203
 30
0.0
 11
21.1292493714557
 21
101.999991203
 31
0.0
  0
LINE
  5
1D5
330
192
100
AcDbEntity
  8
0
  6
Continuous
 62
     7
370
    25
100
AcDbLine
 10
71.1292493716557
 20
59.8749340596
 30
0.0
 11
74.12924937145572
 21
59.8749340596
 31
0.0
  0
LINE
  5
1D6
330
192
100
AcDbEntity
  8
0
  6
Continuous
 62
     7
370
    25
100
AcDbLine
 10
51.4292848014557
 20
28.54990548960001
 30
0.0
 11
51.4292848014557
 21
31.4499054894
 31
0.0
  0
LINE
  5
1D7
330
192
100
AcDbEntity
  8
0
  6
Continuous
 62
     7
370
    25
100
AcDbLine
 10
15.92935566085572
 20
28.54993406190001
 30
0.0
 11
15.92935566085572
 21
31.44993406170002
 31
0.0
  0
LINE
  5
1D8
330
192
100
AcDbEntity
  8
0
  6
Continuous
 62
     7
370
    25
100
AcDbLine
 10
51.4292848014557
 20
118.6465842819
 30
0.0
 11
51.4292848014557
 21
121.5465842816
 31
0.0
  0
LINE
  5
1D9
330
192
100
AcDbEntity
  8
0
  6
Continuous
 62
     7
370
    25
100
AcDbLine
 10
15.92935566085572
 20
118.6466128541
 30
0.0
 11
15.92935566085572
 21
121.5466128539
 31
0.0
  0
LINE
  5
1DA
330
192
100
AcDbEntity
  8
0
  6
Continuous
 62
     7
370
    25
100
AcDbLine
 10
61.92173710105572
 20
80.49993405810004
 30
0.0
 11
61.92173710105572
 21
69.49993405890001
 31
0.0
  0
LINE
  5
1DB
330
192
100
AcDbEntity
  8
0
  6
Continuous
 62
     7
370
    25
100
AcDbLine
 10
51.4292848014557
 20
31.4499054894
 30
0.0
 11
61.32928480075571
 21
31.4499054894
 31
0.0
  0
LINE
  5
1DC
330
192
100
AcDbEntity
  8
0
  6
Continuous
 62
     7
370
    25
100
AcDbLine
 10
61.32928480075571
 20
31.4499054894
 30
0.0
 11
61.32928480075571
 21
28.54990548960001
 31
0.0
  0
LINE
  5
1DD
330
192
100
AcDbEntity
  8
0
  6
Continuous
 62
     7
370
    25
100
AcDbLine
 10
61.32928480075571
 20
28.54990548960001
 30
0.0
 11
51.4292848014557
 21
28.54990548960001
 31
0.0
  0
LINE
  5
1DE
330
192
100
AcDbEntity
  8
0
  6
Continuous
 62
     7
370
    25
100
AcDbLine
 10
15.92935566085572
 20
31.44993406170002
 30
0.0
 11
25.82935566015573
 21
31.44993406170002
 31
0.0
  0
LINE
  5
1DF
330
192
100
AcDbEntity
  8
0
  6
Continuous
 62
     7
370
    25
100
AcDbLine
 10
25.82935566015573
 20
31.44993406170002
 30
0.0
 11
25.82935566015573
 21
28.54993406190001
 31
0.0
  0
LINE
  5
1E0
330
192
100
AcDbEntity
  8
0
  6
Continuous
 62
     7
370
    25
100
AcDbLine
 10
25.82935566015573
 20
28.54993406190001
 30
0.0
 11
15.92935566085572
 21
28.54993406190001
 31
0.0
  0
LINE
  5
1E1
330
192
100
AcDbEntity
  8
0
  6
Continuous
 62
     7
370
    25
100
AcDbLine
 10
51.4292848014557
 20
121.5465842816
 30
0.0
 11
61.32928480075571
 21
121.5465842816
 31
0.0
  0
LINE
  5
1E2
330
192
100
AcDbEntity
  8
0
  6
Continuous
 62
     7
370
    25
100
AcDbLine
 10
61.32928480075571
 20
121.5465842816
 30
0.0
 11
61.32928480075571
 21
118.6465842819
 31
0.0
  0
LINE
  5
1E3
330
192
100
AcDbEntity
  8
0
  6
Continuous
 62
     7
370
    25
100
AcDbLine
 10
61.32928480075571
 20
118.6465842819
 30
0.0
 11
51.4292848014557
 21
118.6465842819
 31
0.0
  0
LINE
  5
1E4
330
192
100
AcDbEntity
  8
0
  6
Continuous
 62
     7
370
    25
100
AcDbLine
 10
15.92935566085572
 20
121.5466128539
 30
0.0
 11
25.82935566015573
 21
121.5466128539
 31
0.0
  0
LINE
  5
1E5
330
192
100
AcDbEntity
  8
0
  6
Continuous
 62
     7
370
    25
100
AcDbLine
 10
25.82935566015573
 20
121.5466128539
 30
0.0
 11
25.82935566015573
 21
118.6466128541
 31
0.0
  0
LINE
  5
1E6
330
192
100
AcDbEntity
  8
0
  6
Continuous
 62
     7
370
    25
100
AcDbLine
 10
25.82935566015573
 20
118.6466128541
 30
0.0
 11
15.92935566085572
 21
118.6466128541
 31
0.0
  0
LINE
  5
1E7
330
192
100
AcDbEntity
  8
0
  6
Continuous
 62
     7
370
    25
100
AcDbLine
 10
61.92173710105572
 20
69.49993405890001
 30
0.0
 11
42.9217371014557
 21
69.49993405890001
 31
0.0
  0
LINE
  5
1E8
330
192
100
AcDbEntity
  8
0
  6
Continuous
 62
     7
370
    25
100
AcDbLine
 10
42.9217371014557
 20
80.49993405810004
 30
0.0
 11
61.92173710105572
 21
80.49993405810004
 31
0.0
  0
LINE
  5
1E9
330
192
100
AcDbEntity
  8
0
  6
Continuous
 62
     7
370
    25
100
AcDbLine
 10
71.1292493716557
 20
59.8749340596
 30
0.0
 11
71.1292493716557
 21
70.12493405890001
 31
0.0
  0
LINE
  5
1EA
330
192
100
AcDbEntity
  8
0
  6
Continuous
 62
     7
370
    25
100
AcDbLine
 10
71.1292493716557
 20
70.12493405890001
 30
0.0
 11
74.12924937145572
 21
70.12493405890001
 31
0.0
  0
LINE
  5
1EB
330
192
100
AcDbEntity
  8
0
  6
Continuous
 62
     7
370
    25
100
AcDbLine
 10
74.12924937145572
 20
79.87493405819998
 30
0.0
 11
74.12924937145572
 21
70.12493405890001
 31
0.0
  0
LINE
  5
1EC
330
192
100
AcDbEntity
  8
0
  6
Continuous
 62
     7
370
    25
100
AcDbLine
 10
71.1292493716557
 20
79.87493405819998
 30
0.0
 11
74.12924937145572
 21
79.87493405819998
 31
0.0
  0
LINE
  5
1ED
330
192
100
AcDbEntity
  8
0
  6
Continuous
 62
     7
370
    25
100
AcDbLine
 10
71.1292493716557
 20
79.87493405819998
 30
0.0
 11
71.1292493716557
 21
90.1249340574
 31
0.0
  0
LINE
  5
1EE
330
192
100
AcDbEntity
  8
0
  6
Continuous
 62
     7
370
    25
100
AcDbLine
 10
71.1292493716557
 20
90.1249340574
 30
0.0
 11
74.12924937145572
 21
90.1249340574
 31
0.0
  0
LINE
  5
1EF
330
192
100
AcDbEntity
  8
0
  6
Continuous
 62
     7
370
    25
100
AcDbLine
 10
74.12924937145572
 20
90.1249340574
 30
0.0
 11
74.12924937145572
 21
94.75535070900006
 31
0.0
  0
LINE
  5
1F0
330
192
100
AcDbEntity
  8
0
  6
Continuous
 62
     7
370
    25
100
AcDbLine
 10
74.12924937145572
 20
115.1195174037
 30
0.0
 11
74.12924937145572
 21
119.9999340552
 31
0.0
  0
LINE
  5
1F1
330
192
100
AcDbEntity
  8
0
  6
Continuous
 62
     7
370
    25
100
AcDbLine
 10
71.1292493716557
 20
119.9999340552
 30
0.0
 11
74.12924937145572
 21
119.9999340552
 31
0.0
  0
LINE
  5
1F2
330
192
100
AcDbEntity
  8
0
  6
Continuous
 62
     7
370
    25
100
AcDbLine
 10
71.1292493716557
 20
129.9999340545
 30
0.0
 11
71.1292493716557
 21
119.9999340552
 31
0.0
  0
LINE
  5
1F3
330
192
100
AcDbEntity
  8
0
  6
Continuous
 62
     7
370
    25
100
AcDbLine
 10
74.12924937145572
 20
129.9999340545
 30
0.0
 11
71.1292493716557
 21
129.9999340545
 31
0.0
  0
LINE
  5
1F4
330
192
100
AcDbEntity
  8
0
  6
Continuous
 62
     7
370
    25
100
AcDbLine
 10
74.12924937145572
 20
139.9999340538
 30
0.0
 11
74.12924937145572
 21
129.9999340545
 31
0.0
  0
LINE
  5
1F5
330
192
100
AcDbEntity
  8
0
  6
Continuous
 62
     7
370
    25
100
AcDbLine
 10
71.1292493716557
 20
139.9999340538
 30
0.0
 11
74.12924937145572
 21
139.9999340538
 31
0.0
  0
LINE
  5
1F6
330
192
100
AcDbEntity
  8
0
  6
Continuous
 62
     7
370
    25
100
AcDbLine
 10
71.1292493716557
 20
146.9999340533
 30
0.0
 11
71.1292493716557
 21
139.9999340538
 31
0.0
  0
LINE
  5
1F7
330
192
100
AcDbEntity
  8
0
  6
Continuous
 62
     7
370
    25
100
AcDbLine
 10
61.2542493723557
 20
146.9999340533
 30
0.0
 11
71.1292493716557
 21
146.9999340533
 31
0.0
  0
LINE
  5
1F8
330
192
100
AcDbEntity
  8
0
  6
Continuous
 62
     7
370
    25
100
AcDbLine
 10
61.2542493723557
 20
149.999934053
 30
0.0
 11
61.2542493723557
 21
146.9999340533
 31
0.0
  0
LINE
  5
1F9
330
192
100
AcDbEntity
  8
0
  6
Continuous
 62
     7
370
    25
100
AcDbLine
 10
61.2542493723557
 20
149.999934053
 30
0.0
 11
51.00424937315572
 21
149.999934053
 31
0.0
  0
LINE
  5
1FA
330
192
100
AcDbEntity
  8
0
  6
Continuous
 62
     7
370
    25
100
AcDbLine
 10
51.00424937315572
 20
149.999934053
 30
0.0
 11
51.00424937315572
 21
146.9999516362
 31
0.0
  0
LINE
  5
1FB
330
192
100
AcDbEntity
  8
0
  6
Continuous
 62
     7
370
    25
100
AcDbLine
 10
51.00424937315572
 20
146.9999516362
 30
0.0
 11
41.25432023065568
 21
146.9999516362
 31
0.0
  0
LINE
  5
1FC
330
192
100
AcDbEntity
  8
0
  6
Continuous
 62
     7
370
    25
100
AcDbLine
 10
41.25432023065568
 20
149.9999736146
 30
0.0
 11
41.25432023065568
 21
146.9999516362
 31
0.0
  0
LINE
  5
1FD
330
192
100
AcDbEntity
  8
0
  6
Continuous
 62
     7
370
    25
100
AcDbLine
 10
41.25432023065568
 20
149.9999736146
 30
0.0
 11
36.0043202309557
 21
149.9999736146
 31
0.0
  0
LINE
  5
1FE
330
192
100
AcDbEntity
  8
0
  6
Continuous
 62
     7
370
    25
100
AcDbLine
 10
36.0043202309557
 20
146.9999736148
 30
0.0
 11
36.0043202309557
 21
149.9999736146
 31
0.0
  0
LINE
  5
1FF
330
192
100
AcDbEntity
  8
0
  6
Continuous
 62
     7
370
    25
100
AcDbLine
 10
26.25439108845572
 20
146.9999736148
 30
0.0
 11
36.0043202309557
 21
146.9999736148
 31
0.0
  0
LINE
  5
200
330
192
100
AcDbEntity
  8
0
  6
Continuous
 62
     7
370
    25
100
AcDbLine
 10
26.25439108845572
 20
146.9999736148
 30
0.0
 11
26.25439108845572
 21
149.9999824061
 31
0.0
  0
LINE
  5
201
330
192
100
AcDbEntity
  8
0
  6
Continuous
 62
     7
370
    25
100
AcDbLine
 10
26.25439108845572
 20
149.9999824061
 30
0.0
 11
16.00439108925573
 21
149.9999824061
 31
0.0
  0
LINE
  5
202
330
192
100
AcDbEntity
  8
0
  6
Continuous
 62
     7
370
    25
100
AcDbLine
 10
16.00439108925573
 20
149.9999824061
 30
0.0
 11
16.00439108925573
 21
146.9999911978
 31
0.0
  0
LINE
  5
203
330
192
100
AcDbEntity
  8
0
  6
Continuous
 62
     7
370
    25
100
AcDbLine
 10
16.00439108925573
 20
146.9999911978
 30
0.0
 11
6.129391089955731
 21
146.9999911978
 31
0.0
  0
LINE
  5
204
330
192
100
AcDbEntity
  8
0
  6
Continuous
 62
     7
370
    25
100
AcDbLine
 10
6.129391089955731
 20
146.9999911978
 30
0.0
 11
6.129391089955731
 21
140.1249911983
 31
0.0
  0
LINE
  5
205
330
192
100
AcDbEntity
  8
0
  6
Continuous
 62
     7
370
    25
100
AcDbLine
 10
3.129391090155705
 20
140.1249911983
 30
0.0
 11
6.129391089955731
 21
140.1249911983
 31
0.0
  0
LINE
  5
206
330
192
100
AcDbEntity
  8
0
  6
Continuous
 62
     7
370
    25
100
AcDbLine
 10
3.129391090155705
 20
129.874991199
 30
0.0
 11
3.129391090155705
 21
140.1249911983
 31
0.0
  0
LINE
  5
207
330
192
100
AcDbEntity
  8
0
  6
Continuous
 62
     7
370
    25
100
AcDbLine
 10
3.129391090155705
 20
129.874991199
 30
0.0
 11
6.129391089955731
 21
129.874991199
 31
0.0
  0
LINE
  5
208
330
192
100
AcDbEntity
  8
0
  6
Continuous
 62
     7
370
    25
100
AcDbLine
 10
6.129391089955731
 20
129.874991199
 30
0.0
 11
6.129391089955731
 21
120.1249911998
 31
0.0
  0
LINE
  5
209
330
192
100
AcDbEntity
  8
0
  6
Continuous
 62
     7
370
    25
100
AcDbLine
 10
3.129391090155705
 20
120.1249911998
 30
0.0
 11
6.129391089955731
 21
120.1249911998
 31
0.0
  0
LINE
  5
20A
330
192
100
AcDbEntity
  8
0
  6
Continuous
 62
     7
370
    25
100
AcDbLine
 10
3.129391090155705
 20
115.2445745482
 30
0.0
 11
3.129391090155705
 21
120.1249911998
 31
0.0
  0
LINE
  5
20B
330
192
100
AcDbEntity
  8
0
  6
Continuous
 62
     7
370
    25
100
AcDbLine
 10
3.129391090155705
 20
89.999991202
 30
0.0
 11
3.129391090155705
 21
94.88040785349999
 31
0.0
  0
LINE
  5
20C
330
192
100
AcDbEntity
  8
0
  6
Continuous
 62
     7
370
    25
100
AcDbLine
 10
3.129391090155705
 20
89.999991202
 30
0.0
 11
6.129391089955731
 21
89.999991202
 31
0.0
  0
LINE
  5
20D
330
192
100
AcDbEntity
  8
0
  6
Continuous
 62
     7
370
    25
100
AcDbLine
 10
6.129391089955731
 20
89.999991202
 30
0.0
 11
6.129391089955731
 21
79.99999120269999
 31
0.0
  0
LINE
  5
20E
330
192
100
AcDbEntity
  8
0
  6
Continuous
 62
     7
370
    25
100
AcDbLine
 10
6.129391089955731
 20
79.99999120269999
 30
0.0
 11
3.129391090155705
 21
79.99999120269999
 31
0.0
  0
LINE
  5
20F
330
192
100
AcDbEntity
  8
0
  6
Continuous
 62
     7
370
    25
100
AcDbLine
 10
3.129391090155705
 20
79.99999120269999
 30
0.0
 11
3.129391090155705
 21
69.99999120339999
 31
0.0
  0
LINE
  5
210
330
192
100
AcDbEntity
  8
0
  6
Continuous
 62
     7
370
    25
100
AcDbLine
 10
3.129391090155705
 20
69.99999120339999
 30
0.0
 11
6.129391089955731
 21
69.99999120339999
 31
0.0
  0
LINE
  5
211
330
192
100
AcDbEntity
  8
0
  6
Continuous
 62
     7
370
    25
100
AcDbLine
 10
6.129391089955731
 20
69.99999120339999
 30
0.0
 11
6.129391089955731
 21
59.99999120409999
 31
0.0
  0
LINE
  5
212
330
192
100
AcDbEntity
  8
0
  6
Continuous
 62
     7
370
    25
100
AcDbLine
 10
6.129391089955731
 20
59.99999120409999
 30
0.0
 11
3.129391090155705
 21
59.99999120409999
 31
0.0
  0
LINE
  5
213
330
192
100
AcDbEntity
  8
0
  6
Continuous
 62
     7
370
    25
100
AcDbLine
 10
3.129391090155705
 20
55.11957455259999
 30
0.0
 11
3.129391090155705
 21
59.99999120409999
 31
0.0
  0
LINE
  5
214
330
192
100
AcDbEntity
  8
0
  6
Continuous
 62
     7
370
    25
100
AcDbLine
 10
3.129391090155705
 20
29.8749912063
 30
0.0
 11
3.129391090155705
 21
34.75540785790001
 31
0.0
  0
LINE
  5
215
330
192
100
AcDbEntity
  8
0
  6
Continuous
 62
     7
370
    25
100
AcDbLine
 10
3.129391090155705
 20
29.8749912063
 30
0.0
 11
6.129391089955731
 21
29.8749912063
 31
0.0
  0
LINE
  5
216
330
192
100
AcDbEntity
  8
0
  6
Continuous
 62
     7
370
    25
100
AcDbLine
 10
6.129391089955731
 20
29.8749912063
 30
0.0
 11
6.129391089955731
 21
20.124991207
 31
0.0
  0
LINE
  5
217
330
192
100
AcDbEntity
  8
0
  6
Continuous
 62
     7
370
    25
100
AcDbLine
 10
3.129391090155705
 20
20.124991207
 30
0.0
 11
6.129391089955731
 21
20.124991207
 31
0.0
  0
LINE
  5
218
330
192
100
AcDbEntity
  8
0
  6
Continuous
 62
     7
370
    25
100
AcDbLine
 10
3.129391090155705
 20
9.874991207799999
 30
0.0
 11
3.129391090155705
 21
20.124991207
 31
0.0
  0
LINE
  5
219
330
192
100
AcDbEntity
  8
0
  6
Continuous
 62
     7
370
    25
100
AcDbLine
 10
3.129391090155705
 20
9.874991207799999
 30
0.0
 11
6.129391089955731
 21
9.874991207799999
 31
0.0
  0
LINE
  5
21A
330
192
100
AcDbEntity
  8
0
  6
Continuous
 62
     7
370
    25
100
AcDbLine
 10
6.129391089955731
 20
2.999991208300002
 30
0.0
 11
6.129391089955731
 21
9.874991207799999
 31
0.0
  0
LINE
  5
21B
330
192
100
AcDbEntity
  8
0
  6
Continuous
 62
     7
370
    25
100
AcDbLine
 10
16.00439108925573
 20
2.999991208300002
 30
0.0
 11
6.129391089955731
 21
2.999991208300002
 31
0.0
  0
LINE
  5
21C
330
192
100
AcDbEntity
  8
0
  6
Continuous
 62
     7
370
    25
100
AcDbLine
 10
16.00439108925573
 20
0.0
 30
0.0
 11
16.00439108925573
 21
2.999991208300002
 31
0.0
  0
LINE
  5
21D
330
192
100
AcDbEntity
  8
0
  6
Continuous
 62
     7
370
    25
100
AcDbLine
 10
26.25439108845572
 20
0.0
 30
0.0
 11
16.00439108925573
 21
0.0
 31
0.0
  0
LINE
  5
21E
330
192
100
AcDbEntity
  8
0
  6
Continuous
 62
     7
370
    25
100
AcDbLine
 10
26.25439108845572
 20
3.000008791300003
 30
0.0
 11
26.25439108845572
 21
0.0
 31
0.0
  0
LINE
  5
21F
330
192
100
AcDbEntity
  8
0
  6
Continuous
 62
     7
370
    25
100
AcDbLine
 10
26.25439108845572
 20
3.000008791300003
 30
0.0
 11
36.0043202309557
 21
3.000008791300003
 31
0.0
  0
LINE
  5
220
330
192
100
AcDbEntity
  8
0
  6
Continuous
 62
     7
370
    25
100
AcDbLine
 10
36.0043202309557
 20
3.000008791300003
 30
0.0
 11
36.0043202309557
 21
0.0000087915000009
 31
0.0
  0
LINE
  5
221
330
192
100
AcDbEntity
  8
0
  6
Continuous
 62
     7
370
    25
100
AcDbLine
 10
41.25432023065568
 20
0.0000087915000009
 30
0.0
 11
36.0043202309557
 21
0.0000087915000009
 31
0.0
  0
LINE
  5
222
330
192
100
AcDbEntity
  8
0
  6
Continuous
 62
     7
370
    25
100
AcDbLine
 10
41.25432023065568
 20
0.0000087915000009
 30
0.0
 11
41.25432023065568
 21
3.000030769899998
 31
0.0
  0
LINE
  5
223
330
192
100
AcDbEntity
  8
0
  6
Continuous
 62
     7
370
    25
100
AcDbLine
 10
51.00424937315572
 20
3.000030769899998
 30
0.0
 11
41.25432023065568
 21
3.000030769899998
 31
0.0
  0
LINE
  5
224
330
192
100
AcDbEntity
  8
0
  6
Continuous
 62
     7
370
    25
100
AcDbLine
 10
51.00424937315572
 20
0.0000483530000039
 30
0.0
 11
51.00424937315572
 21
3.000030769899998
 31
0.0
  0
LINE
  5
225
330
192
100
AcDbEntity
  8
0
  6
Continuous
 62
     7
370
    25
100
AcDbLine
 10
61.2542493723557
 20
0.0000483530000039
 30
0.0
 11
51.00424937315572
 21
0.0000483530000039
 31
0.0
  0
LINE
  5
226
330
192
100
AcDbEntity
  8
0
  6
Continuous
 62
     7
370
    25
100
AcDbLine
 10
61.2542493723557
 20
0.0000483530000039
 30
0.0
 11
61.2542493723557
 21
3.000048352799998
 31
0.0
  0
LINE
  5
227
330
192
100
AcDbEntity
  8
0
  6
Continuous
 62
     7
370
    25
100
AcDbLine
 10
61.2542493723557
 20
3.000048352799998
 30
0.0
 11
71.1292493716557
 21
3.000048352799998
 31
0.0
  0
LINE
  5
228
330
192
100
AcDbEntity
  8
0
  6
Continuous
 62
     7
370
    25
100
AcDbLine
 10
71.1292493716557
 20
3.000048352799998
 30
0.0
 11
71.1292493716557
 21
9.999934063200001
 31
0.0
  0
LINE
  5
229
330
192
100
AcDbEntity
  8
0
  6
Continuous
 62
     7
370
    25
100
AcDbLine
 10
74.12924937145572
 20
9.999934063200001
 30
0.0
 11
71.1292493716557
 21
9.999934063200001
 31
0.0
  0
LINE
  5
22A
330
192
100
AcDbEntity
  8
0
  6
Continuous
 62
     7
370
    25
100
AcDbLine
 10
74.12924937145572
 20
19.9999340625
 30
0.0
 11
74.12924937145572
 21
9.999934063200001
 31
0.0
  0
LINE
  5
22B
330
192
100
AcDbEntity
  8
0
  6
Continuous
 62
     7
370
    25
100
AcDbLine
 10
71.1292493716557
 20
19.9999340625
 30
0.0
 11
74.12924937145572
 21
19.9999340625
 31
0.0
  0
LINE
  5
22C
330
192
100
AcDbEntity
  8
0
  6
Continuous
 62
     7
370
    25
100
AcDbLine
 10
71.1292493716557
 20
29.9999340618
 30
0.0
 11
71.1292493716557
 21
19.9999340625
 31
0.0
  0
LINE
  5
22D
330
192
100
AcDbEntity
  8
0
  6
Continuous
 62
     7
370
    25
100
AcDbLine
 10
74.12924937145572
 20
29.9999340618
 30
0.0
 11
71.1292493716557
 21
29.9999340618
 31
0.0
  0
LINE
  5
22E
330
192
100
AcDbEntity
  8
0
  6
Continuous
 62
     7
370
    25
100
AcDbLine
 10
74.12924937145572
 20
29.9999340618
 30
0.0
 11
74.12924937145572
 21
34.63035071330001
 31
0.0
  0
LINE
  5
22F
330
192
100
AcDbEntity
  8
0
  6
Continuous
 62
     7
370
    25
100
AcDbLine
 10
74.12924937145572
 20
54.99451740810002
 30
0.0
 11
74.12924937145572
 21
59.8749340596
 31
0.0
  0
ARC
  5
230
330
192
100
AcDbEntity
  8
0
  6
Continuous
 62
     7
370
    25
100
AcDbCircle
 10
59.12924937255571
 20
104.9374340563
 30
0.0
 40
18.1293910890557
100
AcDbArc
 50
325.8311212980994
 51
34.16887870190065
  0
ARC
  5
231
330
192
100
AcDbEntity
  8
0
  6
Continuous
 62
     7
370
    25
100
AcDbCircle
 10
18.12939108905573
 20
105.0624912009
 30
0.0
 40
18.12939108905569
100
AcDbArc
 50
145.8311212980993
 51
214.1688787019006
  0
ARC
  5
232
330
192
100
AcDbEntity
  8
0
  6
Continuous
 62
     7
370
    25
100
AcDbCircle
 10
18.12939108905573
 20
44.93749120519999
 30
0.0
 40
18.12939108905571
100
AcDbArc
 50
145.8311212980993
 51
214.1688787019006
  0
ARC
  5
233
330
192
100
AcDbEntity
  8
0
  6
Continuous
 62
     7
370
    25
100
AcDbCircle
 10
59.12924937255571
 20
44.81243406069999
 30
0.0
 40
18.12939108905572
100
AcDbArc
 50
325.8311212980994
 51
34.16887870190065
  0
ENDBLK
  5
235
330
192
100
AcDbEntity
  8
0
100
AcDbBlockEnd
  0
ENDSEC
  0
SECTION
  2
ENTITIES
  0
LINE
  5
6CB
330
1F
100
AcDbEntity
  8
0
  6
SLD-Continua
 62
     7
370
    25
100
AcDbLine
 10
-38.7661242602039
 20
37.62847635353728
 30
0.0
 11
-38.7661242602039
 21
44.12848952773728
 31
0.0
  0
LINE
  5
6D6
330
1F
100
AcDbEntity
  8
0
  6
SLD-Continua
 62
     1
370
    25
100
AcDbLine
 10
-52.1961231610039
 20
42.77959945283727
 30
0.0
 11
-52.1961231610039
 21
37.37959945213728
 31
0.0
  0
LINE
  5
6D7
330
1F
100
AcDbEntity
  8
0
  6
SLD-Continua
 62
     1
370
    25
100
AcDbLine
 10
-52.1961231610039
 20
37.37959945213728
 30
0.0
 11
-60.4961231620039
 21
37.37959945213728
 31
0.0
  0
LINE
  5
6D8
330
1F
100
AcDbEntity
  8
0
  6
SLD-Continua
 62
     1
370
    25
100
AcDbLine
 10
-60.4961231620039
 20
37.37959945213728
 30
0.0
 11
-60.4961231620039
 21
42.77959945283727
 31
0.0
  0
LINE
  5
6D9
330
1F
100
AcDbEntity
  8
0
  6
SLD-Continua
 62
     1
370
    25
100
AcDbLine
 10
-60.4961231620039
 20
42.77959945283727
 30
0.0
 11
-52.1961231610039
 21
42.77959945283727
 31
0.0
  0
LINE
  5
6DA
330
1F
100
AcDbEntity
  8
0
  6
SLD-Continua
 62
     7
370
    25
100
AcDbLine
 10
-57.64612316160389
 20
38.77959945233727
 30
0.0
 11
-58.74612316180389
 21
38.77959945233727
 31
0.0
  0
LINE
  5
6DB
330
1F
100
AcDbEntity
  8
0
  6
SLD-Continua
 62
     7
370
    25
100
AcDbLine
 10
-57.64612316160389
 20
38.77959945233727
 30
0.0
 11
-57.64612316160389
 21
39.37959945243728
 31
0.0
  0
LINE
  5
6DC
330
1F
100
AcDbEntity
  8
0
  6
SLD-Continua
 62
     7
370
    25
100
AcDbLine
 10
-55.74612316140389
 20
38.77959945233727
 30
0.0
 11
-55.74612316140389
 21
39.37959945243728
 31
0.0
  0
CIRCLE
  5
6DD
330
1F
100
AcDbEntity
  8
0
  6
SLD-Continua
 62
     7
370
    25
100
AcDbCircle
 10
-53.1961231611039
 20
38.07959945223728
 30
0.0
 40
0.1000000000116046
  0
CIRCLE
  5
6DE
330
1F
100
AcDbEntity
  8
0
  6
SLD-Continua
 62
     7
370
    25
100
AcDbCircle
 10
-53.1961231611039
 20
42.07959945273727
 30
0.0
 40
0.1000000000116046
  0
CIRCLE
  5
6DF
330
1F
100
AcDbEntity
  8
0
  6
SLD-Continua
 62
     7
370
    25
100
AcDbCircle
 10
-60.19612316190388
 20
38.07959945223728
 30
0.0
 40
0.1000000000116046
  0
CIRCLE
  5
6E0
330
1F
100
AcDbEntity
  8
0
  6
SLD-Continua
 62
     7
370
    25
100
AcDbCircle
 10
-60.19612316190388
 20
42.07959945273727
 30
0.0
 40
0.1000000000115975
  0
LINE
  5
6E1
330
1F
100
AcDbEntity
  8
0
  6
SLD-Continua
 62
     7
370
    25
100
AcDbLine
 10
-52.3661231610039
 20
41.82848579493728
 30
0.0
 11
-52.3661231610039
 21
42.02848579493728
 31
0.0
  0
LINE
  5
6E2
330
1F
100
AcDbEntity
  8
0
  6
SLD-Continua
 62
     7
370
    25
100
AcDbLine
 10
-54.64612316130389
 20
41.37959945263728
 30
0.0
 11
-55.74612316140389
 21
41.37959945263728
 31
0.0
  0
LINE
  5
6E3
330
1F
100
AcDbEntity
  8
0
  6
SLD-Continua
 62
     7
370
    25
100
AcDbLine
 10
-54.64612316130389
 20
40.77959945253727
 30
0.0
 11
-55.74612316140389
 21
40.77959945253727
 31
0.0
  0
LINE
  5
6E4
330
1F
100
AcDbEntity
  8
0
  6
SLD-Continua
 62
     7
370
    25
100
AcDbLine
 10
-58.74612316180389
 20
40.77959945253727
 30
0.0
 11
-58.74612316180389
 21
41.37959945263728
 31
0.0
  0
LINE
  5
6E5
330
1F
100
AcDbEntity
  8
0
  6
SLD-Continua
 62
     7
370
    25
100
AcDbLine
 10
-52.4161231610039
 20
42.07848579493727
 30
0.0
 11
-52.66612316100389
 21
42.07848579493727
 31
0.0
  0
LINE
  5
6E6
330
1F
100
AcDbEntity
  8
0
  6
SLD-Continua
 62
     7
370
    25
100
AcDbLine
 10
-52.66612316100389
 20
42.07848579493727
 30
0.0
 11
-52.66612316100389
 21
41.77848579493727
 31
0.0
  0
ARC
  5
6E7
330
1F
100
AcDbEntity
  8
0
  6
SLD-Continua
 62
     7
370
    25
100
AcDbCircle
 10
-52.4161231610039
 20
42.02848579493728
 30
0.0
 40
0.0500000000058023
100
AcDbArc
 50
0.0
 51
90.0
  0
LINE
  5
6E8
330
1F
100
AcDbEntity
  8
0
  6
SLD-Continua
 62
     7
370
    25
100
AcDbLine
 10
-54.64612316130389
 20
40.77959945253727
 30
0.0
 11
-54.64612316130389
 21
41.37959945263728
 31
0.0
  0
LINE
  5
6E9
330
1F
100
AcDbEntity
  8
0
  6
SLD-Continua
 62
     7
370
    25
100
AcDbLine
 10
-54.64612316130389
 20
39.37959945243728
 30
0.0
 11
-55.74612316140389
 21
39.37959945243728
 31
0.0
  0
LINE
  5
6EA
330
1F
100
AcDbEntity
  8
0
  6
SLD-Continua
 62
     7
370
    25
100
AcDbLine
 10
-57.64612316160389
 20
40.77959945253727
 30
0.0
 11
-58.74612316180389
 21
40.77959945253727
 31
0.0
  0
LINE
  5
6EB
330
1F
100
AcDbEntity
  8
0
  6
SLD-Continua
 62
     7
370
    25
100
AcDbLine
 10
-54.64612316130389
 20
38.77959945233727
 30
0.0
 11
-55.74612316140389
 21
38.77959945233727
 31
0.0
  0
LINE
  5
6EC
330
1F
100
AcDbEntity
  8
0
  6
SLD-Continua
 62
     7
370
    25
100
AcDbLine
 10
-52.66612316100389
 20
41.77848579493727
 30
0.0
 11
-52.4161231610039
 21
41.77848579493727
 31
0.0
  0
LINE
  5
6ED
330
1F
100
AcDbEntity
  8
0
  6
SLD-Continua
 62
     7
370
    25
100
AcDbLine
 10
-58.74612316180389
 20
38.77959945233727
 30
0.0
 11
-58.74612316180389
 21
39.37959945243728
 31
0.0
  0
LINE
  5
6EE
330
1F
100
AcDbEntity
  8
0
  6
SLD-Continua
 62
     7
370
    25
100
AcDbLine
 10
-54.64612316130389
 20
38.77959945233727
 30
0.0
 11
-54.64612316130389
 21
39.37959945243728
 31
0.0
  0
LINE
  5
6EF
330
1F
100
AcDbEntity
  8
0
  6
SLD-Continua
 62
     7
370
    25
100
AcDbLine
 10
-55.74612316140389
 20
40.77959945253727
 30
0.0
 11
-55.74612316140389
 21
41.37959945263728
 31
0.0
  0
LINE
  5
6F0
330
1F
100
AcDbEntity
  8
0
  6
SLD-Continua
 62
     7
370
    25
100
AcDbLine
 10
-57.64612316160389
 20
40.77959945253727
 30
0.0
 11
-57.64612316160389
 21
41.37959945263728
 31
0.0
  0
ARC
  5
6F1
330
1F
100
AcDbEntity
  8
0
  6
SLD-Continua
 62
     7
370
    25
100
AcDbCircle
 10
-52.4161231610039
 20
41.82848579493728
 30
0.0
 40
0.0500000000057952
100
AcDbArc
 50
270.0
 51
0.0
  0
LINE
  5
6F2
330
1F
100
AcDbEntity
  8
0
  6
SLD-Continua
 62
     7
370
    25
100
AcDbLine
 10
-57.64612316160389
 20
39.37959945243728
 30
0.0
 11
-58.74612316180389
 21
39.37959945243728
 31
0.0
  0
LINE
  5
6F3
330
1F
100
AcDbEntity
  8
0
  6
SLD-Continua
 62
     7
370
    25
100
AcDbLine
 10
-57.64612316160389
 20
41.37959945263728
 30
0.0
 11
-58.74612316180389
 21
41.37959945263728
 31
0.0
  0
ARC
  5
6F4
330
1F
100
AcDbEntity
  8
0
  6
SLD-Continua
 62
     1
370
    25
100
AcDbCircle
 10
-53.54119006770389
 20
30.64719945203728
 30
0.0
 40
0.1016000000000048
100
AcDbArc
 50
270.0000000000998
 51
0.0
  0
LINE
  5
6F5
330
1F
100
AcDbEntity
  8
0
  6
SLD-Continua
 62
     1
370
    25
100
AcDbLine
 10
-53.54119006770389
 20
30.54559945203728
 30
0.0
 11
-59.91659006770388
 21
30.54559945203728
 31
0.0
  0
LINE
  5
6F6
330
1F
100
AcDbEntity
  8
0
  6
SLD-Continua
 62
     1
370
    25
100
AcDbLine
 10
-60.04359006770389
 20
30.67259945203729
 30
0.0
 11
-60.04359006770389
 21
31.81559945203729
 31
0.0
  0
LINE
  5
6F7
330
1F
100
AcDbEntity
  8
0
  6
SLD-Continua
 62
     1
370
    25
100
AcDbLine
 10
-60.04359006770389
 20
31.81559945203729
 30
0.0
 11
-60.29759006770389
 21
32.06959945203728
 31
0.0
  0
LINE
  5
6F8
330
1F
100
AcDbEntity
  8
0
  6
SLD-Continua
 62
     1
370
    25
100
AcDbLine
 10
-60.29759006770389
 20
32.06959945203728
 30
0.0
 11
-60.29759006770389
 21
35.37159945203728
 31
0.0
  0
LINE
  5
6F9
330
1F
100
AcDbEntity
  8
0
  6
SLD-Continua
 62
     1
370
    25
100
AcDbLine
 10
-60.29759006770389
 20
35.37159945203728
 30
0.0
 11
-60.04359006770389
 21
35.62559945203729
 31
0.0
  0
LINE
  5
6FA
330
1F
100
AcDbEntity
  8
0
  6
SLD-Continua
 62
     1
370
    25
100
AcDbLine
 10
-60.04359006770389
 20
35.62559945203729
 30
0.0
 11
-60.04359006770389
 21
35.77799945203729
 31
0.0
  0
ARC
  5
6FB
330
1F
100
AcDbEntity
  8
0
  6
SLD-Continua
 62
     1
370
    25
100
AcDbCircle
 10
-59.9419900677039
 20
35.77799945203729
 30
0.0
 40
0.1015999999999977
100
AcDbArc
 50
90.0
 51
180.0000000001001
  0
LINE
  5
6FC
330
1F
100
AcDbEntity
  8
0
  6
SLD-Continua
 62
     1
370
    25
100
AcDbLine
 10
-59.9419900677039
 20
35.87959945203728
 30
0.0
 11
-53.54119006770389
 21
35.87959945203728
 31
0.0
  0
ARC
  5
6FD
330
1F
100
AcDbEntity
  8
0
  6
SLD-Continua
 62
     1
370
    25
100
AcDbCircle
 10
-53.54119006770389
 20
35.77799945203729
 30
0.0
 40
0.1015999999999977
100
AcDbArc
 50
0.0
 51
90.0
  0
LINE
  5
6FE
330
1F
100
AcDbEntity
  8
0
  6
SLD-Continua
 62
     1
370
    25
100
AcDbLine
 10
-53.4395900677039
 20
35.77799945203729
 30
0.0
 11
-53.4395900677039
 21
30.64719945203728
 31
0.0
  0
CIRCLE
  5
6FF
330
1F
100
AcDbEntity
  8
0
  6
SLD-Continua
 62
     7
370
    25
100
AcDbCircle
 10
-54.83659006770388
 20
35.62559945203729
 30
0.0
 40
0.1000000000000014
  0
CIRCLE
  5
700
330
1F
100
AcDbEntity
  8
0
  6
SLD-Continua
 62
     7
370
    25
100
AcDbCircle
 10
-54.9635900677039
 20
30.79959945203728
 30
0.0
 40
0.0999999999999943
  0
CIRCLE
  5
701
330
1F
100
AcDbEntity
  8
0
  6
SLD-Continua
 62
     7
370
    25
100
AcDbCircle
 10
-60.04359006770389
 20
32.32359945203728
 30
0.0
 40
0.1000000000000014
  0
CIRCLE
  5
702
330
1F
100
AcDbEntity
  8
0
  6
SLD-Continua
 62
     7
370
    25
100
AcDbCircle
 10
-60.04359006770389
 20
35.11759945203728
 30
0.0
 40
0.0999999999999943
  0
LINE
  5
703
330
1F
100
AcDbEntity
  8
0
  6
SLD-Continua
 62
     7
370
    25
100
AcDbLine
 10
-57.0685900677039
 20
33.41259945203729
 30
0.0
 11
-57.0685900677039
 21
34.01259945203728
 31
0.0
  0
LINE
  5
704
330
1F
100
AcDbEntity
  8
0
  6
SLD-Continua
 62
     7
370
    25
100
AcDbLine
 10
-58.16859006770389
 20
34.01259945203728
 30
0.0
 11
-57.0685900677039
 21
34.01259945203728
 31
0.0
  0
LINE
  5
705
330
1F
100
AcDbEntity
  8
0
  6
SLD-Continua
 62
     7
370
    25
100
AcDbLine
 10
-58.16859006770389
 20
33.41259945203729
 30
0.0
 11
-58.16859006770389
 21
34.01259945203728
 31
0.0
  0
LINE
  5
706
330
1F
100
AcDbEntity
  8
0
  6
SLD-Continua
 62
     7
370
    25
100
AcDbLine
 10
-58.16859006770389
 20
33.41259945203729
 30
0.0
 11
-57.0685900677039
 21
33.41259945203729
 31
0.0
  0
LINE
  5
707
330
1F
100
AcDbEntity
  8
0
  6
SLD-Continua
 62
     7
370
    25
100
AcDbLine
 10
-55.56859006770388
 20
33.41259945203729
 30
0.0
 11
-55.56859006770388
 21
34.01259945203728
 31
0.0
  0
LINE
  5
708
330
1F
100
AcDbEntity
  8
0
  6
SLD-Continua
 62
     7
370
    25
100
AcDbLine
 10
-56.66859006770391
 20
34.01259945203728
 30
0.0
 11
-55.56859006770388
 21
34.01259945203728
 31
0.0
  0
LINE
  5
709
330
1F
100
AcDbEntity
  8
0
  6
SLD-Continua
 62
     7
370
    25
100
AcDbLine
 10
-56.66859006770391
 20
33.41259945203729
 30
0.0
 11
-56.66859006770391
 21
34.01259945203728
 31
0.0
  0
LINE
  5
70A
330
1F
100
AcDbEntity
  8
0
  6
SLD-Continua
 62
     7
370
    25
100
AcDbLine
 10
-56.66859006770391
 20
33.41259945203729
 30
0.0
 11
-55.56859006770388
 21
33.41259945203729
 31
0.0
  0
LINE
  5
70B
330
1F
100
AcDbEntity
  8
0
  6
SLD-Continua
 62
     7
370
    25
100
AcDbLine
 10
-57.0685900677039
 20
32.41259945203728
 30
0.0
 11
-57.0685900677039
 21
33.01259945203728
 31
0.0
  0
LINE
  5
70C
330
1F
100
AcDbEntity
  8
0
  6
SLD-Continua
 62
     7
370
    25
100
AcDbLine
 10
-58.16859006770389
 20
33.01259945203728
 30
0.0
 11
-57.0685900677039
 21
33.01259945203728
 31
0.0
  0
LINE
  5
70D
330
1F
100
AcDbEntity
  8
0
  6
SLD-Continua
 62
     7
370
    25
100
AcDbLine
 10
-58.16859006770389
 20
32.41259945203728
 30
0.0
 11
-58.16859006770389
 21
33.01259945203728
 31
0.0
  0
LINE
  5
70E
330
1F
100
AcDbEntity
  8
0
  6
SLD-Continua
 62
     7
370
    25
100
AcDbLine
 10
-58.16859006770389
 20
32.41259945203728
 30
0.0
 11
-57.0685900677039
 21
32.41259945203728
 31
0.0
  0
LINE
  5
70F
330
1F
100
AcDbEntity
  8
0
  6
SLD-Continua
 62
     7
370
    25
100
AcDbLine
 10
-55.56859006770388
 20
32.41259945203728
 30
0.0
 11
-55.56859006770388
 21
33.01259945203728
 31
0.0
  0
LINE
  5
710
330
1F
100
AcDbEntity
  8
0
  6
SLD-Continua
 62
     7
370
    25
100
AcDbLine
 10
-56.66859006770391
 20
33.01259945203728
 30
0.0
 11
-55.56859006770388
 21
33.01259945203728
 31
0.0
  0
LINE
  5
711
330
1F
100
AcDbEntity
  8
0
  6
SLD-Continua
 62
     7
370
    25
100
AcDbLine
 10
-56.66859006770391
 20
32.41259945203728
 30
0.0
 11
-56.66859006770391
 21
33.01259945203728
 31
0.0
  0
LINE
  5
712
330
1F
100
AcDbEntity
  8
0
  6
SLD-Continua
 62
     7
370
    25
100
AcDbLine
 10
-56.66859006770391
 20
32.41259945203728
 30
0.0
 11
-55.56859006770388
 21
32.41259945203728
 31
0.0
  0
LINE
  5
713
330
1F
100
AcDbEntity
  8
0
  6
SLD-Continua
 62
     1
370
    25
100
AcDbLine
 10
-59.91659006770388
 20
30.54559945203728
 30
0.0
 11
-60.04359006770389
 21
30.67259945203729
 31
0.0
  0
LINE
  5
715
330
1F
100
AcDbEntity
  8
0
  6
SLD-Continua
 62
     7
370
    25
100
AcDbLine
 10
-38.7661242602039
 20
29.72848765373728
 30
0.0
 11
-38.76612427770389
 21
36.22849783863728
 31
0.0
  0
LINE
  5
752
330
1F
100
AcDbEntity
  8
0
  6
SLD-Continua
 62
     7
370
    25
100
AcDbLine
 10
-54.76131956110389
 20
36.32959945203728
 30
0.0
 11
-54.76131956110389
 21
36.92959945213728
 31
0.0
  0
LINE
  5
753
330
1F
100
AcDbEntity
  8
0
  6
SLD-Continua
 62
     7
370
    25
100
AcDbLine
 10
-55.86131956120389
 20
36.32959945203728
 30
0.0
 11
-54.76131956110389
 21
36.32959945203728
 31
0.0
  0
LINE
  5
754
330
1F
100
AcDbEntity
  8
0
  6
SLD-Continua
 62
     7
370
    25
100
AcDbLine
 10
-56.97931956130389
 20
36.32959945203728
 30
0.0
 11
-56.97931956130389
 21
36.92959945213728
 31
0.0
  0
LINE
  5
755
330
1F
100
AcDbEntity
  8
0
  6
SLD-Continua
 62
     7
370
    25
100
AcDbLine
 10
-58.07931956150389
 20
36.92959945213728
 30
0.0
 11
-56.97931956130389
 21
36.92959945213728
 31
0.0
  0
LINE
  5
756
330
1F
100
AcDbEntity
  8
0
  6
SLD-Continua
 62
     7
370
    25
100
AcDbLine
 10
-58.07931956150389
 20
36.32959945203728
 30
0.0
 11
-58.07931956150389
 21
36.92959945213728
 31
0.0
  0
LINE
  5
757
330
1F
100
AcDbEntity
  8
0
  6
SLD-Continua
 62
     7
370
    25
100
AcDbLine
 10
-58.07931956150389
 20
36.32959945203728
 30
0.0
 11
-56.97931956130389
 21
36.32959945203728
 31
0.0
  0
LINE
  5
758
330
1F
100
AcDbEntity
  8
0
  6
SLD-Continua
 62
     7
370
    25
100
AcDbLine
 10
-60.29759006770389
 20
36.92959945213728
 30
0.0
 11
-59.1975900676039
 21
36.92959945213728
 31
0.0
  0
LINE
  5
759
330
1F
100
AcDbEntity
  8
0
  6
SLD-Continua
 62
     7
370
    25
100
AcDbLine
 10
-60.29759006770389
 20
36.32959945203728
 30
0.0
 11
-60.29759006770389
 21
36.92959945213728
 31
0.0
  0
LINE
  5
75A
330
1F
100
AcDbEntity
  8
0
  6
SLD-Continua
 62
     7
370
    25
100
AcDbLine
 10
-59.1975900676039
 20
36.32959945203728
 30
0.0
 11
-60.29759006770389
 21
36.32959945203728
 31
0.0
  0
LINE
  5
75B
330
1F
100
AcDbEntity
  8
0
  6
SLD-Continua
 62
     7
370
    25
100
AcDbLine
 10
-59.1975900676039
 20
36.92959945213728
 30
0.0
 11
-59.1975900676039
 21
36.32959945203728
 31
0.0
  0
LINE
  5
75C
330
1F
100
AcDbEntity
  8
0
  6
SLD-Continua
 62
     7
370
    25
100
AcDbLine
 10
-53.85201983850389
 20
43.52848579513728
 30
0.0
 11
-52.75201983840389
 21
43.52848579513728
 31
0.0
  0
LINE
  5
75D
330
1F
100
AcDbEntity
  8
0
  6
SLD-Continua
 62
     7
370
    25
100
AcDbLine
 10
-53.85201983850389
 20
42.92848579503728
 30
0.0
 11
-53.85201983850389
 21
43.52848579513728
 31
0.0
  0
LINE
  5
75E
330
1F
100
AcDbEntity
  8
0
  6
SLD-Continua
 62
     7
370
    25
100
AcDbLine
 10
-52.75201983840389
 20
42.92848579503728
 30
0.0
 11
-53.85201983850389
 21
42.92848579503728
 31
0.0
  0
LINE
  5
75F
330
1F
100
AcDbEntity
  8
0
  6
SLD-Continua
 62
     7
370
    25
100
AcDbLine
 10
-56.4503531719039
 20
43.52848579513728
 30
0.0
 11
-55.3503531718039
 21
43.52848579513728
 31
0.0
  0
LINE
  5
760
330
1F
100
AcDbEntity
  8
0
  6
SLD-Continua
 62
     7
370
    25
100
AcDbLine
 10
-56.4503531719039
 20
42.92848579503728
 30
0.0
 11
-56.4503531719039
 21
43.52848579513728
 31
0.0
  0
LINE
  5
761
330
1F
100
AcDbEntity
  8
0
  6
SLD-Continua
 62
     7
370
    25
100
AcDbLine
 10
-55.3503531718039
 20
42.92848579503728
 30
0.0
 11
-56.4503531719039
 21
42.92848579503728
 31
0.0
  0
LINE
  5
762
330
1F
100
AcDbEntity
  8
0
  6
SLD-Continua
 62
     7
370
    25
100
AcDbLine
 10
-55.3503531718039
 20
43.52848579513728
 30
0.0
 11
-55.3503531718039
 21
42.92848579503728
 31
0.0
  0
LINE
  5
763
330
1F
100
AcDbEntity
  8
0
  6
SLD-Continua
 62
     7
370
    25
100
AcDbLine
 10
-58.8236216738039
 20
43.52848579513728
 30
0.0
 11
-57.72362167360388
 21
43.52848579513728
 31
0.0
  0
LINE
  5
764
330
1F
100
AcDbEntity
  8
0
  6
SLD-Continua
 62
     7
370
    25
100
AcDbLine
 10
-58.8236216738039
 20
42.92848579503728
 30
0.0
 11
-58.8236216738039
 21
43.52848579513728
 31
0.0
  0
LINE
  5
765
330
1F
100
AcDbEntity
  8
0
  6
SLD-Continua
 62
     7
370
    25
100
AcDbLine
 10
-57.72362167360388
 20
42.92848579503728
 30
0.0
 11
-58.8236216738039
 21
42.92848579503728
 31
0.0
  0
LINE
  5
766
330
1F
100
AcDbEntity
  8
0
  6
SLD-Continua
 62
     7
370
    25
100
AcDbLine
 10
-57.72362167360388
 20
43.52848579513728
 30
0.0
 11
-57.72362167360388
 21
42.92848579503728
 31
0.0
  0
LINE
  5
767
330
1F
100
AcDbEntity
  8
0
  6
SLD-Continua
 62
     7
370
    25
100
AcDbLine
 10
-60.85201983930389
 20
43.52848579513728
 30
0.0
 11
-59.75201983920388
 21
43.52848579513728
 31
0.0
  0
LINE
  5
768
330
1F
100
AcDbEntity
  8
0
  6
SLD-Continua
 62
     7
370
    25
100
AcDbLine
 10
-60.85201983930389
 20
42.92848579503728
 30
0.0
 11
-60.85201983930389
 21
43.52848579513728
 31
0.0
  0
LINE
  5
769
330
1F
100
AcDbEntity
  8
0
  6
SLD-Continua
 62
     7
370
    25
100
AcDbLine
 10
-59.75201983920388
 20
43.52848579513728
 30
0.0
 11
-59.75201983920388
 21
42.92848579503728
 31
0.0
  0
LINE
  5
76A
330
1F
100
AcDbEntity
  8
0
  6
SLD-Continua
 62
     7
370
    25
100
AcDbLine
 10
-56.92408950530388
 20
30.10346895443728
 30
0.0
 11
-56.92408950530388
 21
29.72850385203728
 31
0.0
  0
LINE
  5
76B
330
1F
100
AcDbEntity
  8
0
  6
SLD-Continua
 62
     7
370
    25
100
AcDbLine
 10
-56.92408950530388
 20
30.10346895443728
 30
0.0
 11
-56.67404762800391
 21
30.10346895443728
 31
0.0
  0
LINE
  5
76C
330
1F
100
AcDbEntity
  8
0
  6
SLD-Continua
 62
     7
370
    25
100
AcDbLine
 10
-56.67404762800391
 20
30.40350385213728
 30
0.0
 11
-56.67404762800391
 21
30.10346895443728
 31
0.0
  0
LINE
  5
76D
330
1F
100
AcDbEntity
  8
0
  6
SLD-Continua
 62
     7
370
    25
100
AcDbLine
 10
-56.92408950530388
 20
30.40350385213728
 30
0.0
 11
-56.67404762800391
 21
30.40350385213728
 31
0.0
  0
LINE
  5
76E
330
1F
100
AcDbEntity
  8
0
  6
SLD-Continua
 62
     7
370
    25
100
AcDbLine
 10
-56.92408950530388
 20
30.50100385213728
 30
0.0
 11
-56.92408950530388
 21
30.40350385213728
 31
0.0
  0
LINE
  5
76F
330
1F
100
AcDbEntity
  8
0
  6
SLD-Continua
 62
     7
370
    25
100
AcDbLine
 10
-56.92408950530388
 20
30.50100385213728
 30
0.0
 11
-57.2240895053039
 21
30.50100385213728
 31
0.0
  0
LINE
  5
770
330
1F
100
AcDbEntity
  8
0
  6
SLD-Continua
 62
     7
370
    25
100
AcDbLine
 10
-57.2240895053039
 20
30.50100385213728
 30
0.0
 11
-57.2240895053039
 21
30.40350385213728
 31
0.0
  0
LINE
  5
771
330
1F
100
AcDbEntity
  8
0
  6
SLD-Continua
 62
     7
370
    25
100
AcDbLine
 10
-57.2240895053039
 20
30.40350385213728
 30
0.0
 11
-57.47408950530388
 21
30.40350385213728
 31
0.0
  0
LINE
  5
772
330
1F
100
AcDbEntity
  8
0
  6
SLD-Continua
 62
     7
370
    25
100
AcDbLine
 10
-57.47408950530388
 20
30.40350385213728
 30
0.0
 11
-57.47408950530388
 21
30.10346895443728
 31
0.0
  0
LINE
  5
773
330
1F
100
AcDbEntity
  8
0
  6
SLD-Continua
 62
     7
370
    25
100
AcDbLine
 10
-57.2240895053039
 20
30.10346895443728
 30
0.0
 11
-57.47408950530388
 21
30.10346895443728
 31
0.0
  0
LINE
  5
774
330
1F
100
AcDbEntity
  8
0
  6
SLD-Continua
 62
     7
370
    25
100
AcDbLine
 10
-57.2240895053039
 20
29.72850385203728
 30
0.0
 11
-57.2240895053039
 21
30.10346895443728
 31
0.0
  0
LINE
  5
775
330
1F
100
AcDbEntity
  8
0
  6
SLD-Continua
 62
     7
370
    25
100
AcDbLine
 10
-57.5020546324039
 20
29.72850385203728
 30
0.0
 11
-57.2240895053039
 21
29.72850385203728
 31
0.0
  0
LINE
  5
776
330
1F
100
AcDbEntity
  8
0
  6
SLD-Continua
 62
     7
370
    25
100
AcDbLine
 10
-57.5020546324039
 20
29.42850714573728
 30
0.0
 11
-57.5020546324039
 21
29.72850385203728
 31
0.0
  0
LINE
  5
777
330
1F
100
AcDbEntity
  8
0
  6
SLD-Continua
 62
     7
370
    25
100
AcDbLine
 10
-58.39705463250389
 20
29.42850714573728
 30
0.0
 11
-57.5020546324039
 21
29.42850714573728
 31
0.0
  0
LINE
  5
778
330
1F
100
AcDbEntity
  8
0
  6
SLD-Continua
 62
     7
370
    25
100
AcDbLine
 10
-58.39705463250389
 20
29.72850714583728
 30
0.0
 11
-58.39705463250389
 21
29.42850714573728
 31
0.0
  0
LINE
  5
779
330
1F
100
AcDbEntity
  8
0
  6
SLD-Continua
 62
     7
370
    25
100
AcDbLine
 10
-59.2501887079039
 20
29.72850714583728
 30
0.0
 11
-58.39705463250389
 21
29.72850714583728
 31
0.0
  0
LINE
  5
77A
330
1F
100
AcDbEntity
  8
0
  6
SLD-Continua
 62
     7
370
    25
100
AcDbLine
 10
-59.2501887079039
 20
29.42850713733728
 30
0.0
 11
-59.2501887079039
 21
29.72850714583728
 31
0.0
  0
LINE
  5
77B
330
1F
100
AcDbEntity
  8
0
  6
SLD-Continua
 62
     7
370
    25
100
AcDbLine
 10
-59.2501887079039
 20
29.42850713733728
 30
0.0
 11
-60.51225484550389
 21
29.42850767253728
 31
0.0
  0
LINE
  5
77C
330
1F
100
AcDbEntity
  8
0
  6
SLD-Continua
 62
     7
370
    25
100
AcDbLine
 10
-60.51225484550389
 20
29.72850767673728
 30
0.0
 11
-60.51225484550389
 21
29.42850767253728
 31
0.0
  0
LINE
  5
77D
330
1F
100
AcDbEntity
  8
0
  6
SLD-Continua
 62
     7
370
    25
100
AcDbLine
 10
-60.51225484550389
 20
29.72850767673728
 30
0.0
 11
-61.76612316210388
 21
29.72850767673728
 31
0.0
  0
LINE
  5
77E
330
1F
100
AcDbEntity
  8
0
  6
SLD-Continua
 62
     7
370
    25
100
AcDbLine
 10
-61.76612316210388
 20
29.72850767673728
 30
0.0
 11
-61.76612316210388
 21
30.42848579363728
 31
0.0
  0
LINE
  5
77F
330
1F
100
AcDbEntity
  8
0
  6
SLD-Continua
 62
     7
370
    25
100
AcDbLine
 10
-61.76612316210388
 20
30.42848579363728
 30
0.0
 11
-61.4661231621039
 21
30.42848579363728
 31
0.0
  0
LINE
  5
780
330
1F
100
AcDbEntity
  8
0
  6
SLD-Continua
 62
     7
370
    25
100
AcDbLine
 10
-61.4661231621039
 20
30.42848579363728
 30
0.0
 11
-61.4661231621039
 21
31.42848579373728
 31
0.0
  0
LINE
  5
781
330
1F
100
AcDbEntity
  8
0
  6
SLD-Continua
 62
     7
370
    25
100
AcDbLine
 10
-61.4661231621039
 20
31.42848579373728
 30
0.0
 11
-61.76612316210388
 21
31.42848579373728
 31
0.0
  0
LINE
  5
782
330
1F
100
AcDbEntity
  8
0
  6
SLD-Continua
 62
     7
370
    25
100
AcDbLine
 10
-61.76612316210388
 20
31.42848579373728
 30
0.0
 11
-61.76612316210388
 21
32.42848579383728
 31
0.0
  0
LINE
  5
783
330
1F
100
AcDbEntity
  8
0
  6
SLD-Continua
 62
     7
370
    25
100
AcDbLine
 10
-61.4661231621039
 20
32.42848579383728
 30
0.0
 11
-61.76612316210388
 21
32.42848579383728
 31
0.0
  0
LINE
  5
784
330
1F
100
AcDbEntity
  8
0
  6
SLD-Continua
 62
     7
370
    25
100
AcDbLine
 10
-61.4661231621039
 20
32.42848579383728
 30
0.0
 11
-61.4661231621039
 21
33.77221485533727
 31
0.0
  0
LINE
  5
785
330
1F
100
AcDbEntity
  8
0
  6
SLD-Continua
 62
     7
370
    25
100
AcDbLine
 10
-61.4661231621039
 20
33.77221485533727
 30
0.0
 11
-61.0911580597039
 21
33.77221485533727
 31
0.0
  0
LINE
  5
786
330
1F
100
AcDbEntity
  8
0
  6
SLD-Continua
 62
     7
370
    25
100
AcDbLine
 10
-61.0911580597039
 20
33.77221485533727
 30
0.0
 11
-61.0911580597039
 21
33.52221485533728
 31
0.0
  0
LINE
  5
787
330
1F
100
AcDbEntity
  8
0
  6
SLD-Continua
 62
     7
370
    25
100
AcDbLine
 10
-60.7911231620039
 20
33.52221485533728
 30
0.0
 11
-61.0911580597039
 21
33.52221485533728
 31
0.0
  0
LINE
  5
788
330
1F
100
AcDbEntity
  8
0
  6
SLD-Continua
 62
     7
370
    25
100
AcDbLine
 10
-60.7911231620039
 20
33.77221485533727
 30
0.0
 11
-60.7911231620039
 21
33.52221485533728
 31
0.0
  0
LINE
  5
789
330
1F
100
AcDbEntity
  8
0
  6
SLD-Continua
 62
     7
370
    25
100
AcDbLine
 10
-60.6936231620039
 20
33.77221485533727
 30
0.0
 11
-60.7911231620039
 21
33.77221485533727
 31
0.0
  0
LINE
  5
78A
330
1F
100
AcDbEntity
  8
0
  6
SLD-Continua
 62
     7
370
    25
100
AcDbLine
 10
-60.6936231620039
 20
34.07221485543728
 30
0.0
 11
-60.6936231620039
 21
33.77221485533727
 31
0.0
  0
LINE
  5
78B
330
1F
100
AcDbEntity
  8
0
  6
SLD-Continua
 62
     7
370
    25
100
AcDbLine
 10
-60.6936231620039
 20
34.07221485543728
 30
0.0
 11
-60.7911231620039
 21
34.07221485543728
 31
0.0
  0
LINE
  5
78C
330
1F
100
AcDbEntity
  8
0
  6
SLD-Continua
 62
     7
370
    25
100
AcDbLine
 10
-60.7911231620039
 20
34.07221485543728
 30
0.0
 11
-60.7911231620039
 21
34.32225673263729
 31
0.0
  0
LINE
  5
78D
330
1F
100
AcDbEntity
  8
0
  6
SLD-Continua
 62
     7
370
    25
100
AcDbLine
 10
-60.7911231620039
 20
34.32225673263729
 30
0.0
 11
-61.0911580597039
 21
34.32225673263729
 31
0.0
  0
LINE
  5
78E
330
1F
100
AcDbEntity
  8
0
  6
SLD-Continua
 62
     7
370
    25
100
AcDbLine
 10
-61.0911580597039
 20
34.07221485543728
 30
0.0
 11
-61.0911580597039
 21
34.32225673263729
 31
0.0
  0
LINE
  5
78F
330
1F
100
AcDbEntity
  8
0
  6
SLD-Continua
 62
     7
370
    25
100
AcDbLine
 10
-61.0911580597039
 20
34.07221485543728
 30
0.0
 11
-61.4661231621039
 21
34.07221485543728
 31
0.0
  0
LINE
  5
790
330
1F
100
AcDbEntity
  8
0
  6
SLD-Continua
 62
     7
370
    25
100
AcDbLine
 10
-61.4661231621039
 20
34.07221485543728
 30
0.0
 11
-61.4661231621039
 21
35.41598579413729
 31
0.0
  0
LINE
  5
791
330
1F
100
AcDbEntity
  8
0
  6
SLD-Continua
 62
     7
370
    25
100
AcDbLine
 10
-61.4661231621039
 20
35.41598579413729
 30
0.0
 11
-61.76612316210388
 21
35.41598579413729
 31
0.0
  0
LINE
  5
792
330
1F
100
AcDbEntity
  8
0
  6
SLD-Continua
 62
     7
370
    25
100
AcDbLine
 10
-61.76612316210388
 20
35.41598579413729
 30
0.0
 11
-61.76612316210388
 21
36.42848579423728
 31
0.0
  0
LINE
  5
793
330
1F
100
AcDbEntity
  8
0
  6
SLD-Continua
 62
     7
370
    25
100
AcDbLine
 10
-61.76612316210388
 20
36.42848579423728
 30
0.0
 11
-61.4661231621039
 21
36.42848579423728
 31
0.0
  0
LINE
  5
794
330
1F
100
AcDbEntity
  8
0
  6
SLD-Continua
 62
     7
370
    25
100
AcDbLine
 10
-61.4661231621039
 20
36.42848579423728
 30
0.0
 11
-61.4661231621039
 21
37.42848579443728
 31
0.0
  0
LINE
  5
795
330
1F
100
AcDbEntity
  8
0
  6
SLD-Continua
 62
     7
370
    25
100
AcDbLine
 10
-61.4661231621039
 20
37.42848579443728
 30
0.0
 11
-61.76612316210388
 21
37.42848579443728
 31
0.0
  0
LINE
  5
796
330
1F
100
AcDbEntity
  8
0
  6
SLD-Continua
 62
     7
370
    25
100
AcDbLine
 10
-61.76612316210388
 20
37.42848579443728
 30
0.0
 11
-61.76612316210388
 21
38.44098579453728
 31
0.0
  0
LINE
  5
797
330
1F
100
AcDbEntity
  8
0
  6
SLD-Continua
 62
     7
370
    25
100
AcDbLine
 10
-61.4661231621039
 20
38.44098579453728
 30
0.0
 11
-61.76612316210388
 21
38.44098579453728
 31
0.0
  0
LINE
  5
798
330
1F
100
AcDbEntity
  8
0
  6
SLD-Continua
 62
     7
370
    25
100
AcDbLine
 10
-61.4661231621039
 20
38.44098579453728
 30
0.0
 11
-61.4661231621039
 21
39.78471485603729
 31
0.0
  0
LINE
  5
799
330
1F
100
AcDbEntity
  8
0
  6
SLD-Continua
 62
     7
370
    25
100
AcDbLine
 10
-61.4661231621039
 20
39.78471485603729
 30
0.0
 11
-61.0911580597039
 21
39.78471485603729
 31
0.0
  0
LINE
  5
79A
330
1F
100
AcDbEntity
  8
0
  6
SLD-Continua
 62
     7
370
    25
100
AcDbLine
 10
-61.0911580597039
 20
39.78471485603729
 30
0.0
 11
-61.0911580597039
 21
39.53471485603728
 31
0.0
  0
LINE
  5
79B
330
1F
100
AcDbEntity
  8
0
  6
SLD-Continua
 62
     7
370
    25
100
AcDbLine
 10
-60.7911231620039
 20
39.53471485603728
 30
0.0
 11
-61.0911580597039
 21
39.53471485603728
 31
0.0
  0
LINE
  5
79C
330
1F
100
AcDbEntity
  8
0
  6
SLD-Continua
 62
     7
370
    25
100
AcDbLine
 10
-60.7911231620039
 20
39.78471485603729
 30
0.0
 11
-60.7911231620039
 21
39.53471485603728
 31
0.0
  0
LINE
  5
79D
330
1F
100
AcDbEntity
  8
0
  6
SLD-Continua
 62
     7
370
    25
100
AcDbLine
 10
-60.6936231620039
 20
39.78471485603729
 30
0.0
 11
-60.7911231620039
 21
39.78471485603729
 31
0.0
  0
LINE
  5
79E
330
1F
100
AcDbEntity
  8
0
  6
SLD-Continua
 62
     7
370
    25
100
AcDbLine
 10
-60.6936231620039
 20
40.08471485613728
 30
0.0
 11
-60.6936231620039
 21
39.78471485603729
 31
0.0
  0
LINE
  5
79F
330
1F
100
AcDbEntity
  8
0
  6
SLD-Continua
 62
     7
370
    25
100
AcDbLine
 10
-60.6936231620039
 20
40.08471485613728
 30
0.0
 11
-60.7911231620039
 21
40.08471485613728
 31
0.0
  0
LINE
  5
7A0
330
1F
100
AcDbEntity
  8
0
  6
SLD-Continua
 62
     7
370
    25
100
AcDbLine
 10
-60.7911231620039
 20
40.08471485613728
 30
0.0
 11
-60.7911231620039
 21
40.33475673333728
 31
0.0
  0
LINE
  5
7A1
330
1F
100
AcDbEntity
  8
0
  6
SLD-Continua
 62
     7
370
    25
100
AcDbLine
 10
-60.7911231620039
 20
40.33475673333728
 30
0.0
 11
-61.0911580597039
 21
40.33475673333728
 31
0.0
  0
LINE
  5
7A2
330
1F
100
AcDbEntity
  8
0
  6
SLD-Continua
 62
     7
370
    25
100
AcDbLine
 10
-61.0911580597039
 20
40.08471485613728
 30
0.0
 11
-61.0911580597039
 21
40.33475673333728
 31
0.0
  0
LINE
  5
7A3
330
1F
100
AcDbEntity
  8
0
  6
SLD-Continua
 62
     7
370
    25
100
AcDbLine
 10
-61.4661231621039
 20
40.08471485613728
 30
0.0
 11
-61.4661231621039
 21
41.42848579483728
 31
0.0
  0
LINE
  5
7A4
330
1F
100
AcDbEntity
  8
0
  6
SLD-Continua
 62
     7
370
    25
100
AcDbLine
 10
-61.76612316210388
 20
41.42848579483728
 30
0.0
 11
-61.76612316210388
 21
42.42848579493728
 31
0.0
  0
LINE
  5
7A5
330
1F
100
AcDbEntity
  8
0
  6
SLD-Continua
 62
     7
370
    25
100
AcDbLine
 10
-61.76612316210388
 20
42.42848579493728
 30
0.0
 11
-61.4661231621039
 21
42.42848579493728
 31
0.0
  0
LINE
  5
7A6
330
1F
100
AcDbEntity
  8
0
  6
SLD-Continua
 62
     7
370
    25
100
AcDbLine
 10
-61.4661231621039
 20
42.42848579493728
 30
0.0
 11
-61.4661231621039
 21
43.42848579513728
 31
0.0
  0
LINE
  5
7A7
330
1F
100
AcDbEntity
  8
0
  6
SLD-Continua
 62
     7
370
    25
100
AcDbLine
 10
-61.4661231621039
 20
43.42848579513728
 30
0.0
 11
-61.76612316210388
 21
43.42848579513728
 31
0.0
  0
LINE
  5
7A8
330
1F
100
AcDbEntity
  8
0
  6
SLD-Continua
 62
     7
370
    25
100
AcDbLine
 10
-61.76612316210388
 20
44.12848579103728
 30
0.0
 11
-61.76612316210388
 21
43.42848579513728
 31
0.0
  0
LINE
  5
7A9
330
1F
100
AcDbEntity
  8
0
  6
SLD-Continua
 62
     7
370
    25
100
AcDbLine
 10
-59.2501887079039
 20
44.42848633043728
 30
0.0
 11
-60.51225484550389
 21
44.42848579523729
 31
0.0
  0
LINE
  5
7AA
330
1F
100
AcDbEntity
  8
0
  6
SLD-Continua
 62
     7
370
    25
100
AcDbLine
 10
-59.2501887079039
 20
44.12848632193727
 30
0.0
 11
-58.39705463250389
 21
44.12848632193727
 31
0.0
  0
LINE
  5
7AB
330
1F
100
AcDbEntity
  8
0
  6
SLD-Continua
 62
     7
370
    25
100
AcDbLine
 10
-58.39705463250389
 20
44.42848632193729
 30
0.0
 11
-57.5020546324039
 21
44.42848632193729
 31
0.0
  0
LINE
  5
7AC
330
1F
100
AcDbEntity
  8
0
  6
SLD-Continua
 62
     7
370
    25
100
AcDbLine
 10
-57.5020546324039
 20
44.42848632193729
 30
0.0
 11
-57.5020546324039
 21
44.12848961563728
 31
0.0
  0
LINE
  5
7AD
330
1F
100
AcDbEntity
  8
0
  6
SLD-Continua
 62
     7
370
    25
100
AcDbLine
 10
-57.5020546324039
 20
44.12848961563728
 30
0.0
 11
-57.2240895053039
 21
44.12848961563728
 31
0.0
  0
LINE
  5
7AE
330
1F
100
AcDbEntity
  8
0
  6
SLD-Continua
 62
     7
370
    25
100
AcDbLine
 10
-57.2240895053039
 20
44.12848961563728
 30
0.0
 11
-57.2240895053039
 21
43.75352451333728
 31
0.0
  0
LINE
  5
7AF
330
1F
100
AcDbEntity
  8
0
  6
SLD-Continua
 62
     7
370
    25
100
AcDbLine
 10
-57.2240895053039
 20
43.75352451333728
 30
0.0
 11
-57.47408950530388
 21
43.75352451333728
 31
0.0
  0
LINE
  5
7B0
330
1F
100
AcDbEntity
  8
0
  6
SLD-Continua
 62
     7
370
    25
100
AcDbLine
 10
-57.47408950530388
 20
43.45348961553727
 30
0.0
 11
-57.47408950530388
 21
43.75352451333728
 31
0.0
  0
LINE
  5
7B1
330
1F
100
AcDbEntity
  8
0
  6
SLD-Continua
 62
     7
370
    25
100
AcDbLine
 10
-57.2240895053039
 20
43.45348961553727
 30
0.0
 11
-57.47408950530388
 21
43.45348961553727
 31
0.0
  0
LINE
  5
7B2
330
1F
100
AcDbEntity
  8
0
  6
SLD-Continua
 62
     7
370
    25
100
AcDbLine
 10
-57.2240895053039
 20
43.35598961553728
 30
0.0
 11
-57.2240895053039
 21
43.45348961553727
 31
0.0
  0
LINE
  5
7B3
330
1F
100
AcDbEntity
  8
0
  6
SLD-Continua
 62
     7
370
    25
100
AcDbLine
 10
-56.92408950530388
 20
43.35598961553728
 30
0.0
 11
-57.2240895053039
 21
43.35598961553728
 31
0.0
  0
LINE
  5
7B4
330
1F
100
AcDbEntity
  8
0
  6
SLD-Continua
 62
     7
370
    25
100
AcDbLine
 10
-56.92408950530388
 20
43.45348961553727
 30
0.0
 11
-56.67404762800391
 21
43.45348961553727
 31
0.0
  0
LINE
  5
7B5
330
1F
100
AcDbEntity
  8
0
  6
SLD-Continua
 62
     7
370
    25
100
AcDbLine
 10
-56.67404762800391
 20
43.45348961553727
 30
0.0
 11
-56.67404762800391
 21
43.75352451333728
 31
0.0
  0
LINE
  5
7B6
330
1F
100
AcDbEntity
  8
0
  6
SLD-Continua
 62
     7
370
    25
100
AcDbLine
 10
-56.92408950530388
 20
43.75352451333728
 30
0.0
 11
-56.67404762800391
 21
43.75352451333728
 31
0.0
  0
LINE
  5
7B7
330
1F
100
AcDbEntity
  8
0
  6
SLD-Continua
 62
     7
370
    25
100
AcDbLine
 10
-56.92408950530388
 20
43.75352451333728
 30
0.0
 11
-56.92408950530388
 21
44.12848961563728
 31
0.0
  0
LINE
  5
7B8
330
1F
100
AcDbEntity
  8
0
  6
SLD-Continua
 62
     7
370
    25
100
AcDbLine
 10
-56.92408950530388
 20
44.12848961563728
 30
0.0
 11
-56.64612437820387
 21
44.12848961563728
 31
0.0
  0
LINE
  5
7B9
330
1F
100
AcDbEntity
  8
0
  6
SLD-Continua
 62
     7
370
    25
100
AcDbLine
 10
-55.75112437810389
 20
44.12849731693728
 30
0.0
 11
-54.8961243780039
 21
44.12849731693728
 31
0.0
  0
LINE
  5
7BA
330
1F
100
AcDbEntity
  8
0
  6
SLD-Continua
 62
     7
370
    25
100
AcDbLine
 10
-53.63612346360389
 20
44.42849731693727
 30
0.0
 11
-54.8961243780039
 21
44.42849731693727
 31
0.0
  0
LINE
  5
7BB
330
1F
100
AcDbEntity
  8
0
  6
SLD-Continua
 62
     7
370
    25
100
AcDbLine
 10
-53.63612346360389
 20
44.12849615673727
 30
0.0
 11
-52.3361234636039
 21
44.12849615673727
 31
0.0
  0
LINE
  5
7BC
330
1F
100
AcDbEntity
  8
0
  6
SLD-Continua
 62
     7
370
    25
100
AcDbLine
 10
-50.2661237077039
 20
44.42849615673728
 30
0.0
 11
-50.2661237077039
 21
29.42849731103729
 31
0.0
  0
LINE
  5
7BD
330
1F
100
AcDbEntity
  8
0
  6
SLD-Continua
 62
     7
370
    25
100
AcDbLine
 10
-50.2661237077039
 20
29.42849731103729
 30
0.0
 11
-52.3361234636039
 21
29.42849731103729
 31
0.0
  0
LINE
  5
7BE
330
1F
100
AcDbEntity
  8
0
  6
SLD-Continua
 62
     7
370
    25
100
AcDbLine
 10
-52.3361234636039
 20
29.42849731103729
 30
0.0
 11
-52.3361234636039
 21
29.72849731103729
 31
0.0
  0
LINE
  5
7BF
330
1F
100
AcDbEntity
  8
0
  6
SLD-Continua
 62
     7
370
    25
100
AcDbLine
 10
-53.63612346360389
 20
29.72849731103729
 30
0.0
 11
-52.3361234636039
 21
29.72849731103729
 31
0.0
  0
LINE
  5
7C0
330
1F
100
AcDbEntity
  8
0
  6
SLD-Continua
 62
     7
370
    25
100
AcDbLine
 10
-53.63612346360389
 20
29.42849615073728
 30
0.0
 11
-53.63612346360389
 21
29.72849731103729
 31
0.0
  0
LINE
  5
7C1
330
1F
100
AcDbEntity
  8
0
  6
SLD-Continua
 62
     7
370
    25
100
AcDbLine
 10
-53.63612346360389
 20
29.42849615073728
 30
0.0
 11
-54.8961243780039
 21
29.42849615073728
 31
0.0
  0
LINE
  5
7C2
330
1F
100
AcDbEntity
  8
0
  6
SLD-Continua
 62
     7
370
    25
100
AcDbLine
 10
-54.8961243780039
 20
29.72849615073728
 30
0.0
 11
-54.8961243780039
 21
29.42849615073728
 31
0.0
  0
LINE
  5
7C3
330
1F
100
AcDbEntity
  8
0
  6
SLD-Continua
 62
     7
370
    25
100
AcDbLine
 10
-55.75112437810389
 20
29.72849615073728
 30
0.0
 11
-54.8961243780039
 21
29.72849615073728
 31
0.0
  0
LINE
  5
7C4
330
1F
100
AcDbEntity
  8
0
  6
SLD-Continua
 62
     7
370
    25
100
AcDbLine
 10
-55.75112437810389
 20
29.42850385203728
 30
0.0
 11
-55.75112437810389
 21
29.72849615073728
 31
0.0
  0
LINE
  5
7C5
330
1F
100
AcDbEntity
  8
0
  6
SLD-Continua
 62
     7
370
    25
100
AcDbLine
 10
-56.64612437820387
 20
29.42850385203728
 30
0.0
 11
-55.75112437810389
 21
29.42850385203728
 31
0.0
  0
LINE
  5
7C6
330
1F
100
AcDbEntity
  8
0
  6
SLD-Continua
 62
     7
370
    25
100
AcDbLine
 10
-56.64612437820387
 20
29.72850385203728
 30
0.0
 11
-56.64612437820387
 21
29.42850385203728
 31
0.0
  0
LINE
  5
7C7
330
1F
100
AcDbEntity
  8
0
  6
SLD-Continua
 62
     7
370
    25
100
AcDbLine
 10
-56.92408950530388
 20
29.72850385203728
 30
0.0
 11
-56.64612437820387
 21
29.72850385203728
 31
0.0
  0
CIRCLE
  5
7C8
330
1F
100
AcDbEntity
  8
0
  6
SLD-Continua
 62
     7
370
    25
100
AcDbCircle
 10
-53.5829111557039
 20
36.62959945213728
 30
0.0
 40
0.5000000000580087
  0
LINE
  5
7C9
330
1F
100
AcDbEntity
  8
0
  6
SLD-Continua
 62
     7
370
    25
100
AcDbLine
 10
-50.86613549620389
 20
42.09849731103728
 30
0.0
 11
-50.86613549620389
 21
41.89849731103728
 31
0.0
  0
ARC
  5
7CA
330
1F
100
AcDbEntity
  8
0
  6
SLD-Continua
 62
     7
370
    25
100
AcDbCircle
 10
-50.91613549620389
 20
42.09849731103728
 30
0.0
 40
0.0499999999999972
100
AcDbArc
 50
0.0
 51
90.0
  0
LINE
  5
7CB
330
1F
100
AcDbEntity
  8
0
  6
SLD-Continua
 62
     7
370
    25
100
AcDbLine
 10
-51.16613549620389
 20
42.14849731103728
 30
0.0
 11
-50.91613549620389
 21
42.14849731103728
 31
0.0
  0
LINE
  5
7CC
330
1F
100
AcDbEntity
  8
0
  6
SLD-Continua
 62
     7
370
    25
100
AcDbLine
 10
-51.16613549620389
 20
41.84849731103728
 30
0.0
 11
-51.16613549620389
 21
42.14849731103728
 31
0.0
  0
LINE
  5
7CD
330
1F
100
AcDbEntity
  8
0
  6
SLD-Continua
 62
     7
370
    25
100
AcDbLine
 10
-50.91613549620389
 20
41.84849731103728
 30
0.0
 11
-51.16613549620389
 21
41.84849731103728
 31
0.0
  0
CIRCLE
  5
7CE
330
1F
100
AcDbEntity
  8
0
  6
SLD-Continua
 62
     7
370
    25
100
AcDbCircle
 10
-51.0161380337039
 20
30.59849731103728
 30
0.0
 40
0.4100000000000037
  0
LINE
  5
7CF
330
1F
100
AcDbEntity
  8
0
  6
SLD-Continua
 62
     7
370
    25
100
AcDbLine
 10
-61.4661231621039
 20
41.42848579483728
 30
0.0
 11
-61.76612316210388
 21
41.42848579483728
 31
0.0
  0
LINE
  5
7D0
330
1F
100
AcDbEntity
  8
0
  6
SLD-Continua
 62
     7
370
    25
100
AcDbLine
 10
-55.86131956120389
 20
36.32959945203728
 30
0.0
 11
-55.86131956120389
 21
36.92959945213728
 31
0.0
  0
LINE
  5
7D1
330
1F
100
AcDbEntity
  8
0
  6
SLD-Continua
 62
     7
370
    25
100
AcDbLine
 10
-52.3361234636039
 20
44.42849615673728
 30
0.0
 11
-50.2661237077039
 21
44.42849615673728
 31
0.0
  0
LINE
  5
7D2
330
1F
100
AcDbEntity
  8
0
  6
SLD-Continua
 62
     7
370
    25
100
AcDbLine
 10
-52.3361234636039
 20
44.42849615673728
 30
0.0
 11
-52.3361234636039
 21
44.12849615673727
 31
0.0
  0
LINE
  5
7D3
330
1F
100
AcDbEntity
  8
0
  6
SLD-Continua
 62
     7
370
    25
100
AcDbLine
 10
-58.39705463250389
 20
44.12848632193727
 30
0.0
 11
-58.39705463250389
 21
44.42848632193729
 31
0.0
  0
LINE
  5
7D4
330
1F
100
AcDbEntity
  8
0
  6
SLD-Continua
 62
     7
370
    25
100
AcDbLine
 10
-59.75201983920388
 20
42.92848579503728
 30
0.0
 11
-60.85201983930389
 21
42.92848579503728
 31
0.0
  0
LINE
  5
7D5
330
1F
100
AcDbEntity
  8
0
  6
SLD-Continua
 62
     7
370
    25
100
AcDbLine
 10
-59.2501887079039
 20
44.42848633043728
 30
0.0
 11
-59.2501887079039
 21
44.12848632193727
 31
0.0
  0
LINE
  5
7D6
330
1F
100
AcDbEntity
  8
0
  6
SLD-Continua
 62
     7
370
    25
100
AcDbLine
 10
-55.86131956120389
 20
36.92959945213728
 30
0.0
 11
-54.76131956110389
 21
36.92959945213728
 31
0.0
  0
LINE
  5
7D7
330
1F
100
AcDbEntity
  8
0
  6
SLD-Continua
 62
     7
370
    25
100
AcDbLine
 10
-60.51225484550389
 20
44.12848579103728
 30
0.0
 11
-60.51225484550389
 21
44.42848579523729
 31
0.0
  0
LINE
  5
7D8
330
1F
100
AcDbEntity
  8
0
  6
SLD-Continua
 62
     7
370
    25
100
AcDbLine
 10
-61.76612316210388
 20
44.12848579103728
 30
0.0
 11
-60.51225484550389
 21
44.12848579103728
 31
0.0
  0
ARC
  5
7D9
330
1F
100
AcDbEntity
  8
0
  6
SLD-Continua
 62
     7
370
    25
100
AcDbCircle
 10
-50.91613549620389
 20
41.89849731103728
 30
0.0
 40
0.0500000000000043
100
AcDbArc
 50
270.0
 51
0.0
  0
LINE
  5
7DA
330
1F
100
AcDbEntity
  8
0
  6
SLD-Continua
 62
     7
370
    25
100
AcDbLine
 10
-52.75201983840389
 20
43.52848579513728
 30
0.0
 11
-52.75201983840389
 21
42.92848579503728
 31
0.0
  0
LINE
  5
7DB
330
1F
100
AcDbEntity
  8
0
  6
SLD-Continua
 62
     7
370
    25
100
AcDbLine
 10
-56.64612437820387
 20
44.12848961563728
 30
0.0
 11
-56.64612437820387
 21
44.42848961573727
 31
0.0
  0
LINE
  5
7DC
330
1F
100
AcDbEntity
  8
0
  6
SLD-Continua
 62
     7
370
    25
100
AcDbLine
 10
-53.63612346360389
 20
44.42849731693727
 30
0.0
 11
-53.63612346360389
 21
44.12849615673727
 31
0.0
  0
LINE
  5
7DD
330
1F
100
AcDbEntity
  8
0
  6
SLD-Continua
 62
     7
370
    25
100
AcDbLine
 10
-55.75112437810389
 20
44.42848961573727
 30
0.0
 11
-55.75112437810389
 21
44.12849731693728
 31
0.0
  0
LINE
  5
7DE
330
1F
100
AcDbEntity
  8
0
  6
SLD-Continua
 62
     7
370
    25
100
AcDbLine
 10
-54.8961243780039
 20
44.12849731693728
 30
0.0
 11
-54.8961243780039
 21
44.42849731693727
 31
0.0
  0
LINE
  5
7DF
330
1F
100
AcDbEntity
  8
0
  6
SLD-Continua
 62
     7
370
    25
100
AcDbLine
 10
-61.0911580597039
 20
40.08471485613728
 30
0.0
 11
-61.4661231621039
 21
40.08471485613728
 31
0.0
  0
LINE
  5
7E0
330
1F
100
AcDbEntity
  8
0
  6
SLD-Continua
 62
     7
370
    25
100
AcDbLine
 10
-56.92408950530388
 20
43.35598961553728
 30
0.0
 11
-56.92408950530388
 21
43.45348961553727
 31
0.0
  0
LINE
  5
7E1
330
1F
100
AcDbEntity
  8
0
  6
SLD-Continua
 62
     7
370
    25
100
AcDbLine
 10
-56.64612437820387
 20
44.42848961573727
 30
0.0
 11
-55.75112437810389
 21
44.42848961573727
 31
0.0
  0
LINE
  5
7E2
330
1F
100
AcDbEntity
  8
0
  6
SLD-Continua
 62
     7
370
    25
100
AcDbLine
 10
-44.86612426020388
 20
35.92848579673729
 30
0.0
 11
-45.14612426020391
 21
35.92848579673729
 31
0.0
  0
LINE
  5
7E3
330
1F
100
AcDbEntity
  8
0
  6
SLD-Continua
 62
     7
370
    25
100
AcDbLine
 10
-44.86612426020388
 20
37.92848579673729
 30
0.0
 11
-44.86612426020388
 21
35.92848579673729
 31
0.0
  0
LINE
  5
7E4
330
1F
100
AcDbEntity
  8
0
  6
SLD-Continua
 62
     7
370
    25
100
AcDbLine
 10
-44.86612426020388
 20
37.92848579673729
 30
0.0
 11
-45.14612426020391
 21
37.92848579673729
 31
0.0
  0
LINE
  5
7E5
330
1F
100
AcDbEntity
  8
0
  6
SLD-Continua
 62
     7
370
    25
100
AcDbLine
 10
-45.14612426020391
 20
37.92848579673729
 30
0.0
 11
-45.14612426020391
 21
35.92848579673729
 31
0.0
  0
LINE
  5
7E6
330
1F
100
AcDbEntity
  8
0
  6
SLD-Continua
 62
     7
370
    25
100
AcDbLine
 10
-42.56612426020391
 20
35.92848579673729
 30
0.0
 11
-42.28612426020389
 21
35.92848579673729
 31
0.0
  0
LINE
  5
7E7
330
1F
100
AcDbEntity
  8
0
  6
SLD-Continua
 62
     7
370
    25
100
AcDbLine
 10
-42.28612426020389
 20
37.92848579673729
 30
0.0
 11
-42.28612426020389
 21
35.92848579673729
 31
0.0
  0
LINE
  5
7E8
330
1F
100
AcDbEntity
  8
0
  6
SLD-Continua
 62
     7
370
    25
100
AcDbLine
 10
-42.56612426020391
 20
37.92848579673729
 30
0.0
 11
-42.28612426020389
 21
37.92848579673729
 31
0.0
  0
LINE
  5
7E9
330
1F
100
AcDbEntity
  8
0
  6
SLD-Continua
 62
     7
370
    25
100
AcDbLine
 10
-42.56612426020391
 20
37.92848579673729
 30
0.0
 11
-42.56612426020391
 21
35.92848579673729
 31
0.0
  0
CIRCLE
  5
7EA
330
1F
100
AcDbEntity
  8
0
  6
SLD-Continua
 62
     7
370
    25
100
AcDbCircle
 10
-40.56612426020389
 20
34.97848579673728
 30
0.0
 40
0.2499999999999929
  0
CIRCLE
  5
7EB
330
1F
100
AcDbEntity
  8
0
  6
SLD-Continua
 62
     7
370
    25
100
AcDbCircle
 10
-40.56612426020389
 20
38.87848579673728
 30
0.0
 40
0.25
  0
LINE
  5
7EC
330
1F
100
AcDbEntity
  8
0
  6
SLD-Continua
 62
     7
370
    25
100
AcDbLine
 10
-43.60815791190389
 20
43.35598961583728
 30
0.0
 11
-43.30815791190388
 21
43.35598961583728
 31
0.0
  0
LINE
  5
7ED
330
1F
100
AcDbEntity
  8
0
  6
SLD-Continua
 62
     7
370
    25
100
AcDbLine
 10
-43.30815791190388
 20
43.35598961583728
 30
0.0
 11
-43.30815791190388
 21
43.45348961583725
 31
0.0
  0
LINE
  5
7EE
330
1F
100
AcDbEntity
  8
0
  6
SLD-Continua
 62
     7
370
    25
100
AcDbLine
 10
-43.30815791190388
 20
43.45348961583725
 30
0.0
 11
-43.05815791200389
 21
43.45348961583725
 31
0.0
  0
LINE
  5
7EF
330
1F
100
AcDbEntity
  8
0
  6
SLD-Continua
 62
     7
370
    25
100
AcDbLine
 10
-43.05815791200389
 20
43.45348961583725
 30
0.0
 11
-43.05815791200389
 21
43.75352451343728
 31
0.0
  0
LINE
  5
7F0
330
1F
100
AcDbEntity
  8
0
  6
SLD-Continua
 62
     7
370
    25
100
AcDbLine
 10
-43.30815791190388
 20
43.75352451343728
 30
0.0
 11
-43.05815791200389
 21
43.75352451343728
 31
0.0
  0
LINE
  5
7F1
330
1F
100
AcDbEntity
  8
0
  6
SLD-Continua
 62
     7
370
    25
100
AcDbLine
 10
-43.30815791190388
 20
44.12848961573728
 30
0.0
 11
-43.30815791190388
 21
43.75352451343728
 31
0.0
  0
LINE
  5
7F2
330
1F
100
AcDbEntity
  8
0
  6
SLD-Continua
 62
     7
370
    25
100
AcDbLine
 10
-43.03019278490388
 20
44.12848961573728
 30
0.0
 11
-43.30815791190388
 21
44.12848961573728
 31
0.0
  0
LINE
  5
7F3
330
1F
100
AcDbEntity
  8
0
  6
SLD-Continua
 62
     7
370
    25
100
AcDbLine
 10
-43.03019278490388
 20
44.42848632193729
 30
0.0
 11
-43.03019278490388
 21
44.12848961573728
 31
0.0
  0
LINE
  5
7F4
330
1F
100
AcDbEntity
  8
0
  6
SLD-Continua
 62
     7
370
    25
100
AcDbLine
 10
-42.13519278520389
 20
44.42848632193729
 30
0.0
 11
-43.03019278490388
 21
44.42848632193729
 31
0.0
  0
LINE
  5
7F5
330
1F
100
AcDbEntity
  8
0
  6
SLD-Continua
 62
     7
370
    25
100
AcDbLine
 10
-41.28205871000388
 20
44.42848633033729
 30
0.0
 11
-41.28205871000388
 21
44.12848632193727
 31
0.0
  0
LINE
  5
7F6
330
1F
100
AcDbEntity
  8
0
  6
SLD-Continua
 62
     7
370
    25
100
AcDbLine
 10
-41.28205871000388
 20
44.42848633033729
 30
0.0
 11
-40.0199925729039
 21
44.42848579513728
 31
0.0
  0
LINE
  5
7F7
330
1F
100
AcDbEntity
  8
0
  6
SLD-Continua
 62
     7
370
    25
100
AcDbLine
 10
-40.0199925729039
 20
44.12848579103728
 30
0.0
 11
-40.0199925729039
 21
44.42848579513728
 31
0.0
  0
LINE
  5
7F8
330
1F
100
AcDbEntity
  8
0
  6
SLD-Continua
 62
     7
370
    25
100
AcDbLine
 10
-38.7661242602039
 20
44.12848579103728
 30
0.0
 11
-40.0199925729039
 21
44.12848579103728
 31
0.0
  0
LINE
  5
7F9
330
1F
100
AcDbEntity
  8
0
  6
SLD-Continua
 62
     7
370
    25
100
AcDbLine
 10
-38.7661242602039
 20
44.12848579103728
 30
0.0
 11
-38.7661242602039
 21
43.42848579533728
 31
0.0
  0
LINE
  5
7FA
330
1F
100
AcDbEntity
  8
0
  6
SLD-Continua
 62
     7
370
    25
100
AcDbLine
 10
-39.06612426020391
 20
43.42848579533728
 30
0.0
 11
-38.7661242602039
 21
43.42848579533728
 31
0.0
  0
LINE
  5
7FB
330
1F
100
AcDbEntity
  8
0
  6
SLD-Continua
 62
     7
370
    25
100
AcDbLine
 10
-39.06612426020391
 20
42.42848579553728
 30
0.0
 11
-39.06612426020391
 21
43.42848579533728
 31
0.0
  0
LINE
  5
7FC
330
1F
100
AcDbEntity
  8
0
  6
SLD-Continua
 62
     7
370
    25
100
AcDbLine
 10
-38.7661242602039
 20
42.42848579553728
 30
0.0
 11
-39.06612426020391
 21
42.42848579553728
 31
0.0
  0
LINE
  5
7FD
330
1F
100
AcDbEntity
  8
0
  6
SLD-Continua
 62
     7
370
    25
100
AcDbLine
 10
-38.7661242602039
 20
41.42848579573727
 30
0.0
 11
-38.7661242602039
 21
42.42848579553728
 31
0.0
  0
LINE
  5
7FE
330
1F
100
AcDbEntity
  8
0
  6
SLD-Continua
 62
     7
370
    25
100
AcDbLine
 10
-39.06612426020391
 20
41.42848579573727
 30
0.0
 11
-38.7661242602039
 21
41.42848579573727
 31
0.0
  0
LINE
  5
7FF
330
1F
100
AcDbEntity
  8
0
  6
SLD-Continua
 62
     7
370
    25
100
AcDbLine
 10
-39.06612426020391
 20
40.08471485743728
 30
0.0
 11
-39.06612426020391
 21
41.42848579573727
 31
0.0
  0
LINE
  5
800
330
1F
100
AcDbEntity
  8
0
  6
SLD-Continua
 62
     7
370
    25
100
AcDbLine
 10
-39.4410893624039
 20
40.08471485743728
 30
0.0
 11
-39.06612426020391
 21
40.08471485743728
 31
0.0
  0
LINE
  5
801
330
1F
100
AcDbEntity
  8
0
  6
SLD-Continua
 62
     7
370
    25
100
AcDbLine
 10
-39.4410893624039
 20
40.08471485743728
 30
0.0
 11
-39.4410893624039
 21
40.33475673463728
 31
0.0
  0
LINE
  5
802
330
1F
100
AcDbEntity
  8
0
  6
SLD-Continua
 62
     7
370
    25
100
AcDbLine
 10
-39.7411242600039
 20
40.33475673463728
 30
0.0
 11
-39.4410893624039
 21
40.33475673463728
 31
0.0
  0
LINE
  5
803
330
1F
100
AcDbEntity
  8
0
  6
SLD-Continua
 62
     7
370
    25
100
AcDbLine
 10
-39.7411242600039
 20
40.08471485743728
 30
0.0
 11
-39.7411242600039
 21
40.33475673463728
 31
0.0
  0
LINE
  5
804
330
1F
100
AcDbEntity
  8
0
  6
SLD-Continua
 62
     7
370
    25
100
AcDbLine
 10
-39.93612426000389
 20
40.08471485743728
 30
0.0
 11
-39.7411242600039
 21
40.08471485743728
 31
0.0
  0
LINE
  5
805
330
1F
100
AcDbEntity
  8
0
  6
SLD-Continua
 62
     7
370
    25
100
AcDbLine
 10
-39.93612426000389
 20
40.08471485743728
 30
0.0
 11
-39.93612426000389
 21
39.78471485753728
 31
0.0
  0
LINE
  5
806
330
1F
100
AcDbEntity
  8
0
  6
SLD-Continua
 62
     7
370
    25
100
AcDbLine
 10
-39.93612426000389
 20
39.78471485753728
 30
0.0
 11
-39.7411242600039
 21
39.78471485753728
 31
0.0
  0
LINE
  5
807
330
1F
100
AcDbEntity
  8
0
  6
SLD-Continua
 62
     7
370
    25
100
AcDbLine
 10
-39.7411242600039
 20
39.78471485753728
 30
0.0
 11
-39.7411242600039
 21
39.53471485753728
 31
0.0
  0
LINE
  5
808
330
1F
100
AcDbEntity
  8
0
  6
SLD-Continua
 62
     7
370
    25
100
AcDbLine
 10
-39.7411242600039
 20
39.53471485753728
 30
0.0
 11
-39.4410893624039
 21
39.53471485753728
 31
0.0
  0
LINE
  5
809
330
1F
100
AcDbEntity
  8
0
  6
SLD-Continua
 62
     7
370
    25
100
AcDbLine
 10
-39.4410893624039
 20
39.78471485753728
 30
0.0
 11
-39.4410893624039
 21
39.53471485753728
 31
0.0
  0
LINE
  5
80A
330
1F
100
AcDbEntity
  8
0
  6
SLD-Continua
 62
     7
370
    25
100
AcDbLine
 10
-39.06612426020391
 20
39.78471485753728
 30
0.0
 11
-39.4410893624039
 21
39.78471485753728
 31
0.0
  0
LINE
  5
80B
330
1F
100
AcDbEntity
  8
0
  6
SLD-Continua
 62
     7
370
    25
100
AcDbLine
 10
-39.06612426020391
 20
38.44098579643728
 30
0.0
 11
-39.06612426020391
 21
39.78471485753728
 31
0.0
  0
LINE
  5
80C
330
1F
100
AcDbEntity
  8
0
  6
SLD-Continua
 62
     7
370
    25
100
AcDbLine
 10
-38.7661242602039
 20
38.44098579643728
 30
0.0
 11
-39.06612426020391
 21
38.44098579643728
 31
0.0
  0
LINE
  5
80D
330
1F
100
AcDbEntity
  8
0
  6
SLD-Continua
 62
     7
370
    25
100
AcDbLine
 10
-38.7661242602039
 20
38.44098579643728
 30
0.0
 11
-38.7661242602039
 21
37.41598579663728
 31
0.0
  0
LINE
  5
80E
330
1F
100
AcDbEntity
  8
0
  6
SLD-Continua
 62
     7
370
    25
100
AcDbLine
 10
-38.7661242602039
 20
37.41598579663728
 30
0.0
 11
-39.06612426020391
 21
37.41598579663728
 31
0.0
  0
LINE
  5
80F
330
1F
100
AcDbEntity
  8
0
  6
SLD-Continua
 62
     7
370
    25
100
AcDbLine
 10
-39.06612426020391
 20
36.44098579683728
 30
0.0
 11
-39.06612426020391
 21
37.41598579663728
 31
0.0
  0
LINE
  5
810
330
1F
100
AcDbEntity
  8
0
  6
SLD-Continua
 62
     7
370
    25
100
AcDbLine
 10
-38.7661242602039
 20
36.44098579683728
 30
0.0
 11
-39.06612426020391
 21
36.44098579683728
 31
0.0
  0
LINE
  5
811
330
1F
100
AcDbEntity
  8
0
  6
SLD-Continua
 62
     7
370
    25
100
AcDbLine
 10
-38.7661242602039
 20
36.44098579683728
 30
0.0
 11
-38.7661242602039
 21
35.41598579703728
 31
0.0
  0
LINE
  5
812
330
1F
100
AcDbEntity
  8
0
  6
SLD-Continua
 62
     7
370
    25
100
AcDbLine
 10
-38.7661242602039
 20
35.41598579703728
 30
0.0
 11
-39.06612426020391
 21
35.41598579703728
 31
0.0
  0
LINE
  5
813
330
1F
100
AcDbEntity
  8
0
  6
SLD-Continua
 62
     7
370
    25
100
AcDbLine
 10
-39.06612426020391
 20
34.07221485873729
 30
0.0
 11
-39.06612426020391
 21
35.41598579703728
 31
0.0
  0
LINE
  5
814
330
1F
100
AcDbEntity
  8
0
  6
SLD-Continua
 62
     7
370
    25
100
AcDbLine
 10
-39.4410893624039
 20
34.07221485873729
 30
0.0
 11
-39.06612426020391
 21
34.07221485873729
 31
0.0
  0
LINE
  5
815
330
1F
100
AcDbEntity
  8
0
  6
SLD-Continua
 62
     7
370
    25
100
AcDbLine
 10
-39.4410893624039
 20
34.07221485873729
 30
0.0
 11
-39.4410893624039
 21
34.32225673593728
 31
0.0
  0
LINE
  5
816
330
1F
100
AcDbEntity
  8
0
  6
SLD-Continua
 62
     7
370
    25
100
AcDbLine
 10
-39.7411242600039
 20
34.32225673593728
 30
0.0
 11
-39.4410893624039
 21
34.32225673593728
 31
0.0
  0
LINE
  5
817
330
1F
100
AcDbEntity
  8
0
  6
SLD-Continua
 62
     7
370
    25
100
AcDbLine
 10
-39.7411242600039
 20
34.07221485873729
 30
0.0
 11
-39.7411242600039
 21
34.32225673593728
 31
0.0
  0
LINE
  5
818
330
1F
100
AcDbEntity
  8
0
  6
SLD-Continua
 62
     7
370
    25
100
AcDbLine
 10
-39.93612426000389
 20
34.07221485873729
 30
0.0
 11
-39.7411242600039
 21
34.07221485873729
 31
0.0
  0
LINE
  5
819
330
1F
100
AcDbEntity
  8
0
  6
SLD-Continua
 62
     7
370
    25
100
AcDbLine
 10
-39.93612426000389
 20
34.07221485873729
 30
0.0
 11
-39.93612426000389
 21
33.77221485883728
 31
0.0
  0
LINE
  5
81A
330
1F
100
AcDbEntity
  8
0
  6
SLD-Continua
 62
     7
370
    25
100
AcDbLine
 10
-39.93612426000389
 20
33.77221485883728
 30
0.0
 11
-39.7411242600039
 21
33.77221485883728
 31
0.0
  0
LINE
  5
81B
330
1F
100
AcDbEntity
  8
0
  6
SLD-Continua
 62
     7
370
    25
100
AcDbLine
 10
-39.7411242600039
 20
33.77221485883728
 30
0.0
 11
-39.7411242600039
 21
33.52221485883728
 31
0.0
  0
LINE
  5
81C
330
1F
100
AcDbEntity
  8
0
  6
SLD-Continua
 62
     7
370
    25
100
AcDbLine
 10
-39.7411242600039
 20
33.52221485883728
 30
0.0
 11
-39.4410893624039
 21
33.52221485883728
 31
0.0
  0
LINE
  5
81D
330
1F
100
AcDbEntity
  8
0
  6
SLD-Continua
 62
     7
370
    25
100
AcDbLine
 10
-39.4410893624039
 20
33.77221485883728
 30
0.0
 11
-39.4410893624039
 21
33.52221485883728
 31
0.0
  0
LINE
  5
81E
330
1F
100
AcDbEntity
  8
0
  6
SLD-Continua
 62
     7
370
    25
100
AcDbLine
 10
-39.06612426020391
 20
33.77221485883728
 30
0.0
 11
-39.4410893624039
 21
33.77221485883728
 31
0.0
  0
LINE
  5
81F
330
1F
100
AcDbEntity
  8
0
  6
SLD-Continua
 62
     7
370
    25
100
AcDbLine
 10
-39.06612426020391
 20
32.42848579773729
 30
0.0
 11
-39.06612426020391
 21
33.77221485883728
 31
0.0
  0
LINE
  5
820
330
1F
100
AcDbEntity
  8
0
  6
SLD-Continua
 62
     7
370
    25
100
AcDbLine
 10
-38.7661242602039
 20
32.42848579773729
 30
0.0
 11
-39.06612426020391
 21
32.42848579773729
 31
0.0
  0
LINE
  5
821
330
1F
100
AcDbEntity
  8
0
  6
SLD-Continua
 62
     7
370
    25
100
AcDbLine
 10
-38.7661242602039
 20
31.42848579793728
 30
0.0
 11
-38.7661242602039
 21
32.42848579773729
 31
0.0
  0
LINE
  5
822
330
1F
100
AcDbEntity
  8
0
  6
SLD-Continua
 62
     7
370
    25
100
AcDbLine
 10
-39.06612426020391
 20
31.42848579793728
 30
0.0
 11
-38.7661242602039
 21
31.42848579793728
 31
0.0
  0
LINE
  5
823
330
1F
100
AcDbEntity
  8
0
  6
SLD-Continua
 62
     7
370
    25
100
AcDbLine
 10
-39.06612426020391
 20
30.42848579813729
 30
0.0
 11
-39.06612426020391
 21
31.42848579793728
 31
0.0
  0
LINE
  5
824
330
1F
100
AcDbEntity
  8
0
  6
SLD-Continua
 62
     7
370
    25
100
AcDbLine
 10
-38.7661242602039
 20
30.42848579813729
 30
0.0
 11
-39.06612426020391
 21
30.42848579813729
 31
0.0
  0
LINE
  5
825
330
1F
100
AcDbEntity
  8
0
  6
SLD-Continua
 62
     7
370
    25
100
AcDbLine
 10
-38.7661242602039
 20
29.72848580243728
 30
0.0
 11
-38.7661242602039
 21
30.42848579813729
 31
0.0
  0
LINE
  5
826
330
1F
100
AcDbEntity
  8
0
  6
SLD-Continua
 62
     7
370
    25
100
AcDbLine
 10
-40.01999257640388
 20
29.72848580243728
 30
0.0
 11
-38.7661242602039
 21
29.72848580243728
 31
0.0
  0
LINE
  5
827
330
1F
100
AcDbEntity
  8
0
  6
SLD-Continua
 62
     7
370
    25
100
AcDbLine
 10
-40.01999257640388
 20
29.72848580243728
 30
0.0
 11
-40.01999257640388
 21
29.42848579833729
 31
0.0
  0
LINE
  5
828
330
1F
100
AcDbEntity
  8
0
  6
SLD-Continua
 62
     7
370
    25
100
AcDbLine
 10
-41.28205871360389
 20
29.42848526303728
 30
0.0
 11
-40.01999257640388
 21
29.42848579833729
 31
0.0
  0
LINE
  5
829
330
1F
100
AcDbEntity
  8
0
  6
SLD-Continua
 62
     7
370
    25
100
AcDbLine
 10
-41.28205871360389
 20
29.42848526303728
 30
0.0
 11
-41.28205871360389
 21
29.72848527153728
 31
0.0
  0
LINE
  5
82A
330
1F
100
AcDbEntity
  8
0
  6
SLD-Continua
 62
     7
370
    25
100
AcDbLine
 10
-41.28205871360389
 20
29.72848527153728
 30
0.0
 11
-42.13519278870388
 21
29.72848527153728
 31
0.0
  0
LINE
  5
82B
330
1F
100
AcDbEntity
  8
0
  6
SLD-Continua
 62
     7
370
    25
100
AcDbLine
 10
-42.13519278870388
 20
29.72848527153728
 30
0.0
 11
-42.13519278870388
 21
29.42848527153728
 31
0.0
  0
LINE
  5
82C
330
1F
100
AcDbEntity
  8
0
  6
SLD-Continua
 62
     7
370
    25
100
AcDbLine
 10
-42.13519278870388
 20
29.42848527153728
 30
0.0
 11
-43.03019278850389
 21
29.42848527153728
 31
0.0
  0
LINE
  5
82D
330
1F
100
AcDbEntity
  8
0
  6
SLD-Continua
 62
     7
370
    25
100
AcDbLine
 10
-43.03019278850389
 20
29.42848527153728
 30
0.0
 11
-43.03019278850389
 21
29.72848197773728
 31
0.0
  0
LINE
  5
82E
330
1F
100
AcDbEntity
  8
0
  6
SLD-Continua
 62
     7
370
    25
100
AcDbLine
 10
-43.03019278850389
 20
29.72848197773728
 30
0.0
 11
-43.30815791550389
 21
29.72848197773728
 31
0.0
  0
LINE
  5
82F
330
1F
100
AcDbEntity
  8
0
  6
SLD-Continua
 62
     7
370
    25
100
AcDbLine
 10
-43.30815791550389
 20
29.72848197773728
 30
0.0
 11
-43.30815791550389
 21
30.10344708003728
 31
0.0
  0
LINE
  5
830
330
1F
100
AcDbEntity
  8
0
  6
SLD-Continua
 62
     7
370
    25
100
AcDbLine
 10
-43.30815791550389
 20
30.10344708003728
 30
0.0
 11
-43.05815791560389
 21
30.10344708003728
 31
0.0
  0
LINE
  5
831
330
1F
100
AcDbEntity
  8
0
  6
SLD-Continua
 62
     7
370
    25
100
AcDbLine
 10
-43.05815791560389
 20
30.40348197763729
 30
0.0
 11
-43.05815791560389
 21
30.10344708003728
 31
0.0
  0
LINE
  5
832
330
1F
100
AcDbEntity
  8
0
  6
SLD-Continua
 62
     7
370
    25
100
AcDbLine
 10
-43.30815791550389
 20
30.40348197763729
 30
0.0
 11
-43.05815791560389
 21
30.40348197763729
 31
0.0
  0
LINE
  5
833
330
1F
100
AcDbEntity
  8
0
  6
SLD-Continua
 62
     7
370
    25
100
AcDbLine
 10
-43.30815791550389
 20
30.50098197763728
 30
0.0
 11
-43.30815791550389
 21
30.40348197763729
 31
0.0
  0
LINE
  5
834
330
1F
100
AcDbEntity
  8
0
  6
SLD-Continua
 62
     7
370
    25
100
AcDbLine
 10
-43.60815791540389
 20
30.50098197763728
 30
0.0
 11
-43.30815791550389
 21
30.50098197763728
 31
0.0
  0
LINE
  5
835
330
1F
100
AcDbEntity
  8
0
  6
SLD-Continua
 62
     7
370
    25
100
AcDbLine
 10
-43.60815791540389
 20
30.50098197763728
 30
0.0
 11
-43.60815791540389
 21
30.40348197763729
 31
0.0
  0
LINE
  5
836
330
1F
100
AcDbEntity
  8
0
  6
SLD-Continua
 62
     7
370
    25
100
AcDbLine
 10
-43.60815791540389
 20
30.40348197763729
 30
0.0
 11
-43.85819979260388
 21
30.40348197763729
 31
0.0
  0
LINE
  5
837
330
1F
100
AcDbEntity
  8
0
  6
SLD-Continua
 62
     7
370
    25
100
AcDbLine
 10
-43.85819979260388
 20
30.40348197763729
 30
0.0
 11
-43.85819979260388
 21
30.10344708003728
 31
0.0
  0
LINE
  5
838
330
1F
100
AcDbEntity
  8
0
  6
SLD-Continua
 62
     7
370
    25
100
AcDbLine
 10
-43.60815791540389
 20
30.10344708003728
 30
0.0
 11
-43.85819979260388
 21
30.10344708003728
 31
0.0
  0
LINE
  5
839
330
1F
100
AcDbEntity
  8
0
  6
SLD-Continua
 62
     7
370
    25
100
AcDbLine
 10
-43.60815791540389
 20
30.10344708003728
 30
0.0
 11
-43.60815791540389
 21
29.72848197773728
 31
0.0
  0
LINE
  5
83A
330
1F
100
AcDbEntity
  8
0
  6
SLD-Continua
 62
     7
370
    25
100
AcDbLine
 10
-43.60815791540389
 20
29.72848197773728
 30
0.0
 11
-43.88612304240391
 21
29.72848197773728
 31
0.0
  0
LINE
  5
83B
330
1F
100
AcDbEntity
  8
0
  6
SLD-Continua
 62
     7
370
    25
100
AcDbLine
 10
-43.88612304240391
 20
29.72848197773728
 30
0.0
 11
-43.88612304240391
 21
29.42848197783728
 31
0.0
  0
LINE
  5
83C
330
1F
100
AcDbEntity
  8
0
  6
SLD-Continua
 62
     7
370
    25
100
AcDbLine
 10
-43.88612304240391
 20
29.42848197783728
 30
0.0
 11
-44.7811230422039
 21
29.42848197783728
 31
0.0
  0
LINE
  5
83D
330
1F
100
AcDbEntity
  8
0
  6
SLD-Continua
 62
     7
370
    25
100
AcDbLine
 10
-44.7811230422039
 20
29.42848197783728
 30
0.0
 11
-44.7811230422039
 21
29.72847427643728
 31
0.0
  0
LINE
  5
83E
330
1F
100
AcDbEntity
  8
0
  6
SLD-Continua
 62
     7
370
    25
100
AcDbLine
 10
-44.7811230422039
 20
29.72847427643728
 30
0.0
 11
-45.63612304200389
 21
29.72847427643728
 31
0.0
  0
LINE
  5
83F
330
1F
100
AcDbEntity
  8
0
  6
SLD-Continua
 62
     7
370
    25
100
AcDbLine
 10
-45.63612304200389
 20
29.72847427643728
 30
0.0
 11
-45.63612304200389
 21
29.42847427653728
 31
0.0
  0
LINE
  5
840
330
1F
100
AcDbEntity
  8
0
  6
SLD-Continua
 62
     7
370
    25
100
AcDbLine
 10
-46.89612395600391
 20
29.42847427653728
 30
0.0
 11
-45.63612304200389
 21
29.42847427653728
 31
0.0
  0
LINE
  5
841
330
1F
100
AcDbEntity
  8
0
  6
SLD-Continua
 62
     7
370
    25
100
AcDbLine
 10
-46.89612395600391
 20
29.42847427653728
 30
0.0
 11
-46.89612395600391
 21
29.72847543673728
 31
0.0
  0
LINE
  5
842
330
1F
100
AcDbEntity
  8
0
  6
SLD-Continua
 62
     7
370
    25
100
AcDbLine
 10
-48.1961239560039
 20
29.42847543673728
 30
0.0
 11
-48.1961239560039
 21
29.72847543673728
 31
0.0
  0
LINE
  5
843
330
1F
100
AcDbEntity
  8
0
  6
SLD-Continua
 62
     7
370
    25
100
AcDbLine
 10
-48.1961239560039
 20
29.42847543673728
 30
0.0
 11
-50.2661237077039
 21
29.42847543673728
 31
0.0
  0
LINE
  5
844
330
1F
100
AcDbEntity
  8
0
  6
SLD-Continua
 62
     7
370
    25
100
AcDbLine
 10
-50.2661237077039
 20
29.42847543673728
 30
0.0
 11
-50.2661237077039
 21
44.42849615673728
 31
0.0
  0
LINE
  5
845
330
1F
100
AcDbEntity
  8
0
  6
SLD-Continua
 62
     7
370
    25
100
AcDbLine
 10
-50.2661237077039
 20
44.42849615673728
 30
0.0
 11
-48.1961239524039
 21
44.42849615673728
 31
0.0
  0
LINE
  5
846
330
1F
100
AcDbEntity
  8
0
  6
SLD-Continua
 62
     7
370
    25
100
AcDbLine
 10
-48.1961239524039
 20
44.42849615673728
 30
0.0
 11
-48.1961239524039
 21
44.12849615673727
 31
0.0
  0
LINE
  5
847
330
1F
100
AcDbEntity
  8
0
  6
SLD-Continua
 62
     7
370
    25
100
AcDbLine
 10
-46.8961239524039
 20
44.42849731693727
 30
0.0
 11
-46.8961239524039
 21
44.12849615673727
 31
0.0
  0
LINE
  5
848
330
1F
100
AcDbEntity
  8
0
  6
SLD-Continua
 62
     7
370
    25
100
AcDbLine
 10
-46.8961239524039
 20
44.42849731693727
 30
0.0
 11
-45.6361230385039
 21
44.42849731693727
 31
0.0
  0
LINE
  5
849
330
1F
100
AcDbEntity
  8
0
  6
SLD-Continua
 62
     7
370
    25
100
AcDbLine
 10
-45.6361230385039
 20
44.12849731703728
 30
0.0
 11
-45.6361230385039
 21
44.42849731693727
 31
0.0
  0
LINE
  5
84A
330
1F
100
AcDbEntity
  8
0
  6
SLD-Continua
 62
     7
370
    25
100
AcDbLine
 10
-44.78112303860391
 20
44.12849731703728
 30
0.0
 11
-45.6361230385039
 21
44.12849731703728
 31
0.0
  0
LINE
  5
84B
330
1F
100
AcDbEntity
  8
0
  6
SLD-Continua
 62
     7
370
    25
100
AcDbLine
 10
-44.78112303860391
 20
44.42848961563728
 30
0.0
 11
-44.78112303860391
 21
44.12849731703728
 31
0.0
  0
LINE
  5
84C
330
1F
100
AcDbEntity
  8
0
  6
SLD-Continua
 62
     7
370
    25
100
AcDbLine
 10
-43.8861230388039
 20
44.42848961563728
 30
0.0
 11
-44.78112303860391
 21
44.42848961563728
 31
0.0
  0
LINE
  5
84D
330
1F
100
AcDbEntity
  8
0
  6
SLD-Continua
 62
     7
370
    25
100
AcDbLine
 10
-43.8861230388039
 20
44.12848961573728
 30
0.0
 11
-43.8861230388039
 21
44.42848961563728
 31
0.0
  0
LINE
  5
84E
330
1F
100
AcDbEntity
  8
0
  6
SLD-Continua
 62
     7
370
    25
100
AcDbLine
 10
-43.60815791190389
 20
44.12848961573728
 30
0.0
 11
-43.8861230388039
 21
44.12848961573728
 31
0.0
  0
LINE
  5
84F
330
1F
100
AcDbEntity
  8
0
  6
SLD-Continua
 62
     7
370
    25
100
AcDbLine
 10
-43.60815791190389
 20
43.75352451343728
 30
0.0
 11
-43.60815791190389
 21
44.12848961573728
 31
0.0
  0
LINE
  5
850
330
1F
100
AcDbEntity
  8
0
  6
SLD-Continua
 62
     7
370
    25
100
AcDbLine
 10
-43.60815791190389
 20
43.75352451343728
 30
0.0
 11
-43.85819978900388
 21
43.75352451343728
 31
0.0
  0
LINE
  5
851
330
1F
100
AcDbEntity
  8
0
  6
SLD-Continua
 62
     7
370
    25
100
AcDbLine
 10
-43.85819978900388
 20
43.45348961583725
 30
0.0
 11
-43.85819978900388
 21
43.75352451343728
 31
0.0
  0
LINE
  5
852
330
1F
100
AcDbEntity
  8
0
  6
SLD-Continua
 62
     7
370
    25
100
AcDbLine
 10
-43.60815791190389
 20
43.45348961583725
 30
0.0
 11
-43.85819978900388
 21
43.45348961583725
 31
0.0
  0
LINE
  5
853
330
1F
100
AcDbEntity
  8
0
  6
SLD-Continua
 62
     7
370
    25
100
AcDbLine
 10
-43.60815791190389
 20
43.35598961583728
 30
0.0
 11
-43.60815791190389
 21
43.45348961583725
 31
0.0
  0
LINE
  5
854
330
1F
100
AcDbEntity
  8
0
  6
SLD-Continua
 62
     7
370
    25
100
AcDbLine
 10
-45.91612398390389
 20
35.67848579673729
 30
0.0
 11
-45.91612398390389
 21
38.17848579673729
 31
0.0
  0
LINE
  5
855
330
1F
100
AcDbEntity
  8
0
  6
SLD-Continua
 62
     7
370
    25
100
AcDbLine
 10
-45.91612398390389
 20
38.17848579673729
 30
0.0
 11
-46.1961239839039
 21
38.17848579673729
 31
0.0
  0
LINE
  5
856
330
1F
100
AcDbEntity
  8
0
  6
SLD-Continua
 62
     7
370
    25
100
AcDbLine
 10
-46.1961239839039
 20
38.17848579673729
 30
0.0
 11
-46.1961239839039
 21
35.67848579673729
 31
0.0
  0
LINE
  5
857
330
1F
100
AcDbEntity
  8
0
  6
SLD-Continua
 62
     7
370
    25
100
AcDbLine
 10
-46.1961239839039
 20
35.67848579673729
 30
0.0
 11
-45.91612398390389
 21
35.67848579673729
 31
0.0
  0
ARC
  5
858
330
1F
100
AcDbEntity
  8
0
  6
SLD-Continua
 62
     7
370
    25
100
AcDbCircle
 10
-49.6161237077039
 20
42.09847543673728
 30
0.0
 40
0.0499999999999972
100
AcDbArc
 50
90.0
 51
180.0
  0
LINE
  5
859
330
1F
100
AcDbEntity
  8
0
  6
SLD-Continua
 62
     7
370
    25
100
AcDbLine
 10
-49.66612370770389
 20
41.89847543673727
 30
0.0
 11
-49.66612370770389
 21
42.09847543673728
 31
0.0
  0
ARC
  5
85A
330
1F
100
AcDbEntity
  8
0
  6
SLD-Continua
 62
     7
370
    25
100
AcDbCircle
 10
-49.6161237077039
 20
41.89847543673727
 30
0.0
 40
0.0500000000000043
100
AcDbArc
 50
180.0
 51
270.0
  0
LINE
  5
85B
330
1F
100
AcDbEntity
  8
0
  6
SLD-Continua
 62
     7
370
    25
100
AcDbLine
 10
-49.3661237077039
 20
41.84847543673728
 30
0.0
 11
-49.6161237077039
 21
41.84847543673728
 31
0.0
  0
LINE
  5
85C
330
1F
100
AcDbEntity
  8
0
  6
SLD-Continua
 62
     7
370
    25
100
AcDbLine
 10
-49.3661237077039
 20
42.14847543673728
 30
0.0
 11
-49.3661237077039
 21
41.84847543673728
 31
0.0
  0
LINE
  5
85D
330
1F
100
AcDbEntity
  8
0
  6
SLD-Continua
 62
     7
370
    25
100
AcDbLine
 10
-49.6161237077039
 20
42.14847543673728
 30
0.0
 11
-49.3661237077039
 21
42.14847543673728
 31
0.0
  0
CIRCLE
  5
85E
330
1F
100
AcDbEntity
  8
0
  6
SLD-Continua
 62
     7
370
    25
100
AcDbCircle
 10
-49.5161237077039
 20
30.59847543673728
 30
0.0
 40
0.4099999999999895
  0
LINE
  5
85F
330
1F
100
AcDbEntity
  8
0
  6
SLD-Continua
 62
     7
370
    25
100
AcDbLine
 10
-46.89612395600391
 20
29.72847543673728
 30
0.0
 11
-48.1961239560039
 21
29.72847543673728
 31
0.0
  0
LINE
  5
860
330
1F
100
AcDbEntity
  8
0
  6
SLD-Continua
 62
     7
370
    25
100
AcDbLine
 10
-41.28205871000388
 20
44.12848632193727
 30
0.0
 11
-42.13519278520389
 21
44.12848632193727
 31
0.0
  0
LINE
  5
861
330
1F
100
AcDbEntity
  8
0
  6
SLD-Continua
 62
     7
370
    25
100
AcDbLine
 10
-42.13519278520389
 20
44.12848632193727
 30
0.0
 11
-42.13519278520389
 21
44.42848632193729
 31
0.0
  0
LINE
  5
862
330
1F
100
AcDbEntity
  8
0
  6
SLD-Continua
 62
     7
370
    25
100
AcDbLine
 10
-46.8961239524039
 20
44.12849615673727
 30
0.0
 11
-48.1961239524039
 21
44.12849615673727
 31
0.0
  0
ENDSEC
  0
SECTION
  2
OBJECTS
  0
DICTIONARY
  5
C
330
0
100
AcDbDictionary
281
     1
  3
ACAD_CIP_PREVIOUS_PRODUCT_INFO
350
118
  3
ACAD_COLOR
350
10D
  3
ACAD_DETAILVIEWSTYLE
350
114
  3
ACAD_GROUP
350
D
  3
ACAD_LAYOUT
350
1A
  3
ACAD_MATERIAL
350
DB
  3
ACAD_MLEADERSTYLE
350
110
  3
ACAD_MLINESTYLE
350
17
  3
ACAD_PLOTSETTINGS
350
19
  3
ACAD_PLOTSTYLENAME
350
E
  3
ACAD_SCALELIST
350
47
  3
ACAD_SECTIONVIEWSTYLE
350
112
  3
ACAD_TABLESTYLE
350
10E
  3
ACAD_VISUALSTYLE
350
F4
  3
ACDB_RECOMPOSE_DATA
350
87B
  3
AcDbVariableDictionary
350
11A
  0
DICTIONARY
  5
4C2
330
10
100
AcDbDictionary
280
     1
281
     1
  3
ADSK_XREC_LAYER_RECONCILED
360
4C3
  0
XRECORD
  5
118
102
{ACAD_REACTORS
330
C
102
}
330
C
100
AcDbXrecord
280
     1
300
ACD
300
2021
300

  0
DICTIONARY
  5
10D
102
{ACAD_REACTORS
330
C
102
}
330
C
100
AcDbDictionary
281
     1
  0
DICTIONARY
  5
114
102
{ACAD_REACTORS
330
C
102
}
330
C
100
AcDbDictionary
281
     1
  3
Metric50
350
115
  0
DICTIONARY
  5
D
102
{ACAD_REACTORS
330
C
102
}
330
C
100
AcDbDictionary
281
     1
  0
DICTIONARY
  5
1A
102
{ACAD_REACTORS
330
C
102
}
330
C
100
AcDbDictionary
281
     1
  3
Layout1
350
1E
  3
Layout2
350
26
  3
Model
350
22
  0
DICTIONARY
  5
DB
102
{ACAD_REACTORS
330
C
102
}
330
C
100
AcDbDictionary
281
     1
  3
ByBlock
350
E4
  3
ByLayer
350
DC
  3
Global
350
EC
  0
DICTIONARY
  5
110
102
{ACAD_REACTORS
330
C
102
}
330
C
100
AcDbDictionary
281
     1
  3
Standard
350
111
  0
DICTIONARY
  5
17
102
{ACAD_REACTORS
330
C
102
}
330
C
100
AcDbDictionary
281
     1
  3
Standard
350
18
  0
DICTIONARY
  5
19
102
{ACAD_REACTORS
330
C
102
}
330
C
100
AcDbDictionary
281
     1
  0
ACDBDICTIONARYWDFLT
  5
E
102
{ACAD_REACTORS
330
C
102
}
330
C
100
AcDbDictionary
281
     1
  3
Normal
350
F
100
AcDbDictionaryWithDefault
340
F
  0
DICTIONARY
  5
47
102
{ACAD_REACTORS
330
C
102
}
330
C
100
AcDbDictionary
281
     1
  3
A0
350
48
  3
A1
350
49
  3
A2
350
4A
  3
A3
350
4B
  3
A4
350
4C
  3
A5
350
4D
  3
A6
350
4E
  3
A7
350
4F
  3
A8
350
50
  3
A9
350
51
  3
B0
350
52
  3
B1
350
53
  3
B2
350
54
  3
B3
350
55
  3
B4
350
56
  3
B5
350
57
  3
B6
350
58
  3
B7
350
59
  3
B8
350
5A
  3
B9
350
5B
  3
C0
350
5C
  3
C1
350
5D
  3
C2
350
5E
  3
C3
350
5F
  3
C4
350
60
  3
C5
350
61
  3
C6
350
62
  3
C7
350
63
  3
C8
350
64
  3
C9
350
65
  3
D0
350
66
  3
D1
350
67
  3
D2
350
68
  0
DICTIONARY
  5
112
102
{ACAD_REACTORS
330
C
102
}
330
C
100
AcDbDictionary
281
     1
  3
Metric50
350
113
  0
DICTIONARY
  5
10E
102
{ACAD_REACTORS
330
C
102
}
330
C
100
AcDbDictionary
281
     1
  3
Standard
350
10F
  0
DICTIONARY
  5
F4
102
{ACAD_REACTORS
330
C
102
}
330
C
100
AcDbDictionary
281
     1
  3
2dWireframe
350
FA
  3
Basic
350
F9
  3
Brighten
350
100
  3
ColorChange
350
104
  3
Conceptual
350
FD
  3
Dim
350
FF
  3
EdgeColorOff
350
10C
  3
Facepattern
350
103
  3
Flat
350
F5
  3
FlatWithEdges
350
F6
  3
Gouraud
350
F7
  3
GouraudWithEdges
350
F8
  3
Hidden
350
FC
  3
JitterOff
350
10A
  3
Linepattern
350
102
  3
OverhangOff
350
10B
  3
Realistic
350
FE
  3
Shaded
350
109
  3
Shaded with edges
350
108
  3
Shades of Gray
350
105
  3
Sketchy
350
106
  3
Thicken
350
101
  3
Wireframe
350
FB
  3
X-Ray
350
107
  0
XRECORD
  5
87B
102
{ACAD_REACTORS
330
C
102
}
330
C
100
AcDbXrecord
280
     1
 90
        1
330
10F
  0
DICTIONARY
  5
11A
102
{ACAD_REACTORS
330
C
102
}
330
C
100
AcDbDictionary
281
     1
  3
CANNOSCALE
350
120
  3
CMLEADERSTYLE
350
11C
  3
CTABLESTYLE
350
11B
  3
CVIEWDETAILSTYLE
350
11D
  3
CVIEWSECTIONSTYLE
350
11E
  3
LAYEREVAL
350
122
  3
LAYERNOTIFY
350
123
  3
LIGHTINGUNITS
350
121
  3
MSLTSCALE
350
11F
  0
XRECORD
  5
4C3
102
{ACAD_REACTORS
330
4C2
102
}
330
4C2
100
AcDbXrecord
280
     1
290
     1
  0
ACDBDETAILVIEWSTYLE
  5
115
102
{ACAD_REACTORS
330
114
102
}
330
114
100
AcDbModelDocViewStyle
 70
     0
  3
Metric50
290
     0
300
Metric50
 90
        0
100
AcDbDetailViewStyle
 70
     0
 71
     0
 90
        3
 71
     1
340
11
 62
   256
 40
5.0
340
0
 62
   256
 40
5.0
300

 40
0.0
280
     1
 71
     2
340
16
 90
       25
 62
   256
 71
     3
340
11
 62
   256
 40
5.0
 90
        0
 40
15.0
 90
        1
300
%<\AcVar ViewDetailId>% (%<\AcVar ViewScale \f "%sn">%)
 71
     4
340
16
 90
       25
 62
   256
340
16
 90
       25
 62
   256
280
     0
  0
LAYOUT
  5
1E
102
{ACAD_REACTORS
330
1A
102
}
330
1A
100
AcDbPlotSettings
  1

  2
none_device
  4

  6

 40
0.0
 41
0.0
 42
0.0
 43
0.0
 44
0.0
 45
0.0
 46
0.0
 47
0.0
 48
0.0
 49
0.0
140
0.0
141
0.0
142
1.0
143
1.0
 70
   688
 72
     1
 73
     0
 74
     5
  7

 75
    16
147
1.0
 76
     0
 77
     2
 78
   300
148
0.0
149
0.0
100
AcDbLayout
  1
Layout1
 70
     1
 71
     1
 10
0.0
 20
0.0
 11
420.0
 21
297.0
 12
0.0
 22
0.0
 32
0.0
 14
1.000000000000000E+20
 24
1.000000000000000E+20
 34
1.000000000000000E+20
 15
-1.000000000000000E+20
 25
-1.000000000000000E+20
 35
-1.000000000000000E+20
146
0.0
 13
0.0
 23
0.0
 33
0.0
 16
1.0
 26
0.0
 36
0.0
 17
0.0
 27
1.0
 37
0.0
 76
     0
330
1B
  0
LAYOUT
  5
26
102
{ACAD_REACTORS
330
1A
102
}
330
1A
100
AcDbPlotSettings
  1

  2
none_device
  4

  6

 40
0.0
 41
0.0
 42
0.0
 43
0.0
 44
0.0
 45
0.0
 46
0.0
 47
0.0
 48
0.0
 49
0.0
140
0.0
141
0.0
142
1.0
143
1.0
 70
   688
 72
     1
 73
     0
 74
     5
  7

 75
    16
147
1.0
 76
     0
 77
     2
 78
   300
148
0.0
149
0.0
100
AcDbLayout
  1
Layout2
 70
     1
 71
     2
 10
0.0
 20
0.0
 11
0.0
 21
0.0
 12
0.0
 22
0.0
 32
0.0
 14
0.0
 24
0.0
 34
0.0
 15
0.0
 25
0.0
 35
0.0
146
0.0
 13
0.0
 23
0.0
 33
0.0
 16
1.0
 26
0.0
 36
0.0
 17
0.0
 27
1.0
 37
0.0
 76
     0
330
23
  0
LAYOUT
  5
22
102
{ACAD_REACTORS
330
1A
102
}
330
1A
100
AcDbPlotSettings
  1

  2
none_device
  4
ANSI_A_(11.00_x_8.50_Inches)
  6

 40
6.349999999999997
 41
19.05
 42
6.350005079999997
 43
19.05000254
 44
279.4
 45
215.9
 46
1141.5622604574
 47
-370.4854677733
 48
0.0
 49
0.0
140
0.0
141
0.0
142
1.0889994054
143
1.0
 70
  1696
 72
     0
 73
     0
 74
     0
  7

 75
     0
147
0.0179189148
 76
     0
 77
     2
 78
   300
148
-1300.4909072572
149
0.0
100
AcDbLayout
  1
Model
 70
     1
 71
     0
 10
0.0
 20
0.0
 11
420.0
 21
297.0
 12
0.0
 22
0.0
 32
0.0
 14
-41.449422245
 24
12.7449962294
 34
0.0
 15
-31.4494167854
 25
20.4708933254
 35
0.0
146
0.0
 13
0.0
 23
0.0
 33
0.0
 16
1.0
 26
0.0
 36
0.0
 17
0.0
 27
1.0
 37
0.0
 76
     0
330
1F
331
29
  0
MATERIAL
  5
E4
102
{ACAD_XDICTIONARY
360
E5
102
}
102
{ACAD_REACTORS
330
DB
102
}
330
DB
100
AcDbMaterial
  1
ByBlock
 72
     0
 43
0.0008202099737533
 43
0.0
 43
0.0
 43
0.0
 43
0.0
 43
0.0008202099737533
 43
0.0
 43
0.0
 43
0.0
 43
0.0
 43
1.0
 43
0.0
 43
0.0
 43
0.0
 43
0.0
 43
1.0
 77
     0
 47
0.0008202099737533
 47
0.0
 47
0.0
 47
0.0
 47
0.0
 47
0.0008202099737533
 47
0.0
 47
0.0
 47
0.0
 47
0.0
 47
1.0
 47
0.0
 47
0.0
 47
0.0
 47
0.0
 47
1.0
171
     0
 49
0.0008202099737533
 49
0.0
 49
0.0
 49
0.0
 49
0.0
 49
0.0008202099737533
 49
0.0
 49
0.0
 49
0.0
 49
0.0
 49
1.0
 49
0.0
 49
0.0
 49
0.0
 49
0.0
 49
1.0
175
     0
142
0.0008202099737533
142
0.0
142
0.0
142
0.0
142
0.0
142
0.0008202099737533
142
0.0
142
0.0
142
0.0
142
0.0
142
1.0
142
0.0
142
0.0
142
0.0
142
0.0
142
1.0
179
     0
144
0.0008202099737533
144
0.0
144
0.0
144
0.0
144
0.0
144
0.0008202099737533
144
0.0
144
0.0
144
0.0
144
0.0
144
1.0
144
0.0
144
0.0
144
0.0
144
0.0
144
1.0
147
0.0008202099737533
147
0.0
147
0.0
147
0.0
147
0.0
147
0.0008202099737533
147
0.0
147
0.0
147
0.0
147
0.0
147
1.0
147
0.0
147
0.0
147
0.0
147
0.0
147
1.0
  0
MATERIAL
  5
DC
102
{ACAD_XDICTIONARY
360
DD
102
}
102
{ACAD_REACTORS
330
DB
102
}
330
DB
100
AcDbMaterial
  1
ByLayer
 72
     0
 43
0.0008202099737533
 43
0.0
 43
0.0
 43
0.0
 43
0.0
 43
0.0008202099737533
 43
0.0
 43
0.0
 43
0.0
 43
0.0
 43
1.0
 43
0.0
 43
0.0
 43
0.0
 43
0.0
 43
1.0
 77
     0
 47
0.0008202099737533
 47
0.0
 47
0.0
 47
0.0
 47
0.0
 47
0.0008202099737533
 47
0.0
 47
0.0
 47
0.0
 47
0.0
 47
1.0
 47
0.0
 47
0.0
 47
0.0
 47
0.0
 47
1.0
171
     0
 49
0.0008202099737533
 49
0.0
 49
0.0
 49
0.0
 49
0.0
 49
0.0008202099737533
 49
0.0
 49
0.0
 49
0.0
 49
0.0
 49
1.0
 49
0.0
 49
0.0
 49
0.0
 49
0.0
 49
1.0
175
     0
142
0.0008202099737533
142
0.0
142
0.0
142
0.0
142
0.0
142
0.0008202099737533
142
0.0
142
0.0
142
0.0
142
0.0
142
1.0
142
0.0
142
0.0
142
0.0
142
0.0
142
1.0
179
     0
144
0.0008202099737533
144
0.0
144
0.0
144
0.0
144
0.0
144
0.0008202099737533
144
0.0
144
0.0
144
0.0
144
0.0
144
1.0
144
0.0
144
0.0
144
0.0
144
0.0
144
1.0
147
0.0008202099737533
147
0.0
147
0.0
147
0.0
147
0.0
147
0.0008202099737533
147
0.0
147
0.0
147
0.0
147
0.0
147
1.0
147
0.0
147
0.0
147
0.0
147
0.0
147
1.0
  0
MATERIAL
  5
EC
102
{ACAD_XDICTIONARY
360
ED
102
}
102
{ACAD_REACTORS
330
DB
102
}
330
DB
100
AcDbMaterial
  1
Global
 72
     0
 43
0.0008202099737533
 43
0.0
 43
0.0
 43
0.0
 43
0.0
 43
0.0008202099737533
 43
0.0
 43
0.0
 43
0.0
 43
0.0
 43
1.0
 43
0.0
 43
0.0
 43
0.0
 43
0.0
 43
1.0
 77
     0
 47
0.0008202099737533
 47
0.0
 47
0.0
 47
0.0
 47
0.0
 47
0.0008202099737533
 47
0.0
 47
0.0
 47
0.0
 47
0.0
 47
1.0
 47
0.0
 47
0.0
 47
0.0
 47
0.0
 47
1.0
171
     0
 49
0.0008202099737533
 49
0.0
 49
0.0
 49
0.0
 49
0.0
 49
0.0008202099737533
 49
0.0
 49
0.0
 49
0.0
 49
0.0
 49
1.0
 49
0.0
 49
0.0
 49
0.0
 49
0.0
 49
1.0
175
     0
142
0.0008202099737533
142
0.0
142
0.0
142
0.0
142
0.0
142
0.0008202099737533
142
0.0
142
0.0
142
0.0
142
0.0
142
1.0
142
0.0
142
0.0
142
0.0
142
0.0
142
1.0
179
     0
144
0.0008202099737533
144
0.0
144
0.0
144
0.0
144
0.0
144
0.0008202099737533
144
0.0
144
0.0
144
0.0
144
0.0
144
1.0
144
0.0
144
0.0
144
0.0
144
0.0
144
1.0
147
0.0008202099737533
147
0.0
147
0.0
147
0.0
147
0.0
147
0.0008202099737533
147
0.0
147
0.0
147
0.0
147
0.0
147
1.0
147
0.0
147
0.0
147
0.0
147
0.0
147
1.0
  0
MLEADERSTYLE
  5
111
102
{ACAD_REACTORS
330
110
102
}
330
110
100
AcDbMLeaderStyle
179
     2
170
     2
171
     1
172
     0
 90
        2
 40
0.0
 41
0.0
173
     1
 91
-1056964608
340
14
 92
       -2
290
     1
 42
2.0
291
     1
 43
0.36
  3
Standard
 44
4.0
300

342
11
174
     1
178
     6
175
     1
176
     0
 93
-1056964608
 45
4.0
292
     0
297
     0
 46
4.0
 94
-1056964608
 47
1.0
 49
1.0
140
1.0
293
     1
141
0.0
294
     1
177
     0
142
1.0
295
     0
296
     0
143
0.125
271
     0
272
     9
273
     9
298
     0
  0
MLINESTYLE
  5
18
102
{ACAD_REACTORS
330
17
102
}
330
17
100
AcDbMlineStyle
  2
STANDARD
 70
     0
  3

 62
   256
 51
90.0
 52
90.0
 71
     2
 49
0.5
 62
   256
  6
BYLAYER
 49
-0.5
 62
   256
  6
BYLAYER
  0
ACDBPLACEHOLDER
  5
F
102
{ACAD_REACTORS
330
E
102
}
330
E
  0
SCALE
  5
48
102
{ACAD_REACTORS
330
47
102
}
330
47
100
AcDbScale
 70
     0
300
1:1
140
1.0
141
1.0
290
     1
  0
SCALE
  5
49
102
{ACAD_REACTORS
330
47
102
}
330
47
100
AcDbScale
 70
     0
300
1:2
140
1.0
141
2.0
290
     0
  0
SCALE
  5
4A
102
{ACAD_REACTORS
330
47
102
}
330
47
100
AcDbScale
 70
     0
300
1:4
140
1.0
141
4.0
290
     0
  0
SCALE
  5
4B
102
{ACAD_REACTORS
330
47
102
}
330
47
100
AcDbScale
 70
     0
300
1:5
140
1.0
141
5.0
290
     0
  0
SCALE
  5
4C
102
{ACAD_REACTORS
330
47
102
}
330
47
100
AcDbScale
 70
     0
300
1:8
140
1.0
141
8.0
290
     0
  0
SCALE
  5
4D
102
{ACAD_REACTORS
330
47
102
}
330
47
100
AcDbScale
 70
     0
300
1:10
140
1.0
141
10.0
290
     0
  0
SCALE
  5
4E
102
{ACAD_REACTORS
330
47
102
}
330
47
100
AcDbScale
 70
     0
300
1:16
140
1.0
141
16.0
290
     0
  0
SCALE
  5
4F
102
{ACAD_REACTORS
330
47
102
}
330
47
100
AcDbScale
 70
     0
300
1:20
140
1.0
141
20.0
290
     0
  0
SCALE
  5
50
102
{ACAD_REACTORS
330
47
102
}
330
47
100
AcDbScale
 70
     0
300
1:30
140
1.0
141
30.0
290
     0
  0
SCALE
  5
51
102
{ACAD_REACTORS
330
47
102
}
330
47
100
AcDbScale
 70
     0
300
1:40
140
1.0
141
40.0
290
     0
  0
SCALE
  5
52
102
{ACAD_REACTORS
330
47
102
}
330
47
100
AcDbScale
 70
     0
300
1:50
140
1.0
141
50.0
290
     0
  0
SCALE
  5
53
102
{ACAD_REACTORS
330
47
102
}
330
47
100
AcDbScale
 70
     0
300
1:100
140
1.0
141
100.0
290
     0
  0
SCALE
  5
54
102
{ACAD_REACTORS
330
47
102
}
330
47
100
AcDbScale
 70
     0
300
2:1
140
2.0
141
1.0
290
     0
  0
SCALE
  5
55
102
{ACAD_REACTORS
330
47
102
}
330
47
100
AcDbScale
 70
     0
300
4:1
140
4.0
141
1.0
290
     0
  0
SCALE
  5
56
102
{ACAD_REACTORS
330
47
102
}
330
47
100
AcDbScale
 70
     0
300
8:1
140
8.0
141
1.0
290
     0
  0
SCALE
  5
57
102
{ACAD_REACTORS
330
47
102
}
330
47
100
AcDbScale
 70
     0
300
10:1
140
10.0
141
1.0
290
     0
  0
SCALE
  5
58
102
{ACAD_REACTORS
330
47
102
}
330
47
100
AcDbScale
 70
     0
300
100:1
140
100.0
141
1.0
290
     0
  0
SCALE
  5
59
102
{ACAD_REACTORS
330
47
102
}
330
47
100
AcDbScale
 70
     0
300
1/128" = 1'-0"
140
0.0078125
141
12.0
290
     0
  0
SCALE
  5
5A
102
{ACAD_REACTORS
330
47
102
}
330
47
100
AcDbScale
 70
     0
300
1/64" = 1'-0"
140
0.015625
141
12.0
290
     0
  0
SCALE
  5
5B
102
{ACAD_REACTORS
330
47
102
}
330
47
100
AcDbScale
 70
     0
300
1/32" = 1'-0"
140
0.03125
141
12.0
290
     0
  0
SCALE
  5
5C
102
{ACAD_REACTORS
330
47
102
}
330
47
100
AcDbScale
 70
     0
300
1/16" = 1'-0"
140
0.0625
141
12.0
290
     0
  0
SCALE
  5
5D
102
{ACAD_REACTORS
330
47
102
}
330
47
100
AcDbScale
 70
     0
300
3/32" = 1'-0"
140
0.09375
141
12.0
290
     0
  0
SCALE
  5
5E
102
{ACAD_REACTORS
330
47
102
}
330
47
100
AcDbScale
 70
     0
300
1/8" = 1'-0"
140
0.125
141
12.0
290
     0
  0
SCALE
  5
5F
102
{ACAD_REACTORS
330
47
102
}
330
47
100
AcDbScale
 70
     0
300
3/16" = 1'-0"
140
0.1875
141
12.0
290
     0
  0
SCALE
  5
60
102
{ACAD_REACTORS
330
47
102
}
330
47
100
AcDbScale
 70
     0
300
1/4" = 1'-0"
140
0.25
141
12.0
290
     0
  0
SCALE
  5
61
102
{ACAD_REACTORS
330
47
102
}
330
47
100
AcDbScale
 70
     0
300
3/8" = 1'-0"
140
0.375
141
12.0
290
     0
  0
SCALE
  5
62
102
{ACAD_REACTORS
330
47
102
}
330
47
100
AcDbScale
 70
     0
300
1/2" = 1'-0"
140
0.5
141
12.0
290
     0
  0
SCALE
  5
63
102
{ACAD_REACTORS
330
47
102
}
330
47
100
AcDbScale
 70
     0
300
3/4" = 1'-0"
140
0.75
141
12.0
290
     0
  0
SCALE
  5
64
102
{ACAD_REACTORS
330
47
102
}
330
47
100
AcDbScale
 70
     0
300
1" = 1'-0"
140
1.0
141
12.0
290
     0
  0
SCALE
  5
65
102
{ACAD_REACTORS
330
47
102
}
330
47
100
AcDbScale
 70
     0
300
1-1/2" = 1'-0"
140
1.5
141
12.0
290
     0
  0
SCALE
  5
66
102
{ACAD_REACTORS
330
47
102
}
330
47
100
AcDbScale
 70
     0
300
3" = 1'-0"
140
3.0
141
12.0
290
     0
  0
SCALE
  5
67
102
{ACAD_REACTORS
330
47
102
}
330
47
100
AcDbScale
 70
     0
300
6" = 1'-0"
140
6.0
141
12.0
290
     0
  0
SCALE
  5
68
102
{ACAD_REACTORS
330
47
102
}
330
47
100
AcDbScale
 70
     0
300
1'-0" = 1'-0"
140
12.0
141
12.0
290
     0
  0
ACDBSECTIONVIEWSTYLE
  5
113
102
{ACAD_REACTORS
330
112
102
}
330
112
100
AcDbModelDocViewStyle
 70
     0
  3
Metric50
290
     0
300
Metric50
 90
        0
100
AcDbSectionViewStyle
 70
     0
 71
     0
 90
      102
 71
     1
340
11
 62
   256
 40
5.0
340
0
340
0
 62
   256
 40
5.0
300
I, O, Q, S, X, Z
 40
10.0
 90
        0
 40
2.5
 90
        0
 71
     2
340
16
 90
       25
 62
   256
340
16
 90
       50
 62
   256
 40
5.0
 40
2.5
 40
5.0
 71
     3
340
11
 62
   256
 40
5.0
 90
        0
 40
15.0
 90
        1
300
%<\AcVar ViewSectionStartId>%-%<\AcVar ViewSectionEndId>% (%<\AcVar ViewScale \f "%sn">%)
 71
     4
 62
   256
 62
   257
300
ANSI31
 40
1.0
 90
        0
290
     0
290
     0
 90
        6
 40
0.0
 40
1.570796326794896
 40
0.2617993877991494
 40
1.308996938995747
 40
-0.2617993877991494
 40
1.832595714594044
  0
TABLESTYLE
  5
10F
102
{ACAD_XDICTIONARY
360
866
102
}
102
{ACAD_REACTORS
330
10E
102
}
330
10E
100
AcDbTableStyle
280
     0
  3
Standard
 70
     0
 71
     0
 40
1.5
 41
1.5
280
     0
281
     0
  7
Standard
140
4.5
170
     2
 62
     0
 63
     7
283
     0
 90
      512
 91
        0
  1

274
    -2
284
     1
 64
     0
275
    -2
285
     1
 65
     0
276
    -2
286
     1
 66
     0
277
    -2
287
     1
 67
     0
278
    -2
288
     1
 68
     0
279
    -2
289
     1
 69
     0
  7
Standard
140
6.0
170
     5
 62
     0
 63
     7
283
     0
 90
      512
 91
        0
  1

274
    -2
284
     1
 64
     0
275
    -2
285
     1
 65
     0
276
    -2
286
     1
 66
     0
277
    -2
287
     1
 67
     0
278
    -2
288
     1
 68
     0
279
    -2
289
     1
 69
     0
  7
Standard
140
4.5
170
     5
 62
     0
 63
     7
283
     0
 90
      512
 91
        0
  1

274
    -2
284
     1
 64
     0
275
    -2
285
     1
 65
     0
276
    -2
286
     1
 66
     0
277
    -2
287
     1
 67
     0
278
    -2
288
     1
 68
     0
279
    -2
289
     1
 69
     0
  0
VISUALSTYLE
  5
FA
102
{ACAD_REACTORS
330
F4
102
}
330
F4
100
AcDbVisualStyle
  2
2dWireframe
 70
     4
177
     3
291
     0
 70
    58
 90
        0
176
     1
 90
        2
176
     1
 90
        0
176
     1
 90
        0
176
     1
 40
0.6
176
     1
 40
30.0
176
     1
 62
     7
420
 16777215
176
     1
 90
        1
176
     1
 90
        4
176
     1
 62
     7
176
     1
 62
   257
176
     1
 90
        1
176
     1
 90
        1
176
     1
 40
1.0
176
     1
 90
        0
176
     1
 62
   257
176
     1
 40
1.0
176
     1
 90
        1
176
     1
 90
        6
176
     1
 90
        2
176
     1
 62
     7
176
     1
 90
        5
176
     1
 90
        0
176
     1
 90
        0
176
     1
290
     0
176
     1
 90
        1
176
     1
 40
0.0
176
     1
 90
        0
176
     1
290
     1
176
     1
290
     1
176
     1
290
     0
176
     1
290
     0
176
     1
290
     0
176
     1
290
     0
176
     1
290
     0
176
     1
290
     0
176
     1
290
     0
176
     1
 90
       50
176
     1
 40
0.0
176
     1
 40
1.0
176
     1
 90
        0
176
     1
 62
    18
176
     1
 90
       50
176
     1
 90
        3
176
     1
 62
     5
420
      255
176
     1
290
     0
176
     1
 90
       50
176
     1
 90
       50
176
     1
 90
       50
176
     1
290
     0
176
     1
 90
       50
176
     1
 62
   256
176
     0
 40
1.0
176
     0
 90
        2
176
     1
  1
strokes_ogs.tif
176
     1
290
     0
176
     1
 40
1.0
176
     1
 40
1.0
176
     1
  0
VISUALSTYLE
  5
F9
102
{ACAD_REACTORS
330
F4
102
}
330
F4
100
AcDbVisualStyle
  2
Basic
 70
     7
177
     3
291
     1
 70
    58
 90
        1
176
     1
 90
        0
176
     1
 90
        1
176
     1
 90
        0
176
     1
 40
0.6
176
     1
 40
30.0
176
     1
 62
     7
420
 16777215
176
     1
 90
        0
176
     1
 90
        4
176
     1
 62
     7
176
     1
 62
   257
176
     1
 90
        1
176
     1
 90
        1
176
     1
 40
1.0
176
     1
 90
        8
176
     1
 62
     7
176
     1
 40
1.0
176
     1
 90
        1
176
     1
 90
        6
176
     1
 90
        2
176
     1
 62
     7
176
     1
 90
        5
176
     1
 90
        0
176
     1
 90
        0
176
     1
290
     0
176
     1
 90
        1
176
     1
 40
0.0
176
     1
 90
        0
176
     1
290
     0
176
     1
290
     1
176
     1
290
     1
176
     1
290
     0
176
     1
290
     0
176
     1
290
     0
176
     1
290
     0
176
     1
290
     0
176
     1
290
     0
176
     1
 90
       50
176
     1
 40
0.0
176
     1
 40
1.0
176
     1
 90
        0
176
     1
 62
    18
176
     1
 90
       50
176
     1
 90
        3
176
     1
 62
     5
420
      255
176
     1
290
     0
176
     1
 90
       50
176
     1
 90
       50
176
     1
 90
       50
176
     1
290
     0
176
     1
 90
       50
176
     1
 62
   256
176
     0
 40
1.0
176
     0
 90
        2
176
     1
  1
strokes_ogs.tif
176
     1
290
     0
176
     1
 40
1.0
176
     1
 40
1.0
176
     1
  0
VISUALSTYLE
  5
100
102
{ACAD_REACTORS
330
F4
102
}
330
F4
100
AcDbVisualStyle
  2
Brighten
 70
    12
177
     3
291
     1
 70
    58
 90
        2
176
     1
 90
        2
176
     1
 90
        0
176
     1
 90
        0
176
     1
 40
0.6
176
     1
 40
30.0
176
     1
 62
     7
420
 16777215
176
     1
 90
        1
176
     1
 90
        4
176
     1
 62
     7
176
     1
 62
   257
176
     1
 90
        1
176
     1
 90
        1
176
     1
 40
1.0
176
     1
 90
        8
176
     1
 62
     7
176
     1
 40
1.0
176
     1
 90
        1
176
     1
 90
        6
176
     1
 90
        2
176
     1
 62
     7
176
     1
 90
        5
176
     1
 90
        0
176
     1
 90
        0
176
     1
290
     0
176
     1
 90
        1
176
     1
 40
50.0
176
     1
 90
        0
176
     1
290
     0
176
     1
290
     1
176
     1
290
     1
176
     1
290
     0
176
     1
290
     0
176
     1
290
     0
176
     1
290
     0
176
     1
290
     0
176
     1
290
     0
176
     1
 90
       50
176
     1
 40
0.0
176
     1
 40
1.0
176
     1
 90
        0
176
     1
 62
    18
176
     1
 90
       50
176
     1
 90
        3
176
     1
 62
     5
420
      255
176
     1
290
     0
176
     1
 90
       50
176
     1
 90
       50
176
     1
 90
       50
176
     1
290
     0
176
     1
 90
       50
176
     1
 62
   256
176
     0
 40
1.0
176
     0
 90
        2
176
     1
  1
strokes_ogs.tif
176
     1
290
     0
176
     1
 40
1.0
176
     1
 40
1.0
176
     1
  0
VISUALSTYLE
  5
104
102
{ACAD_REACTORS
330
F4
102
}
330
F4
100
AcDbVisualStyle
  2
ColorChange
 70
    16
177
     3
291
     1
 70
    58
 90
        2
176
     1
 90
        2
176
     1
 90
        3
176
     1
 90
        0
176
     1
 40
0.6
176
     1
 40
30.0
176
     1
 62
     8
420
  8421504
176
     1
 90
        1
176
     1
 90
        4
176
     1
 62
     7
176
     1
 62
   257
176
     1
 90
        1
176
     1
 90
        1
176
     1
 40
1.0
176
     1
 90
        8
176
     1
 62
     8
420
  8421504
176
     1
 40
1.0
176
     1
 90
        1
176
     1
 90
        6
176
     1
 90
        2
176
     1
 62
     7
176
     1
 90
        5
176
     1
 90
        0
176
     1
 90
        0
176
     1
290
     0
176
     1
 90
        1
176
     1
 40
0.0
176
     1
 90
        0
176
     1
290
     0
176
     1
290
     1
176
     1
290
     1
176
     1
290
     0
176
     1
290
     0
176
     1
290
     0
176
     1
290
     0
176
     1
290
     0
176
     1
290
     0
176
     1
 90
       50
176
     1
 40
0.0
176
     1
 40
1.0
176
     1
 90
        0
176
     1
 62
    18
176
     1
 90
       50
176
     1
 90
        3
176
     1
 62
     5
420
      255
176
     1
290
     0
176
     1
 90
       50
176
     1
 90
       50
176
     1
 90
       50
176
     1
290
     0
176
     1
 90
       50
176
     1
 62
   256
176
     0
 40
1.0
176
     0
 90
        2
176
     1
  1
strokes_ogs.tif
176
     1
290
     0
176
     1
 40
1.0
176
     1
 40
1.0
176
     1
  0
VISUALSTYLE
  5
FD
102
{ACAD_REACTORS
330
F4
102
}
330
F4
100
AcDbVisualStyle
  2
Conceptual
 70
     9
177
     3
291
     0
 70
    58
 90
        3
176
     1
 90
        2
176
     1
 90
        0
176
     1
 90
        0
176
     1
 40
0.6
176
     1
 40
30.0
176
     1
 62
     7
420
 16777215
176
     1
 90
        2
176
     1
 90
        2
176
     1
 62
     7
176
     1
 62
   257
176
     1
 90
        1
176
     1
 90
        1
176
     1
 40
179.0
176
     1
 90
        8
176
     1
 62
     7
176
     1
 40
1.0
176
     1
 90
        1
176
     1
 90
        6
176
     1
 90
        2
176
     1
 62
     7
176
     1
 90
        3
176
     1
 90
        0
176
     1
 90
        0
176
     1
290
     0
176
     1
 90
        1
176
     1
 40
0.0
176
     1
 90
        0
176
     1
290
     0
176
     1
290
     1
176
     1
290
     1
176
     1
290
     0
176
     1
290
     0
176
     1
290
     0
176
     1
290
     0
176
     1
290
     0
176
     1
290
     0
176
     1
 90
       50
176
     1
 40
0.0
176
     1
 40
1.0
176
     1
 90
        0
176
     1
 62
    18
176
     1
 90
       50
176
     1
 90
        3
176
     1
 62
     5
420
      255
176
     1
290
     0
176
     1
 90
       50
176
     1
 90
       50
176
     1
 90
       50
176
     1
290
     0
176
     1
 90
       50
176
     1
 62
   256
176
     0
 40
1.0
176
     0
 90
        2
176
     1
  1
strokes_ogs.tif
176
     1
290
     0
176
     1
 40
1.0
176
     1
 40
1.0
176
     1
  0
VISUALSTYLE
  5
FF
102
{ACAD_REACTORS
330
F4
102
}
330
F4
100
AcDbVisualStyle
  2
Dim
 70
    11
177
     3
291
     1
 70
    58
 90
        2
176
     1
 90
        2
176
     1
 90
        0
176
     1
 90
        0
176
     1
 40
0.6
176
     1
 40
30.0
176
     1
 62
     7
420
 16777215
176
     1
 90
        1
176
     1
 90
        4
176
     1
 62
     7
176
     1
 62
   257
176
     1
 90
        1
176
     1
 90
        1
176
     1
 40
1.0
176
     1
 90
        8
176
     1
 62
     7
176
     1
 40
1.0
176
     1
 90
        1
176
     1
 90
        6
176
     1
 90
        2
176
     1
 62
     7
176
     1
 90
        5
176
     1
 90
        0
176
     1
 90
        0
176
     1
290
     0
176
     1
 90
        1
176
     1
 40
-50.0
176
     1
 90
        0
176
     1
290
     0
176
     1
290
     1
176
     1
290
     1
176
     1
290
     0
176
     1
290
     0
176
     1
290
     0
176
     1
290
     0
176
     1
290
     0
176
     1
290
     0
176
     1
 90
       50
176
     1
 40
0.0
176
     1
 40
1.0
176
     1
 90
        0
176
     1
 62
    18
176
     1
 90
       50
176
     1
 90
        3
176
     1
 62
     5
420
      255
176
     1
290
     0
176
     1
 90
       50
176
     1
 90
       50
176
     1
 90
       50
176
     1
290
     0
176
     1
 90
       50
176
     1
 62
   256
176
     0
 40
1.0
176
     0
 90
        2
176
     1
  1
strokes_ogs.tif
176
     1
290
     0
176
     1
 40
1.0
176
     1
 40
1.0
176
     1
  0
VISUALSTYLE
  5
10C
102
{ACAD_REACTORS
330
F4
102
}
330
F4
100
AcDbVisualStyle
  2
EdgeColorOff
 70
    22
177
     3
291
     1
 70
    58
 90
        2
176
     0
 90
        2
176
     0
 90
        0
176
     0
 90
        0
176
     0
 40
0.6
176
     0
 40
30.0
176
     0
 62
     7
420
 16777215
176
     0
 90
        1
176
     0
 90
        4
176
     0
 62
     7
176
     0
 62
   257
176
     0
 90
        1
176
     0
 90
        1
176
     0
 40
1.0
176
     0
 90
        8
176
     2
 62
     7
176
     0
 40
1.0
176
     0
 90
        1
176
     0
 90
        6
176
     0
 90
        2
176
     0
 62
     7
176
     0
 90
        5
176
     0
 90
        0
176
     0
 90
        0
176
     0
290
     0
176
     0
 90
        1
176
     0
 40
0.0
176
     0
 90
        0
176
     0
290
     0
176
     1
290
     1
176
     1
290
     1
176
     1
290
     0
176
     1
290
     0
176
     1
290
     0
176
     1
290
     0
176
     1
290
     0
176
     1
290
     0
176
     1
 90
       50
176
     0
 40
0.0
176
     0
 40
1.0
176
     0
 90
        0
176
     0
 62
    18
176
     0
 90
       50
176
     0
 90
        3
176
     0
 62
     5
420
      255
176
     0
290
     0
176
     1
 90
       50
176
     0
 90
       50
176
     0
 90
       50
176
     0
290
     0
176
     1
 90
       50
176
     0
 62
   256
176
     0
 40
1.0
176
     0
 90
        2
176
     0
  1
strokes_ogs.tif
176
     0
290
     0
176
     1
 40
1.0
176
     0
 40
1.0
176
     0
  0
VISUALSTYLE
  5
103
102
{ACAD_REACTORS
330
F4
102
}
330
F4
100
AcDbVisualStyle
  2
Facepattern
 70
    15
177
     3
291
     1
 70
    58
 90
        2
176
     1
 90
        2
176
     1
 90
        0
176
     1
 90
        0
176
     1
 40
0.6
176
     1
 40
30.0
176
     1
 62
     7
420
 16777215
176
     1
 90
        1
176
     1
 90
        4
176
     1
 62
     7
176
     1
 62
   257
176
     1
 90
        1
176
     1
 90
        1
176
     1
 40
1.0
176
     1
 90
        8
176
     1
 62
     7
176
     1
 40
1.0
176
     1
 90
        1
176
     1
 90
        6
176
     1
 90
        2
176
     1
 62
     7
176
     1
 90
        5
176
     1
 90
        0
176
     1
 90
        0
176
     1
290
     0
176
     1
 90
        1
176
     1
 40
0.0
176
     1
 90
        0
176
     1
290
     0
176
     1
290
     1
176
     1
290
     1
176
     1
290
     0
176
     1
290
     0
176
     1
290
     0
176
     1
290
     0
176
     1
290
     0
176
     1
290
     0
176
     1
 90
       50
176
     1
 40
0.0
176
     1
 40
1.0
176
     1
 90
        0
176
     1
 62
    18
176
     1
 90
       50
176
     1
 90
        3
176
     1
 62
     5
420
      255
176
     1
290
     0
176
     1
 90
       50
176
     1
 90
       50
176
     1
 90
       50
176
     1
290
     0
176
     1
 90
       50
176
     1
 62
   256
176
     0
 40
1.0
176
     0
 90
        2
176
     1
  1
strokes_ogs.tif
176
     1
290
     0
176
     1
 40
1.0
176
     1
 40
1.0
176
     1
  0
VISUALSTYLE
  5
F5
102
{ACAD_REACTORS
330
F4
102
}
330
F4
100
AcDbVisualStyle
  2
Flat
 70
     0
177
     3
291
     1
 70
    58
 90
        2
176
     1
 90
        1
176
     1
 90
        1
176
     1
 90
        2
176
     1
 40
0.6
176
     1
 40
30.0
176
     1
 62
     7
420
 16777215
176
     1
 90
        0
176
     1
 90
        0
176
     1
 62
     7
176
     1
 62
   257
176
     1
 90
        1
176
     1
 90
        1
176
     1
 40
1.0
176
     1
 90
        8
176
     1
 62
     7
176
     1
 40
1.0
176
     1
 90
        1
176
     1
 90
        6
176
     1
 90
        2
176
     1
 62
     7
176
     1
 90
        5
176
     1
 90
        0
176
     1
 90
        0
176
     1
290
     0
176
     1
 90
       13
176
     1
 40
0.0
176
     1
 90
        0
176
     1
290
     0
176
     1
290
     1
176
     1
290
     1
176
     1
290
     0
176
     1
290
     0
176
     1
290
     0
176
     1
290
     0
176
     1
290
     0
176
     1
290
     0
176
     1
 90
       50
176
     1
 40
0.0
176
     1
 40
1.0
176
     1
 90
        0
176
     1
 62
    18
176
     1
 90
       50
176
     1
 90
        3
176
     1
 62
     5
420
      255
176
     1
290
     0
176
     1
 90
       50
176
     1
 90
       50
176
     1
 90
       50
176
     1
290
     0
176
     1
 90
       50
176
     1
 62
   256
176
     0
 40
1.0
176
     0
 90
        2
176
     1
  1
strokes_ogs.tif
176
     1
290
     0
176
     1
 40
1.0
176
     1
 40
1.0
176
     1
  0
VISUALSTYLE
  5
F6
102
{ACAD_REACTORS
330
F4
102
}
330
F4
100
AcDbVisualStyle
  2
FlatWithEdges
 70
     1
177
     3
291
     1
 70
    58
 90
        2
176
     1
 90
        1
176
     1
 90
        1
176
     1
 90
        2
176
     1
 40
0.6
176
     1
 40
30.0
176
     1
 62
     7
420
 16777215
176
     1
 90
        1
176
     1
 90
        0
176
     1
 62
     7
176
     1
 62
   257
176
     1
 90
        1
176
     1
 90
        1
176
     1
 40
1.0
176
     1
 90
        0
176
     1
 62
   257
176
     1
 40
1.0
176
     1
 90
        1
176
     1
 90
        6
176
     1
 90
        2
176
     1
 62
     7
176
     1
 90
        5
176
     1
 90
        0
176
     1
 90
        0
176
     1
290
     0
176
     1
 90
       13
176
     1
 40
0.0
176
     1
 90
        0
176
     1
290
     0
176
     1
290
     1
176
     1
290
     1
176
     1
290
     0
176
     1
290
     0
176
     1
290
     0
176
     1
290
     0
176
     1
290
     0
176
     1
290
     0
176
     1
 90
       50
176
     1
 40
0.0
176
     1
 40
1.0
176
     1
 90
        0
176
     1
 62
    18
176
     1
 90
       50
176
     1
 90
        3
176
     1
 62
     5
420
      255
176
     1
290
     0
176
     1
 90
       50
176
     1
 90
       50
176
     1
 90
       50
176
     1
290
     0
176
     1
 90
       50
176
     1
 62
   256
176
     0
 40
1.0
176
     0
 90
        2
176
     1
  1
strokes_ogs.tif
176
     1
290
     0
176
     1
 40
1.0
176
     1
 40
1.0
176
     1
  0
VISUALSTYLE
  5
F7
102
{ACAD_REACTORS
330
F4
102
}
330
F4
100
AcDbVisualStyle
  2
Gouraud
 70
     2
177
     3
291
     1
 70
    58
 90
        2
176
     1
 90
        2
176
     1
 90
        1
176
     1
 90
        2
176
     1
 40
0.6
176
     1
 40
30.0
176
     1
 62
     7
420
 16777215
176
     1
 90
        0
176
     1
 90
        0
176
     1
 62
     7
176
     1
 62
   257
176
     1
 90
        1
176
     1
 90
        1
176
     1
 40
1.0
176
     1
 90
        0
176
     1
 62
     7
176
     1
 40
1.0
176
     1
 90
        1
176
     1
 90
        6
176
     1
 90
        2
176
     1
 62
     7
176
     1
 90
        5
176
     1
 90
        0
176
     1
 90
        0
176
     1
290
     0
176
     1
 90
       13
176
     1
 40
0.0
176
     1
 90
        0
176
     1
290
     0
176
     1
290
     1
176
     1
290
     1
176
     1
290
     0
176
     1
290
     0
176
     1
290
     0
176
     1
290
     0
176
     1
290
     0
176
     1
290
     0
176
     1
 90
       50
176
     1
 40
0.0
176
     1
 40
1.0
176
     1
 90
        0
176
     1
 62
    18
176
     1
 90
       50
176
     1
 90
        3
176
     1
 62
     5
420
      255
176
     1
290
     0
176
     1
 90
       50
176
     1
 90
       50
176
     1
 90
       50
176
     1
290
     0
176
     1
 90
       50
176
     1
 62
   256
176
     0
 40
1.0
176
     0
 90
        2
176
     1
  1
strokes_ogs.tif
176
     1
290
     0
176
     1
 40
1.0
176
     1
 40
1.0
176
     1
  0
VISUALSTYLE
  5
F8
102
{ACAD_REACTORS
330
F4
102
}
330
F4
100
AcDbVisualStyle
  2
GouraudWithEdges
 70
     3
177
     3
291
     1
 70
    58
 90
        2
176
     1
 90
        2
176
     1
 90
        1
176
     1
 90
        2
176
     1
 40
0.6
176
     1
 40
30.0
176
     1
 62
     7
420
 16777215
176
     1
 90
        1
176
     1
 90
        0
176
     1
 62
     7
176
     1
 62
   257
176
     1
 90
        1
176
     1
 90
        1
176
     1
 40
1.0
176
     1
 90
        0
176
     1
 62
   257
176
     1
 40
1.0
176
     1
 90
        1
176
     1
 90
        6
176
     1
 90
        2
176
     1
 62
     7
176
     1
 90
        5
176
     1
 90
        0
176
     1
 90
        0
176
     1
290
     0
176
     1
 90
       13
176
     1
 40
0.0
176
     1
 90
        0
176
     1
290
     0
176
     1
290
     1
176
     1
290
     1
176
     1
290
     0
176
     1
290
     0
176
     1
290
     0
176
     1
290
     0
176
     1
290
     0
176
     1
290
     0
176
     1
 90
       50
176
     1
 40
0.0
176
     1
 40
1.0
176
     1
 90
        0
176
     1
 62
    18
176
     1
 90
       50
176
     1
 90
        3
176
     1
 62
     5
420
      255
176
     1
290
     0
176
     1
 90
       50
176
     1
 90
       50
176
     1
 90
       50
176
     1
290
     0
176
     1
 90
       50
176
     1
 62
   256
176
     0
 40
1.0
176
     0
 90
        2
176
     1
  1
strokes_ogs.tif
176
     1
290
     0
176
     1
 40
1.0
176
     1
 40
1.0
176
     1
  0
VISUALSTYLE
  5
FC
102
{ACAD_REACTORS
330
F4
102
}
330
F4
100
AcDbVisualStyle
  2
Hidden
 70
     6
177
     3
291
     0
 70
    58
 90
        1
176
     1
 90
        2
176
     1
 90
        2
176
     1
 90
        0
176
     1
 40
0.6
176
     1
 40
30.0
176
     1
 62
     7
420
 16777215
176
     1
 90
        2
176
     1
 90
        2
176
     1
 62
     7
176
     1
 62
   257
176
     1
 90
        2
176
     1
 90
        1
176
     1
 40
40.0
176
     1
 90
        0
176
     1
 62
   257
176
     1
 40
1.0
176
     1
 90
        1
176
     1
 90
        6
176
     1
 90
        2
176
     1
 62
     7
176
     1
 90
        3
176
     1
 90
        0
176
     1
 90
        0
176
     1
290
     0
176
     1
 90
        1
176
     1
 40
0.0
176
     1
 90
        0
176
     1
290
     0
176
     1
290
     1
176
     1
290
     1
176
     1
290
     0
176
     1
290
     0
176
     1
290
     0
176
     1
290
     0
176
     1
290
     0
176
     1
290
     0
176
     1
 90
       50
176
     1
 40
0.0
176
     1
 40
1.0
176
     1
 90
        0
176
     1
 62
    18
176
     1
 90
       50
176
     1
 90
        3
176
     1
 62
     5
420
      255
176
     1
290
     0
176
     1
 90
       50
176
     1
 90
       50
176
     1
 90
       50
176
     1
290
     0
176
     1
 90
       50
176
     1
 62
   256
176
     0
 40
1.0
176
     0
 90
        2
176
     1
  1
strokes_ogs.tif
176
     1
290
     0
176
     1
 40
1.0
176
     1
 40
1.0
176
     1
  0
VISUALSTYLE
  5
10A
102
{ACAD_REACTORS
330
F4
102
}
330
F4
100
AcDbVisualStyle
  2
JitterOff
 70
    20
177
     3
291
     1
 70
    58
 90
        2
176
     0
 90
        2
176
     0
 90
        0
176
     0
 90
        0
176
     0
 40
0.6
176
     0
 40
30.0
176
     0
 62
     7
420
 16777215
176
     0
 90
        1
176
     0
 90
        4
176
     0
 62
     7
176
     0
 62
   257
176
     0
 90
        1
176
     0
 90
        1
176
     0
 40
1.0
176
     0
 90
       10
176
     2
 62
     7
176
     0
 40
1.0
176
     0
 90
        1
176
     0
 90
        6
176
     0
 90
        2
176
     0
 62
     7
176
     0
 90
        5
176
     0
 90
        0
176
     0
 90
        0
176
     0
290
     0
176
     0
 90
        1
176
     0
 40
0.0
176
     0
 90
        0
176
     0
290
     0
176
     1
290
     1
176
     1
290
     1
176
     1
290
     0
176
     1
290
     0
176
     1
290
     0
176
     1
290
     0
176
     1
290
     0
176
     1
290
     0
176
     1
 90
       50
176
     0
 40
0.0
176
     0
 40
1.0
176
     0
 90
        0
176
     0
 62
    18
176
     0
 90
       50
176
     0
 90
        3
176
     0
 62
     5
420
      255
176
     0
290
     0
176
     1
 90
       50
176
     0
 90
       50
176
     0
 90
       50
176
     0
290
     0
176
     1
 90
       50
176
     0
 62
   256
176
     0
 40
1.0
176
     0
 90
        2
176
     0
  1
strokes_ogs.tif
176
     0
290
     0
176
     1
 40
1.0
176
     0
 40
1.0
176
     0
  0
VISUALSTYLE
  5
102
102
{ACAD_REACTORS
330
F4
102
}
330
F4
100
AcDbVisualStyle
  2
Linepattern
 70
    14
177
     3
291
     1
 70
    58
 90
        2
176
     1
 90
        2
176
     1
 90
        0
176
     1
 90
        0
176
     1
 40
0.6
176
     1
 40
30.0
176
     1
 62
     7
420
 16777215
176
     1
 90
        1
176
     1
 90
        4
176
     1
 62
     7
176
     1
 62
   257
176
     1
 90
        7
176
     1
 90
        7
176
     1
 40
1.0
176
     1
 90
        8
176
     1
 62
     7
176
     1
 40
1.0
176
     1
 90
        1
176
     1
 90
        6
176
     1
 90
        2
176
     1
 62
     7
176
     1
 90
        5
176
     1
 90
        0
176
     1
 90
        0
176
     1
290
     0
176
     1
 90
        1
176
     1
 40
0.0
176
     1
 90
        0
176
     1
290
     0
176
     1
290
     1
176
     1
290
     1
176
     1
290
     0
176
     1
290
     0
176
     1
290
     0
176
     1
290
     0
176
     1
290
     0
176
     1
290
     0
176
     1
 90
       50
176
     1
 40
0.0
176
     1
 40
1.0
176
     1
 90
        0
176
     1
 62
    18
176
     1
 90
       50
176
     1
 90
        3
176
     1
 62
     5
420
      255
176
     1
290
     0
176
     1
 90
       50
176
     1
 90
       50
176
     1
 90
       50
176
     1
290
     0
176
     1
 90
       50
176
     1
 62
   256
176
     0
 40
1.0
176
     0
 90
        2
176
     1
  1
strokes_ogs.tif
176
     1
290
     0
176
     1
 40
1.0
176
     1
 40
1.0
176
     1
  0
VISUALSTYLE
  5
10B
102
{ACAD_REACTORS
330
F4
102
}
330
F4
100
AcDbVisualStyle
  2
OverhangOff
 70
    21
177
     3
291
     1
 70
    58
 90
        2
176
     0
 90
        2
176
     0
 90
        0
176
     0
 90
        0
176
     0
 40
0.6
176
     0
 40
30.0
176
     0
 62
     7
420
 16777215
176
     0
 90
        1
176
     0
 90
        4
176
     0
 62
     7
176
     0
 62
   257
176
     0
 90
        1
176
     0
 90
        1
176
     0
 40
1.0
176
     0
 90
        9
176
     2
 62
     7
176
     0
 40
1.0
176
     0
 90
        1
176
     0
 90
        6
176
     0
 90
        2
176
     0
 62
     7
176
     0
 90
        5
176
     0
 90
        0
176
     0
 90
        0
176
     0
290
     0
176
     0
 90
        1
176
     0
 40
0.0
176
     0
 90
        0
176
     0
290
     0
176
     1
290
     1
176
     1
290
     1
176
     1
290
     0
176
     1
290
     0
176
     1
290
     0
176
     1
290
     0
176
     1
290
     0
176
     1
290
     0
176
     1
 90
       50
176
     0
 40
0.0
176
     0
 40
1.0
176
     0
 90
        0
176
     0
 62
    18
176
     0
 90
       50
176
     0
 90
        3
176
     0
 62
     5
420
      255
176
     0
290
     0
176
     1
 90
       50
176
     0
 90
       50
176
     0
 90
       50
176
     0
290
     0
176
     1
 90
       50
176
     0
 62
   256
176
     0
 40
1.0
176
     0
 90
        2
176
     0
  1
strokes_ogs.tif
176
     0
290
     0
176
     1
 40
1.0
176
     0
 40
1.0
176
     0
  0
VISUALSTYLE
  5
FE
102
{ACAD_REACTORS
330
F4
102
}
330
F4
100
AcDbVisualStyle
  2
Realistic
 70
     8
177
     3
291
     0
 70
    58
 90
        2
176
     1
 90
        3
176
     1
 90
        0
176
     1
 90
        2
176
     1
 40
0.6
176
     1
 40
30.0
176
     1
 62
     7
420
 16777215
176
     1
 90
        0
176
     1
 90
        0
176
     1
 62
     7
176
     1
 62
   257
176
     1
 90
        1
176
     1
 90
        1
176
     1
 40
1.0
176
     1
 90
        8
176
     1
 62
   257
176
     1
 40
1.0
176
     1
 90
        1
176
     1
 90
        6
176
     1
 90
        2
176
     1
 62
     7
176
     1
 90
        3
176
     1
 90
        0
176
     1
 90
        0
176
     1
290
     0
176
     1
 90
       13
176
     1
 40
0.0
176
     1
 90
        0
176
     1
290
     0
176
     1
290
     1
176
     1
290
     1
176
     1
290
     0
176
     1
290
     0
176
     1
290
     0
176
     1
290
     0
176
     1
290
     0
176
     1
290
     0
176
     1
 90
       50
176
     1
 40
0.0
176
     1
 40
1.0
176
     1
 90
        0
176
     1
 62
    18
176
     1
 90
       50
176
     1
 90
        3
176
     1
 62
     5
420
      255
176
     1
290
     0
176
     1
 90
       50
176
     1
 90
       50
176
     1
 90
       50
176
     1
290
     0
176
     1
 90
       50
176
     1
 62
   256
176
     0
 40
1.0
176
     0
 90
        2
176
     1
  1
strokes_ogs.tif
176
     1
290
     0
176
     1
 40
1.0
176
     1
 40
1.0
176
     1
  0
VISUALSTYLE
  5
109
102
{ACAD_REACTORS
330
F4
102
}
330
F4
100
AcDbVisualStyle
  2
Shaded
 70
    27
177
     3
291
     0
 70
    58
 90
        2
176
     1
 90
        2
176
     1
 90
        1
176
     1
 90
        2
176
     1
 40
0.6
176
     1
 40
30.0
176
     1
 62
     7
420
 16777215
176
     1
 90
        0
176
     1
 90
        4
176
     1
 62
     7
176
     1
 62
   257
176
     1
 90
        1
176
     1
 90
        1
176
     1
 40
1.0
176
     1
 90
        8
176
     1
 62
   257
176
     1
 40
1.0
176
     1
 90
        1
176
     1
 90
        6
176
     1
 90
        2
176
     1
 62
     8
420
  7895160
176
     1
 90
        3
176
     1
 90
        0
176
     1
 90
        0
176
     1
290
     0
176
     1
 90
        5
176
     1
 40
0.0
176
     1
 90
        0
176
     1
290
     0
176
     1
290
     1
176
     1
290
     1
176
     1
290
     0
176
     1
290
     0
176
     1
290
     0
176
     1
290
     0
176
     1
290
     0
176
     1
290
     0
176
     1
 90
       50
176
     1
 40
0.0
176
     1
 40
1.0
176
     1
 90
        0
176
     1
 62
    18
176
     1
 90
       50
176
     1
 90
        3
176
     1
 62
     5
420
      255
176
     1
290
     0
176
     1
 90
       50
176
     1
 90
       50
176
     1
 90
       50
176
     1
290
     0
176
     1
 90
       50
176
     1
 62
   256
176
     0
 40
1.0
176
     0
 90
        2
176
     1
  1
strokes_ogs.tif
176
     1
290
     0
176
     1
 40
1.0
176
     1
 40
1.0
176
     1
  0
VISUALSTYLE
  5
108
102
{ACAD_REACTORS
330
F4
102
}
330
F4
100
AcDbVisualStyle
  2
Shaded with edges
 70
    26
177
     3
291
     0
 70
    58
 90
        2
176
     1
 90
        2
176
     1
 90
        1
176
     1
 90
        2
176
     1
 40
0.6
176
     1
 40
30.0
176
     1
 62
     7
420
 16777215
176
     1
 90
        1
176
     1
 90
        2
176
     1
 62
     7
176
     1
 62
   257
176
     1
 90
        2
176
     1
 90
        1
176
     1
 40
1.0
176
     1
 90
        8
176
     1
 62
   257
176
     1
 40
1.0
176
     1
 90
        1
176
     1
 90
        6
176
     1
 90
        2
176
     1
 62
     7
176
     1
 90
        3
176
     1
 90
        0
176
     1
 90
        0
176
     1
290
     0
176
     1
 90
        5
176
     1
 40
0.0
176
     1
 90
        0
176
     1
290
     0
176
     1
290
     1
176
     1
290
     1
176
     1
290
     0
176
     1
290
     0
176
     1
290
     0
176
     1
290
     0
176
     1
290
     0
176
     1
290
     0
176
     1
 90
       50
176
     1
 40
0.0
176
     1
 40
1.0
176
     1
 90
        0
176
     1
 62
    18
176
     1
 90
       50
176
     1
 90
        3
176
     1
 62
     5
420
      255
176
     1
290
     0
176
     1
 90
       50
176
     1
 90
       50
176
     1
 90
       50
176
     1
290
     0
176
     1
 90
       50
176
     1
 62
   256
176
     0
 40
1.0
176
     0
 90
        2
176
     1
  1
strokes_ogs.tif
176
     1
290
     0
176
     1
 40
1.0
176
     1
 40
1.0
176
     1
  0
VISUALSTYLE
  5
105
102
{ACAD_REACTORS
330
F4
102
}
330
F4
100
AcDbVisualStyle
  2
Shades of Gray
 70
    23
177
     3
291
     0
 70
    58
 90
        2
176
     1
 90
        2
176
     1
 90
        3
176
     1
 90
        0
176
     1
 40
0.6
176
     1
 40
30.0
176
     1
 62
     7
420
 16777215
176
     1
 90
        2
176
     1
 90
        2
176
     1
 62
     7
176
     1
 62
     7
176
     1
 90
        1
176
     1
 90
        1
176
     1
 40
40.0
176
     1
 90
        8
176
     1
 62
     7
176
     1
 40
1.0
176
     1
 90
        1
176
     1
 90
        6
176
     1
 90
        2
176
     1
 62
     7
176
     1
 90
        3
176
     1
 90
        0
176
     1
 90
        0
176
     1
290
     0
176
     1
 90
        1
176
     1
 40
0.0
176
     1
 90
        0
176
     1
290
     0
176
     1
290
     1
176
     1
290
     1
176
     1
290
     0
176
     1
290
     0
176
     1
290
     0
176
     1
290
     0
176
     1
290
     0
176
     1
290
     0
176
     1
 90
       50
176
     1
 40
0.0
176
     1
 40
1.0
176
     1
 90
        0
176
     1
 62
    18
176
     1
 90
       50
176
     1
 90
        3
176
     1
 62
     5
420
      255
176
     1
290
     0
176
     1
 90
       50
176
     1
 90
       50
176
     1
 90
       50
176
     1
290
     0
176
     1
 90
       50
176
     1
 62
   256
176
     0
 40
1.0
176
     0
 90
        2
176
     1
  1
strokes_ogs.tif
176
     1
290
     0
176
     1
 40
1.0
176
     1
 40
1.0
176
     1
  0
VISUALSTYLE
  5
106
102
{ACAD_REACTORS
330
F4
102
}
330
F4
100
AcDbVisualStyle
  2
Sketchy
 70
    24
177
     3
291
     0
 70
    58
 90
        1
176
     1
 90
        2
176
     1
 90
        2
176
     1
 90
        0
176
     1
 40
0.6
176
     1
 40
30.0
176
     1
 62
     7
420
 16777215
176
     1
 90
        2
176
     1
 90
        2
176
     1
 62
     7
176
     1
 62
     7
176
     1
 90
        1
176
     1
 90
        1
176
     1
 40
40.0
176
     1
 90
       11
176
     1
 62
     7
176
     1
 40
1.0
176
     1
 90
        1
176
     1
 90
        6
176
     1
 90
        2
176
     1
 62
     7
176
     1
 90
        6
176
     1
 90
        0
176
     1
 90
        0
176
     1
290
     0
176
     1
 90
        1
176
     1
 40
0.0
176
     1
 90
        0
176
     1
290
     0
176
     1
290
     1
176
     1
290
     1
176
     1
290
     0
176
     1
290
     0
176
     1
290
     0
176
     1
290
     0
176
     1
290
     0
176
     1
290
     0
176
     1
 90
       50
176
     1
 40
0.0
176
     1
 40
1.0
176
     1
 90
        0
176
     1
 62
    18
176
     1
 90
       50
176
     1
 90
        3
176
     1
 62
     5
420
      255
176
     1
290
     0
176
     1
 90
       50
176
     1
 90
       50
176
     1
 90
       50
176
     1
290
     0
176
     1
 90
       50
176
     1
 62
   256
176
     0
 40
1.0
176
     0
 90
        2
176
     1
  1
strokes_ogs.tif
176
     1
290
     0
176
     1
 40
1.0
176
     1
 40
1.0
176
     1
  0
VISUALSTYLE
  5
101
102
{ACAD_REACTORS
330
F4
102
}
330
F4
100
AcDbVisualStyle
  2
Thicken
 70
    13
177
     3
291
     1
 70
    58
 90
        2
176
     1
 90
        2
176
     1
 90
        0
176
     1
 90
        0
176
     1
 40
0.6
176
     1
 40
30.0
176
     1
 62
     7
420
 16777215
176
     1
 90
        1
176
     1
 90
        4
176
     1
 62
     7
176
     1
 62
   257
176
     1
 90
        1
176
     1
 90
        1
176
     1
 40
1.0
176
     1
 90
       12
176
     1
 62
     7
176
     1
 40
1.0
176
     1
 90
        1
176
     1
 90
        6
176
     1
 90
        2
176
     1
 62
     7
176
     1
 90
        5
176
     1
 90
        0
176
     1
 90
        0
176
     1
290
     0
176
     1
 90
        1
176
     1
 40
0.0
176
     1
 90
        0
176
     1
290
     0
176
     1
290
     1
176
     1
290
     1
176
     1
290
     0
176
     1
290
     0
176
     1
290
     0
176
     1
290
     0
176
     1
290
     0
176
     1
290
     0
176
     1
 90
       50
176
     1
 40
0.0
176
     1
 40
1.0
176
     1
 90
        0
176
     1
 62
    18
176
     1
 90
       50
176
     1
 90
        3
176
     1
 62
     5
420
      255
176
     1
290
     0
176
     1
 90
       50
176
     1
 90
       50
176
     1
 90
       50
176
     1
290
     0
176
     1
 90
       50
176
     1
 62
   256
176
     0
 40
1.0
176
     0
 90
        2
176
     1
  1
strokes_ogs.tif
176
     1
290
     0
176
     1
 40
1.0
176
     1
 40
1.0
176
     1
  0
VISUALSTYLE
  5
FB
102
{ACAD_REACTORS
330
F4
102
}
330
F4
100
AcDbVisualStyle
  2
Wireframe
 70
     5
177
     3
291
     0
 70
    58
 90
        0
176
     1
 90
        2
176
     1
 90
        0
176
     1
 90
        0
176
     1
 40
0.6
176
     1
 40
30.0
176
     1
 62
     7
420
 16777215
176
     1
 90
        1
176
     1
 90
        4
176
     1
 62
     7
176
     1
 62
   257
176
     1
 90
        1
176
     1
 90
        1
176
     1
 40
1.0
176
     1
 90
        0
176
     1
 62
   257
176
     1
 40
1.0
176
     1
 90
        1
176
     1
 90
        6
176
     1
 90
        2
176
     1
 62
     7
176
     1
 90
        3
176
     1
 90
        0
176
     1
 90
        0
176
     1
290
     0
176
     1
 90
        1
176
     1
 40
0.0
176
     1
 90
        0
176
     1
290
     0
176
     1
290
     1
176
     1
290
     1
176
     1
290
     0
176
     1
290
     0
176
     1
290
     0
176
     1
290
     0
176
     1
290
     0
176
     1
290
     0
176
     1
 90
       50
176
     1
 40
0.0
176
     1
 40
1.0
176
     1
 90
        0
176
     1
 62
    18
176
     1
 90
       50
176
     1
 90
        3
176
     1
 62
     5
420
      255
176
     1
290
     0
176
     1
 90
       50
176
     1
 90
       50
176
     1
 90
       50
176
     1
290
     0
176
     1
 90
       50
176
     1
 62
   256
176
     0
 40
1.0
176
     0
 90
        2
176
     1
  1
strokes_ogs.tif
176
     1
290
     0
176
     1
 40
1.0
176
     1
 40
1.0
176
     1
  0
VISUALSTYLE
  5
107
102
{ACAD_REACTORS
330
F4
102
}
330
F4
100
AcDbVisualStyle
  2
X-Ray
 70
    25
177
     3
291
     0
 70
    58
 90
        2
176
     1
 90
        2
176
     1
 90
        1
176
     1
 90
        1
176
     1
 40
0.5
176
     1
 40
30.0
176
     1
 62
     7
420
 16777215
176
     1
 90
        1
176
     1
 90
        0
176
     1
 62
     7
176
     1
 62
   257
176
     1
 90
        1
176
     1
 90
        1
176
     1
 40
1.0
176
     1
 90
        8
176
     1
 62
     7
176
     1
 40
1.0
176
     1
 90
        1
176
     1
 90
        6
176
     1
 90
        2
176
     1
 62
     7
176
     1
 90
        3
176
     1
 90
        0
176
     1
 90
        0
176
     1
290
     0
176
     1
 90
       13
176
     1
 40
0.0
176
     1
 90
        0
176
     1
290
     0
176
     1
290
     1
176
     1
290
     1
176
     1
290
     0
176
     1
290
     0
176
     1
290
     0
176
     1
290
     0
176
     1
290
     0
176
     1
290
     0
176
     1
 90
       50
176
     1
 40
0.0
176
     1
 40
1.0
176
     1
 90
        0
176
     1
 62
    18
176
     1
 90
       50
176
     1
 90
        3
176
     1
 62
     5
420
      255
176
     1
290
     0
176
     1
 90
       50
176
     1
 90
       50
176
     1
 90
       50
176
     1
290
     0
176
     1
 90
       50
176
     1
 62
   256
176
     0
 40
1.0
176
     0
 90
        2
176
     1
  1
strokes_ogs.tif
176
     1
290
     0
176
     1
 40
1.0
176
     1
 40
1.0
176
     1
  0
DICTIONARYVAR
  5
120
102
{ACAD_REACTORS
330
11A
102
}
330
11A
100
DictionaryVariables
280
     0
  1
1:1
  0
DICTIONARYVAR
  5
11C
102
{ACAD_REACTORS
330
11A
102
}
330
11A
100
DictionaryVariables
280
     0
  1
STANDARD
  0
DICTIONARYVAR
  5
11B
102
{ACAD_REACTORS
330
11A
102
}
330
11A
100
DictionaryVariables
280
     0
  1
STANDARD
  0
DICTIONARYVAR
  5
11D
102
{ACAD_REACTORS
330
11A
102
}
330
11A
100
DictionaryVariables
280
     0
  1
Metric50
  0
DICTIONARYVAR
  5
11E
102
{ACAD_REACTORS
330
11A
102
}
330
11A
100
DictionaryVariables
280
     0
  1
Metric50
  0
DICTIONARYVAR
  5
122
102
{ACAD_REACTORS
330
11A
102
}
330
11A
100
DictionaryVariables
280
     0
  1
1
  0
DICTIONARYVAR
  5
123
102
{ACAD_REACTORS
330
11A
102
}
330
11A
100
DictionaryVariables
280
     0
  1
15
  0
DICTIONARYVAR
  5
121
102
{ACAD_REACTORS
330
11A
102
}
330
11A
100
DictionaryVariables
280
     0
  1
0
  0
DICTIONARYVAR
  5
11F
102
{ACAD_REACTORS
330
11A
102
}
330
11A
100
DictionaryVariables
280
     0
  1
0
  0
DICTIONARY
  5
E5
330
E4
100
AcDbDictionary
280
     1
281
     1
  3
BUMPTILE
360
E7
  3
DIFFUSETILE
360
E6
  3
OPACITYTILE
360
EA
  3
REFLECTIONTILE
360
E9
  3
REFRACTIONTILE
360
EB
  3
SPECULARTILE
360
E8
  0
DICTIONARY
  5
DD
330
DC
100
AcDbDictionary
280
     1
281
     1
  3
BUMPTILE
360
DF
  3
DIFFUSETILE
360
DE
  3
OPACITYTILE
360
E2
  3
REFLECTIONTILE
360
E1
  3
REFRACTIONTILE
360
E3
  3
SPECULARTILE
360
E0
  0
DICTIONARY
  5
ED
330
EC
100
AcDbDictionary
280
     1
281
     1
  3
BUMPTILE
360
EF
  3
DIFFUSETILE
360
EE
  3
OPACITYTILE
360
F2
  3
REFLECTIONTILE
360
F1
  3
REFRACTIONTILE
360
F3
  3
SPECULARTILE
360
F0
  0
DICTIONARY
  5
866
330
10F
100
AcDbDictionary
280
     1
281
     1
  3
ACAD_ROUNDTRIP_2008_TABLESTYLE_CELLSTYLEMAP
360
87A
  0
XRECORD
  5
E7
102
{ACAD_REACTORS
330
E5
102
}
330
E5
100
AcDbXrecord
280
     1
270
     1
271
     1
  0
XRECORD
  5
E6
102
{ACAD_REACTORS
330
E5
102
}
330
E5
100
AcDbXrecord
280
     1
270
     1
271
     1
  0
XRECORD
  5
EA
102
{ACAD_REACTORS
330
E5
102
}
330
E5
100
AcDbXrecord
280
     1
270
     1
271
     1
  0
XRECORD
  5
E9
102
{ACAD_REACTORS
330
E5
102
}
330
E5
100
AcDbXrecord
280
     1
270
     1
271
     1
  0
XRECORD
  5
EB
102
{ACAD_REACTORS
330
E5
102
}
330
E5
100
AcDbXrecord
280
     1
270
     1
271
     1
  0
XRECORD
  5
E8
102
{ACAD_REACTORS
330
E5
102
}
330
E5
100
AcDbXrecord
280
     1
270
     1
271
     1
  0
XRECORD
  5
DF
102
{ACAD_REACTORS
330
DD
102
}
330
DD
100
AcDbXrecord
280
     1
270
     1
271
     1
  0
XRECORD
  5
DE
102
{ACAD_REACTORS
330
DD
102
}
330
DD
100
AcDbXrecord
280
     1
270
     1
271
     1
  0
XRECORD
  5
E2
102
{ACAD_REACTORS
330
DD
102
}
330
DD
100
AcDbXrecord
280
     1
270
     1
271
     1
  0
XRECORD
  5
E1
102
{ACAD_REACTORS
330
DD
102
}
330
DD
100
AcDbXrecord
280
     1
270
     1
271
     1
  0
XRECORD
  5
E3
102
{ACAD_REACTORS
330
DD
102
}
330
DD
100
AcDbXrecord
280
     1
270
     1
271
     1
  0
XRECORD
  5
E0
102
{ACAD_REACTORS
330
DD
102
}
330
DD
100
AcDbXrecord
280
     1
270
     1
271
     1
  0
XRECORD
  5
EF
102
{ACAD_REACTORS
330
ED
102
}
330
ED
100
AcDbXrecord
280
     1
270
     1
271
     1
  0
XRECORD
  5
EE
102
{ACAD_REACTORS
330
ED
102
}
330
ED
100
AcDbXrecord
280
     1
270
     1
271
     1
  0
XRECORD
  5
F2
102
{ACAD_REACTORS
330
ED
102
}
330
ED
100
AcDbXrecord
280
     1
270
     1
271
     1
  0
XRECORD
  5
F1
102
{ACAD_REACTORS
330
ED
102
}
330
ED
100
AcDbXrecord
280
     1
270
     1
271
     1
  0
XRECORD
  5
F3
102
{ACAD_REACTORS
330
ED
102
}
330
ED
100
AcDbXrecord
280
     1
270
     1
271
     1
  0
XRECORD
  5
F0
102
{ACAD_REACTORS
330
ED
102
}
330
ED
100
AcDbXrecord
280
     1
270
     1
271
     1
  0
CELLSTYLEMAP
  5
87A
102
{ACAD_REACTORS
330
866
102
}
330
866
100
AcDbCellStyleMap
 90
        3
300
CELLSTYLE
  1
TABLEFORMAT_BEGIN
 90
        5
170
     1
 91
        0
 92
    32768
 62
   257
 93
        1
300
CONTENTFORMAT
  1
CONTENTFORMAT_BEGIN
 90
        0
 91
        0
 92
      512
 93
        0
300

 40
0.0
140
1.0
 94
        5
 62
     0
340
11
144
6.0
309
CONTENTFORMAT_END
171
     1
301
MARGIN
  1
CELLMARGIN_BEGIN
 40
1.5
 40
1.5
 40
1.5
 40
1.5
 40
0.18
 40
0.18
309
CELLMARGIN_END
 94
        6
 95
        1
302
GRIDFORMAT
  1
GRIDFORMAT_BEGIN
 90
        0
 91
        1
 62
     0
 92
       -2
340
0
 93
        0
 40
1.125
309
GRIDFORMAT_END
 95
        2
302
GRIDFORMAT
  1
GRIDFORMAT_BEGIN
 90
        0
 91
        1
 62
     0
 92
       -2
340
0
 93
        0
 40
1.125
309
GRIDFORMAT_END
 95
        4
302
GRIDFORMAT
  1
GRIDFORMAT_BEGIN
 90
        0
 91
        1
 62
     0
 92
       -2
340
0
 93
        0
 40
1.125
309
GRIDFORMAT_END
 95
        8
302
GRIDFORMAT
  1
GRIDFORMAT_BEGIN
 90
        0
 91
        1
 62
     0
 92
       -2
340
0
 93
        0
 40
1.125
309
GRIDFORMAT_END
 95
       16
302
GRIDFORMAT
  1
GRIDFORMAT_BEGIN
 90
        0
 91
        1
 62
     0
 92
       -2
340
0
 93
        0
 40
1.125
309
GRIDFORMAT_END
 95
       32
302
GRIDFORMAT
  1
GRIDFORMAT_BEGIN
 90
        0
 91
        1
 62
     0
 92
       -2
340
0
 93
        0
 40
1.125
309
GRIDFORMAT_END
309
TABLEFORMAT_END
  1
CELLSTYLE_BEGIN
 90
        1
 91
        1
300
_TITLE
309
CELLSTYLE_END
300
CELLSTYLE
  1
TABLEFORMAT_BEGIN
 90
        5
170
     1
 91
        0
 92
        0
 62
   257
 93
        1
300
CONTENTFORMAT
  1
CONTENTFORMAT_BEGIN
 90
        0
 91
        0
 92
      512
 93
        0
300

 40
0.0
140
1.0
 94
        5
 62
     0
340
11
144
4.5
309
CONTENTFORMAT_END
171
     1
301
MARGIN
  1
CELLMARGIN_BEGIN
 40
1.5
 40
1.5
 40
1.5
 40
1.5
 40
0.18
 40
0.18
309
CELLMARGIN_END
 94
        6
 95
        1
302
GRIDFORMAT
  1
GRIDFORMAT_BEGIN
 90
        0
 91
        1
 62
     0
 92
       -2
340
0
 93
        0
 40
1.125
309
GRIDFORMAT_END
 95
        2
302
GRIDFORMAT
  1
GRIDFORMAT_BEGIN
 90
        0
 91
        1
 62
     0
 92
       -2
340
0
 93
        0
 40
1.125
309
GRIDFORMAT_END
 95
        4
302
GRIDFORMAT
  1
GRIDFORMAT_BEGIN
 90
        0
 91
        1
 62
     0
 92
       -2
340
0
 93
        0
 40
1.125
309
GRIDFORMAT_END
 95
        8
302
GRIDFORMAT
  1
GRIDFORMAT_BEGIN
 90
        0
 91
        1
 62
     0
 92
       -2
340
0
 93
        0
 40
1.125
309
GRIDFORMAT_END
 95
       16
302
GRIDFORMAT
  1
GRIDFORMAT_BEGIN
 90
        0
 91
        1
 62
     0
 92
       -2
340
0
 93
        0
 40
1.125
309
GRIDFORMAT_END
 95
       32
302
GRIDFORMAT
  1
GRIDFORMAT_BEGIN
 90
        0
 91
        1
 62
     0
 92
       -2
340
0
 93
        0
 40
1.125
309
GRIDFORMAT_END
309
TABLEFORMAT_END
  1
CELLSTYLE_BEGIN
 90
        2
 91
        1
300
_HEADER
309
CELLSTYLE_END
300
CELLSTYLE
  1
TABLEFORMAT_BEGIN
 90
        5
170
     1
 91
        0
 92
        0
 62
   257
 93
        1
300
CONTENTFORMAT
  1
CONTENTFORMAT_BEGIN
 90
        0
 91
        0
 92
      512
 93
        0
300

 40
0.0
140
1.0
 94
        2
 62
     0
340
11
144
4.5
309
CONTENTFORMAT_END
171
     1
301
MARGIN
  1
CELLMARGIN_BEGIN
 40
1.5
 40
1.5
 40
1.5
 40
1.5
 40
0.18
 40
0.18
309
CELLMARGIN_END
 94
        6
 95
        1
302
GRIDFORMAT
  1
GRIDFORMAT_BEGIN
 90
        0
 91
        1
 62
     0
 92
       -2
340
0
 93
        0
 40
1.125
309
GRIDFORMAT_END
 95
        2
302
GRIDFORMAT
  1
GRIDFORMAT_BEGIN
 90
        0
 91
        1
 62
     0
 92
       -2
340
0
 93
        0
 40
1.125
309
GRIDFORMAT_END
 95
        4
302
GRIDFORMAT
  1
GRIDFORMAT_BEGIN
 90
        0
 91
        1
 62
     0
 92
       -2
340
0
 93
        0
 40
1.125
309
GRIDFORMAT_END
 95
        8
302
GRIDFORMAT
  1
GRIDFORMAT_BEGIN
 90
        0
 91
        1
 62
     0
 92
       -2
340
0
 93
        0
 40
1.125
309
GRIDFORMAT_END
 95
       16
302
GRIDFORMAT
  1
GRIDFORMAT_BEGIN
 90
        0
 91
        1
 62
     0
 92
       -2
340
0
 93
        0
 40
1.125
309
GRIDFORMAT_END
 95
       32
302
GRIDFORMAT
  1
GRIDFORMAT_BEGIN
 90
        0
 91
        1
 62
     0
 92
       -2
340
0
 93
        0
 40
1.125
309
GRIDFORMAT_END
309
TABLEFORMAT_END
  1
CELLSTYLE_BEGIN
 90
        3
 91
        2
300
_DATA
309
CELLSTYLE_END
  0
ENDSEC
  0
EOF
